0xPropo-Medium.ufo
<glyph name="exclam" format="2">
  <advance width="364"/>
  <unicode hex="0021"/>
  <outline>
    <contour>
      <point x="182" y="-27" type="curve" smooth="yes"/>
      <point x="223" y="-27"/>
      <point x="258" y="8"/>
      <point x="258" y="49" type="curve" smooth="yes"/>
      <point x="258" y="90"/>
      <point x="223" y="125"/>
      <point x="182" y="125" type="curve" smooth="yes"/>
      <point x="141" y="125"/>
      <point x="106" y="90"/>
      <point x="106" y="49" type="curve" smooth="yes"/>
      <point x="106" y="8"/>
      <point x="141" y="-27"/>
    </contour>
    <contour>
      <point x="100" y="725" type="line"/>
      <point x="107" y="560"/>
      <point x="127" y="375"/>
      <point x="135" y="210" type="curve"/>
      <point x="229" y="210" type="line"/>
      <point x="237" y="375"/>
      <point x="257" y="560"/>
      <point x="264" y="725" type="curve"/>
    </contour>
  </outline>
</glyph>
<glyph name="quotedbl" format="2">
  <advance width="534"/>
  <unicode hex="0022"/>
  <outline>
    <contour>
      <point x="100" y="710" type="line"/>
      <point x="137" y="438" type="line"/>
      <point x="189" y="438" type="line"/>
      <point x="226" y="710" type="line"/>
    </contour>
    <contour>
      <point x="308" y="710" type="line"/>
      <point x="345" y="438" type="line"/>
      <point x="397" y="438" type="line"/>
      <point x="434" y="710" type="line"/>
    </contour>
  </outline>
</glyph>
<glyph name="numbersign" format="2">
  <advance width="724"/>
  <unicode hex="0023"/>
  <outline>
    <contour>
      <point x="562" y="244" type="line"/>
      <point x="100" y="244" type="line"/>
      <point x="100" y="157" type="line"/>
      <point x="562" y="157" type="line"/>
    </contour>
    <contour>
      <point x="624" y="550" type="line"/>
      <point x="166" y="550" type="line"/>
      <point x="166" y="463" type="line"/>
      <point x="624" y="463" type="line"/>
    </contour>
    <contour>
      <point x="229" y="0" type="line"/>
      <point x="401" y="710" type="line"/>
      <point x="311" y="710" type="line"/>
      <point x="139" y="0" type="line"/>
    </contour>
    <contour>
      <point x="423" y="0" type="line"/>
      <point x="595" y="710" type="line"/>
      <point x="505" y="710" type="line"/>
      <point x="333" y="0" type="line"/>
    </contour>
  </outline>
</glyph>
<glyph name="percent" format="2">
  <advance width="728"/>
  <unicode hex="0025"/>
  <outline>
    <contour>
      <point x="612" y="710" type="line"/>
      <point x="544" y="710" type="line"/>
      <point x="110" y="10" type="line"/>
      <point x="111" y="0" type="line"/>
      <point x="179" y="0" type="line"/>
      <point x="613" y="700" type="line"/>
    </contour>
    <contour>
      <point x="227" y="403" type="curve" smooth="yes"/>
      <point x="326" y="403"/>
      <point x="374" y="467"/>
      <point x="374" y="564" type="curve" smooth="yes"/>
      <point x="374" y="661"/>
      <point x="326" y="726"/>
      <point x="227" y="726" type="curve" smooth="yes"/>
      <point x="128" y="726"/>
      <point x="80" y="661"/>
      <point x="80" y="564" type="curve" smooth="yes"/>
      <point x="80" y="467"/>
      <point x="128" y="403"/>
    </contour>
    <contour>
      <point x="227" y="469" type="curve" smooth="yes"/>
      <point x="174" y="469"/>
      <point x="158" y="515"/>
      <point x="158" y="564" type="curve" smooth="yes"/>
      <point x="158" y="614"/>
      <point x="174" y="659"/>
      <point x="227" y="659" type="curve" smooth="yes"/>
      <point x="279" y="659"/>
      <point x="295" y="614"/>
      <point x="295" y="564" type="curve" smooth="yes"/>
      <point x="295" y="515"/>
      <point x="279" y="469"/>
    </contour>
    <contour>
      <point x="501" y="307" type="curve" smooth="yes"/>
      <point x="402" y="307"/>
      <point x="354" y="243"/>
      <point x="354" y="146" type="curve" smooth="yes"/>
      <point x="354" y="49"/>
      <point x="402" y="-16"/>
      <point x="501" y="-16" type="curve" smooth="yes"/>
      <point x="600" y="-16"/>
      <point x="648" y="49"/>
      <point x="648" y="146" type="curve" smooth="yes"/>
      <point x="648" y="243"/>
      <point x="600" y="307"/>
    </contour>
    <contour>
      <point x="501" y="241" type="curve" smooth="yes"/>
      <point x="553" y="241"/>
      <point x="569" y="195"/>
      <point x="569" y="146" type="curve" smooth="yes"/>
      <point x="569" y="96"/>
      <point x="553" y="51"/>
      <point x="501" y="51" type="curve" smooth="yes"/>
      <point x="448" y="51"/>
      <point x="432" y="96"/>
      <point x="432" y="146" type="curve" smooth="yes"/>
      <point x="432" y="195"/>
      <point x="448" y="241"/>
    </contour>
  </outline>
</glyph>
<glyph name="ampersand" format="2">
  <advance width="684"/>
  <unicode hex="0026"/>
  <outline>
    <contour>
      <point x="137" y="565" type="curve" smooth="yes"/>
      <point x="137" y="512"/>
      <point x="172" y="458"/>
      <point x="201" y="421" type="curve" smooth="yes"/>
      <point x="542" y="-16" type="line"/>
      <point x="609" y="40" type="line"/>
      <point x="291" y="442" type="line" smooth="yes"/>
      <point x="261" y="479"/>
      <point x="235" y="517"/>
      <point x="235" y="557" type="curve" smooth="yes"/>
      <point x="235" y="609"/>
      <point x="273" y="637"/>
      <point x="323" y="637" type="curve" smooth="yes"/>
      <point x="387" y="637"/>
      <point x="410" y="587"/>
      <point x="410" y="550" type="curve"/>
      <point x="508" y="550" type="line"/>
      <point x="508" y="640"/>
      <point x="445" y="725"/>
      <point x="326" y="725" type="curve" smooth="yes"/>
      <point x="197" y="725"/>
      <point x="137" y="654"/>
    </contour>
    <contour>
      <point x="516" y="404" type="line"/>
      <point x="446" y="191" type="line" smooth="yes"/>
      <point x="424" y="123"/>
      <point x="370" y="73"/>
      <point x="296" y="72" type="curve" smooth="yes"/>
      <point x="213" y="71"/>
      <point x="162" y="119"/>
      <point x="162" y="198" type="curve" smooth="yes"/>
      <point x="162" y="277"/>
      <point x="233" y="343"/>
      <point x="317" y="343" type="curve"/>
      <point x="306" y="412" type="line"/>
      <point x="175" y="410"/>
      <point x="65" y="312"/>
      <point x="65" y="198" type="curve" smooth="yes"/>
      <point x="65" y="63"/>
      <point x="154" y="-16"/>
      <point x="297" y="-16" type="curve" smooth="yes"/>
      <point x="423" y="-16"/>
      <point x="490" y="54"/>
      <point x="515" y="128" type="curve" smooth="yes"/>
      <point x="606" y="394" type="line"/>
      <point x="606" y="404" type="line"/>
    </contour>
  </outline>
</glyph>
<glyph name="quotesingle" format="2">
  <advance width="326"/>
  <unicode hex="0027"/>
  <outline>
    <contour>
      <point x="100" y="710" type="line"/>
      <point x="137" y="438" type="line"/>
      <point x="189" y="438" type="line"/>
      <point x="226" y="710" type="line"/>
    </contour>
  </outline>
</glyph>
<glyph name="parenleft" format="2">
  <advance width="535"/>
  <unicode hex="0028"/>
  <outline>
    <contour>
      <point x="392" y="-138" type="curve"/>
      <point x="435" y="-51" type="line"/>
      <point x="290" y="24"/>
      <point x="204" y="159"/>
      <point x="204" y="311" type="curve" smooth="yes"/>
      <point x="204" y="463"/>
      <point x="289" y="598"/>
      <point x="435" y="673" type="curve"/>
      <point x="392" y="760" type="line"/>
      <point x="214" y="668"/>
      <point x="100" y="507"/>
      <point x="100" y="311" type="curve" smooth="yes"/>
      <point x="100" y="115"/>
      <point x="214" y="-46"/>
    </contour>
  </outline>
</glyph>
<glyph name="parenright" format="2">
  <advance width="535"/>
  <unicode hex="0029"/>
  <outline>
    <contour>
      <point x="143" y="-138" type="line"/>
      <point x="321" y="-46"/>
      <point x="435" y="115"/>
      <point x="435" y="311" type="curve" smooth="yes"/>
      <point x="435" y="507"/>
      <point x="321" y="668"/>
      <point x="143" y="760" type="curve"/>
      <point x="100" y="673" type="line"/>
      <point x="246" y="598"/>
      <point x="331" y="463"/>
      <point x="331" y="311" type="curve" smooth="yes"/>
      <point x="331" y="159"/>
      <point x="245" y="24"/>
      <point x="100" y="-51" type="curve"/>
    </contour>
  </outline>
</glyph>
<glyph name="asterisk" format="2">
  <advance width="688"/>
  <unicode hex="002A"/>
  <outline>
    <contour>
      <point x="294" y="534" type="line"/>
      <point x="316" y="292" type="line"/>
      <point x="372" y="292" type="line"/>
      <point x="394" y="534" type="line"/>
    </contour>
    <contour>
      <point x="558" y="411" type="line"/>
      <point x="336" y="317" type="line"/>
      <point x="354" y="263" type="line"/>
      <point x="588" y="317" type="line"/>
    </contour>
    <contour>
      <point x="130" y="411" type="line"/>
      <point x="100" y="317" type="line"/>
      <point x="334" y="263" type="line"/>
      <point x="352" y="317" type="line"/>
    </contour>
    <contour>
      <point x="160" y="117" type="line"/>
      <point x="242" y="58" type="line"/>
      <point x="368" y="275" type="line"/>
      <point x="322" y="309" type="line"/>
    </contour>
    <contour>
      <point x="529" y="117" type="line"/>
      <point x="367" y="309" type="line"/>
      <point x="321" y="275" type="line"/>
      <point x="447" y="58" type="line"/>
    </contour>
  </outline>
</glyph>
<glyph name="plus" format="2">
  <advance width="600"/>
  <unicode hex="002B"/>
  <outline>
    <contour>
      <point x="535" y="350" type="line"/>
      <point x="65" y="350" type="line"/>
      <point x="65" y="264" type="line"/>
      <point x="535" y="264" type="line"/>
    </contour>
    <contour>
      <point x="345" y="56" type="line"/>
      <point x="345" y="558" type="line"/>
      <point x="255" y="558" type="line"/>
      <point x="255" y="56" type="line"/>
    </contour>
  </outline>
</glyph>
<glyph name="comma" format="2">
  <advance width="366"/>
  <unicode hex="002C"/>
  <outline>
    <contour>
      <point x="149" y="39" type="line"/>
      <point x="63" y="-193" type="line"/>
      <point x="124" y="-193" type="line"/>
      <point x="267" y="39" type="line"/>
    </contour>
    <contour>
      <point x="203" y="0" type="curve" smooth="yes"/>
      <point x="243" y="0"/>
      <point x="276" y="34"/>
      <point x="276" y="76" type="curve" smooth="yes"/>
      <point x="276" y="116"/>
      <point x="243" y="151"/>
      <point x="203" y="151" type="curve" smooth="yes"/>
      <point x="160" y="151"/>
      <point x="126" y="116"/>
      <point x="126" y="76" type="curve" smooth="yes"/>
      <point x="126" y="34"/>
      <point x="160" y="0"/>
    </contour>
  </outline>
</glyph>
<glyph name="hyphen" format="2">
  <advance width="560"/>
  <unicode hex="002D"/>
  <outline>
    <contour>
      <point x="485" y="350" type="line"/>
      <point x="75" y="350" type="line"/>
      <point x="75" y="264" type="line"/>
      <point x="485" y="264" type="line"/>
    </contour>
  </outline>
</glyph>
<glyph name="period" format="2">
  <advance width="366"/>
  <unicode hex="002E"/>
  <outline>
    <contour>
      <point x="183" y="-19" type="curve" smooth="yes"/>
      <point x="229" y="-19"/>
      <point x="266" y="18"/>
      <point x="266" y="64" type="curve" smooth="yes"/>
      <point x="266" y="110"/>
      <point x="229" y="147"/>
      <point x="183" y="147" type="curve" smooth="yes"/>
      <point x="137" y="147"/>
      <point x="100" y="110"/>
      <point x="100" y="64" type="curve" smooth="yes"/>
      <point x="100" y="18"/>
      <point x="137" y="-19"/>
    </contour>
  </outline>
</glyph>
<glyph name="slash" format="2">
  <advance width="566"/>
  <unicode hex="002F"/>
  <outline>
    <contour>
      <point x="365" y="750" type="line"/>
      <point x="100" y="-110" type="line"/>
      <point x="100" y="-120" type="line"/>
      <point x="201" y="-120" type="line"/>
      <point x="466" y="740" type="line"/>
      <point x="466" y="750" type="line"/>
    </contour>
  </outline>
</glyph>
<glyph name="zero" format="2">
  <advance width="650"/>
  <unicode hex="0030"/>
  <outline>
    <contour>
      <point x="325" y="-16" type="curve" smooth="yes"/>
      <point x="523" y="-16"/>
      <point x="580" y="143"/>
      <point x="580" y="355" type="curve" smooth="yes"/>
      <point x="580" y="567"/>
      <point x="523" y="726"/>
      <point x="325" y="726" type="curve" smooth="yes"/>
      <point x="127" y="726"/>
      <point x="70" y="567"/>
      <point x="70" y="355" type="curve" smooth="yes"/>
      <point x="70" y="143"/>
      <point x="127" y="-16"/>
    </contour>
    <contour>
      <point x="325" y="73" type="curve" smooth="yes"/>
      <point x="185" y="73"/>
      <point x="168" y="194"/>
      <point x="168" y="355" type="curve" smooth="yes"/>
      <point x="168" y="515"/>
      <point x="185" y="637"/>
      <point x="325" y="637" type="curve" smooth="yes"/>
      <point x="465" y="637"/>
      <point x="482" y="515"/>
      <point x="482" y="355" type="curve" smooth="yes"/>
      <point x="482" y="194"/>
      <point x="465" y="73"/>
    </contour>
    <contour>
      <point x="144" y="108" type="line"/>
      <point x="224" y="108" type="line"/>
      <point x="510" y="603" type="line"/>
      <point x="430" y="603" type="line"/>
    </contour>
  </outline>
</glyph>
<glyph name="one" format="2">
  <advance width="605"/>
  <unicode hex="0031"/>
  <outline>
    <contour>
      <point x="271" y="640" type="line"/>
      <point x="271" y="0" type="line"/>
      <point x="371" y="0" type="line"/>
      <point x="371" y="710" type="line"/>
      <point x="294" y="710" type="line"/>
    </contour>
    <contour>
      <point x="540" y="88" type="line"/>
      <point x="87" y="88" type="line"/>
      <point x="87" y="0" type="line"/>
      <point x="540" y="0" type="line"/>
    </contour>
    <contour>
      <point x="294" y="710" type="line"/>
      <point x="247" y="642"/>
      <point x="160" y="591"/>
      <point x="80" y="574" type="curve"/>
      <point x="121" y="483" type="line"/>
      <point x="217" y="506"/>
      <point x="294" y="556"/>
      <point x="350" y="629" type="curve"/>
    </contour>
  </outline>
</glyph>
<glyph name="two" format="2">
  <advance width="614"/>
  <unicode hex="0032"/>
  <outline>
    <contour>
      <point x="82" y="88" type="line"/>
      <point x="82" y="0" type="line"/>
      <point x="540" y="0" type="line"/>
      <point x="540" y="88" type="line"/>
    </contour>
    <contour>
      <point x="70" y="630" type="curve"/>
      <point x="124" y="566" type="line"/>
      <point x="175" y="608"/>
      <point x="235" y="635"/>
      <point x="291" y="635" type="curve" smooth="yes"/>
      <point x="372" y="635"/>
      <point x="421" y="578"/>
      <point x="421" y="508" type="curve" smooth="yes"/>
      <point x="421" y="409"/>
      <point x="331" y="339"/>
      <point x="258" y="266" type="curve" smooth="yes"/>
      <point x="82" y="88" type="line"/>
      <point x="218" y="88" type="line"/>
      <point x="387" y="266" type="line" smooth="yes"/>
      <point x="449" y="332"/>
      <point x="519" y="392"/>
      <point x="519" y="518" type="curve" smooth="yes"/>
      <point x="519" y="633"/>
      <point x="433" y="724"/>
      <point x="309" y="724" type="curve" smooth="yes"/>
      <point x="213" y="724"/>
      <point x="133" y="687"/>
    </contour>
  </outline>
</glyph>
<glyph name="three" format="2">
  <advance width="623"/>
  <unicode hex="0033"/>
  <outline>
    <contour>
      <point x="533" y="195" type="curve" smooth="yes"/>
      <point x="533" y="71"/>
      <point x="447" y="-16"/>
      <point x="312" y="-16" type="curve" smooth="yes"/>
      <point x="208" y="-16"/>
      <point x="146" y="10"/>
      <point x="75" y="59" type="curve"/>
      <point x="125" y="133" type="line"/>
      <point x="170" y="99"/>
      <point x="223" y="72"/>
      <point x="293" y="72" type="curve" smooth="yes"/>
      <point x="388" y="72"/>
      <point x="435" y="129"/>
      <point x="435" y="195" type="curve" smooth="yes"/>
      <point x="435" y="265"/>
      <point x="375" y="319"/>
      <point x="277" y="319" type="curve" smooth="yes"/>
      <point x="257" y="319"/>
      <point x="246" y="319"/>
      <point x="223" y="319" type="curve"/>
      <point x="223" y="405" type="line"/>
      <point x="248" y="405"/>
      <point x="259" y="405"/>
      <point x="279" y="405" type="curve" smooth="yes"/>
      <point x="375" y="405"/>
      <point x="420" y="457"/>
      <point x="420" y="530" type="curve" smooth="yes"/>
      <point x="420" y="600"/>
      <point x="365" y="636"/>
      <point x="298" y="636" type="curve" smooth="yes"/>
      <point x="248" y="636"/>
      <point x="193" y="611"/>
      <point x="150" y="568" type="curve"/>
      <point x="85" y="630" type="line"/>
      <point x="145" y="691"/>
      <point x="223" y="724"/>
      <point x="310" y="724" type="curve" smooth="yes"/>
      <point x="429" y="724"/>
      <point x="518" y="650"/>
      <point x="518" y="537" type="curve" smooth="yes"/>
      <point x="518" y="466"/>
      <point x="484" y="402"/>
      <point x="422" y="365" type="curve"/>
      <point x="485" y="337"/>
      <point x="533" y="272"/>
    </contour>
  </outline>
</glyph>
<glyph name="four" format="2">
  <advance width="640"/>
  <unicode hex="0034"/>
  <outline>
    <contour>
      <point x="376" y="505" type="line"/>
      <point x="376" y="0" type="line"/>
      <point x="474" y="0" type="line"/>
      <point x="474" y="505" type="line"/>
    </contour>
    <contour>
      <point x="266" y="710" type="line"/>
      <point x="177" y="523"/>
      <point x="124" y="383"/>
      <point x="80" y="246" type="curve"/>
      <point x="187" y="246" type="line"/>
      <point x="224" y="381"/>
      <point x="277" y="516"/>
      <point x="367" y="700" type="curve"/>
      <point x="367" y="710" type="line"/>
    </contour>
    <contour>
      <point x="564" y="246" type="line"/>
      <point x="80" y="246" type="line"/>
      <point x="80" y="158" type="line"/>
      <point x="564" y="158" type="line"/>
    </contour>
  </outline>
</glyph>
<glyph name="five" format="2">
  <advance width="621"/>
  <unicode hex="0035"/>
  <outline>
    <contour>
      <point x="203" y="330" type="line"/>
      <point x="239" y="350"/>
      <point x="281" y="363"/>
      <point x="321" y="363" type="curve" smooth="yes"/>
      <point x="394" y="363"/>
      <point x="442" y="306"/>
      <point x="442" y="223" type="curve" smooth="yes"/>
      <point x="442" y="128"/>
      <point x="381" y="72"/>
      <point x="306" y="72" type="curve" smooth="yes"/>
      <point x="240" y="72"/>
      <point x="196" y="92"/>
      <point x="151" y="135" type="curve"/>
      <point x="86" y="73" type="line"/>
      <point x="161" y="9"/>
      <point x="225" y="-16"/>
      <point x="312" y="-16" type="curve" smooth="yes"/>
      <point x="448" y="-16"/>
      <point x="539" y="81"/>
      <point x="539" y="223" type="curve" smooth="yes"/>
      <point x="539" y="358"/>
      <point x="448" y="450"/>
      <point x="341" y="450" type="curve" smooth="yes"/>
      <point x="285" y="450"/>
      <point x="236" y="431"/>
      <point x="203" y="400" type="curve"/>
    </contour>
    <contour>
      <point x="115" y="710" type="line"/>
      <point x="115" y="622" type="line"/>
      <point x="505" y="622" type="line"/>
      <point x="505" y="710" type="line"/>
    </contour>
    <contour>
      <point x="203" y="710" type="line"/>
      <point x="115" y="710" type="line"/>
      <point x="115" y="330" type="line"/>
      <point x="203" y="330" type="line"/>
    </contour>
  </outline>
</glyph>
<glyph name="six" format="2">
  <advance width="633"/>
  <unicode hex="0036"/>
  <outline>
    <contour>
      <point x="86" y="239" type="curve" smooth="yes"/>
      <point x="86" y="90"/>
      <point x="176" y="-15"/>
      <point x="321" y="-15" type="curve" smooth="yes"/>
      <point x="462" y="-15"/>
      <point x="553" y="80"/>
      <point x="553" y="205" type="curve" smooth="yes"/>
      <point x="553" y="334"/>
      <point x="459" y="428"/>
      <point x="348" y="428" type="curve" smooth="yes"/>
      <point x="293" y="428"/>
      <point x="247" y="410"/>
      <point x="210" y="377" type="curve"/>
      <point x="241" y="476"/>
      <point x="302" y="567"/>
      <point x="400" y="657" type="curve"/>
      <point x="332" y="726" type="line"/>
      <point x="169" y="574"/>
      <point x="86" y="395"/>
    </contour>
    <contour>
      <point x="321" y="340" type="curve" smooth="yes"/>
      <point x="400" y="340"/>
      <point x="455" y="284"/>
      <point x="455" y="206" type="curve" smooth="yes"/>
      <point x="455" y="130"/>
      <point x="400" y="73"/>
      <point x="321" y="73" type="curve" smooth="yes"/>
      <point x="243" y="73"/>
      <point x="188" y="127"/>
      <point x="188" y="206" type="curve" smooth="yes"/>
      <point x="188" y="286"/>
      <point x="243" y="340"/>
    </contour>
  </outline>
</glyph>
<glyph name="seven" format="2">
  <advance width="664"/>
  <unicode hex="0037"/>
  <outline>
    <contour>
      <point x="100" y="710" type="line"/>
      <point x="100" y="646" type="line"/>
      <point x="574" y="646" type="line"/>
      <point x="574" y="710" type="line"/>
    </contour>
    <contour>
      <point x="574" y="646" type="curve"/>
      <point x="464" y="646" type="line"/>
      <point x="380" y="386"/>
      <point x="296" y="211"/>
      <point x="270" y="0" type="curve"/>
      <point x="377" y="0" type="line"/>
      <point x="403" y="211"/>
      <point x="490" y="390"/>
    </contour>
    <contour>
      <point x="198" y="646" type="line"/>
      <point x="100" y="646" type="line"/>
      <point x="100" y="486" type="line"/>
      <point x="198" y="486" type="line"/>
    </contour>
    <contour>
      <point x="187" y="710" type="line"/>
      <point x="187" y="622" type="line"/>
      <point x="469" y="622" type="line"/>
      <point x="469" y="710" type="line"/>
    </contour>
  </outline>
</glyph>
<glyph name="eight" format="2">
  <advance width="638"/>
  <unicode hex="0038"/>
  <outline>
    <contour>
      <point x="319" y="-16" type="curve" smooth="yes"/>
      <point x="434" y="-16"/>
      <point x="562" y="37"/>
      <point x="562" y="192" type="curve" smooth="yes"/>
      <point x="562" y="280"/>
      <point x="500" y="346"/>
      <point x="433" y="367" type="curve"/>
      <point x="495" y="399"/>
      <point x="538" y="445"/>
      <point x="538" y="538" type="curve" smooth="yes"/>
      <point x="538" y="625"/>
      <point x="475" y="725"/>
      <point x="319" y="725" type="curve" smooth="yes"/>
      <point x="163" y="725"/>
      <point x="100" y="625"/>
      <point x="100" y="538" type="curve" smooth="yes"/>
      <point x="100" y="445"/>
      <point x="143" y="399"/>
      <point x="205" y="367" type="curve"/>
      <point x="138" y="346"/>
      <point x="76" y="280"/>
      <point x="76" y="192" type="curve" smooth="yes"/>
      <point x="76" y="37"/>
      <point x="204" y="-16"/>
    </contour>
    <contour>
      <point x="174" y="196" type="curve" smooth="yes"/>
      <point x="174" y="266"/>
      <point x="233" y="318"/>
      <point x="319" y="318" type="curve" smooth="yes"/>
      <point x="405" y="318"/>
      <point x="464" y="266"/>
      <point x="464" y="196" type="curve" smooth="yes"/>
      <point x="464" y="119"/>
      <point x="414" y="72"/>
      <point x="319" y="72" type="curve" smooth="yes"/>
      <point x="224" y="72"/>
      <point x="174" y="119"/>
    </contour>
    <contour>
      <point x="197" y="527" type="curve" smooth="yes"/>
      <point x="197" y="575"/>
      <point x="225" y="637"/>
      <point x="319" y="637" type="curve" smooth="yes"/>
      <point x="413" y="637"/>
      <point x="443" y="575"/>
      <point x="443" y="527" type="curve" smooth="yes"/>
      <point x="443" y="458"/>
      <point x="395" y="413"/>
      <point x="320" y="413" type="curve" smooth="yes"/>
      <point x="245" y="413"/>
      <point x="197" y="458"/>
    </contour>
  </outline>
</glyph>
<glyph name="nine" format="2">
  <advance width="633"/>
  <unicode hex="0039"/>
  <outline>
    <contour>
      <point x="80" y="506" type="curve" smooth="yes"/>
      <point x="80" y="382"/>
      <point x="172" y="283"/>
      <point x="292" y="283" type="curve" smooth="yes"/>
      <point x="365" y="283"/>
      <point x="419" y="310"/>
      <point x="451" y="362" type="curve"/>
      <point x="433" y="266"/>
      <point x="324" y="134"/>
      <point x="214" y="54" type="curve"/>
      <point x="279" y="-15" type="line"/>
      <point x="450" y="122"/>
      <point x="547" y="274"/>
      <point x="547" y="463" type="curve" smooth="yes"/>
      <point x="547" y="628"/>
      <point x="451" y="726"/>
      <point x="312" y="726" type="curve" smooth="yes"/>
      <point x="164" y="726"/>
      <point x="80" y="631"/>
    </contour>
    <contour>
      <point x="309" y="371" type="curve" smooth="yes"/>
      <point x="231" y="371"/>
      <point x="176" y="425"/>
      <point x="176" y="505" type="curve" smooth="yes"/>
      <point x="176" y="584"/>
      <point x="231" y="638"/>
      <point x="309" y="638" type="curve" smooth="yes"/>
      <point x="388" y="638"/>
      <point x="443" y="581"/>
      <point x="443" y="505" type="curve" smooth="yes"/>
      <point x="443" y="427"/>
      <point x="388" y="371"/>
    </contour>
  </outline>
</glyph>
<glyph name="colon" format="2">
  <advance width="350"/>
  <unicode hex="003A"/>
  <outline>
    <contour>
      <point x="175" y="0" type="curve" smooth="yes"/>
      <point x="216" y="0"/>
      <point x="250" y="34"/>
      <point x="250" y="75" type="curve" smooth="yes"/>
      <point x="250" y="116"/>
      <point x="216" y="150"/>
      <point x="175" y="150" type="curve" smooth="yes"/>
      <point x="134" y="150"/>
      <point x="100" y="116"/>
      <point x="100" y="75" type="curve" smooth="yes"/>
      <point x="100" y="34"/>
      <point x="134" y="0"/>
    </contour>
    <contour>
      <point x="175" y="397" type="curve" smooth="yes"/>
      <point x="216" y="397"/>
      <point x="250" y="431"/>
      <point x="250" y="472" type="curve" smooth="yes"/>
      <point x="250" y="513"/>
      <point x="216" y="547"/>
      <point x="175" y="547" type="curve" smooth="yes"/>
      <point x="134" y="547"/>
      <point x="100" y="513"/>
      <point x="100" y="472" type="curve" smooth="yes"/>
      <point x="100" y="431"/>
      <point x="134" y="397"/>
    </contour>
  </outline>
</glyph>
<glyph name="semicolon" format="2">
  <advance width="413"/>
  <unicode hex="003B"/>
  <outline>
    <contour>
      <point x="238" y="400" type="curve" smooth="yes"/>
      <point x="279" y="400"/>
      <point x="313" y="434"/>
      <point x="313" y="475" type="curve" smooth="yes"/>
      <point x="313" y="516"/>
      <point x="279" y="550"/>
      <point x="238" y="550" type="curve" smooth="yes"/>
      <point x="197" y="550"/>
      <point x="163" y="516"/>
      <point x="163" y="475" type="curve" smooth="yes"/>
      <point x="163" y="434"/>
      <point x="197" y="400"/>
    </contour>
    <contour>
      <point x="186" y="39" type="line"/>
      <point x="100" y="-193" type="line"/>
      <point x="161" y="-193" type="line"/>
      <point x="304" y="39" type="line"/>
    </contour>
    <contour>
      <point x="240" y="0" type="curve" smooth="yes"/>
      <point x="280" y="0"/>
      <point x="313" y="34"/>
      <point x="313" y="76" type="curve" smooth="yes"/>
      <point x="313" y="116"/>
      <point x="280" y="151"/>
      <point x="240" y="151" type="curve" smooth="yes"/>
      <point x="197" y="151"/>
      <point x="163" y="116"/>
      <point x="163" y="76" type="curve" smooth="yes"/>
      <point x="163" y="34"/>
      <point x="197" y="0"/>
    </contour>
  </outline>
</glyph>
<glyph name="less" format="2">
  <advance width="620"/>
  <unicode hex="003C"/>
  <outline>
    <contour>
      <point x="520" y="597" type="line"/>
      <point x="510" y="597" type="line"/>
      <point x="100" y="356" type="line"/>
      <point x="100" y="263" type="line"/>
      <point x="520" y="498" type="line"/>
    </contour>
    <contour>
      <point x="520" y="11" type="line"/>
      <point x="520" y="110" type="line"/>
      <point x="100" y="350" type="line"/>
      <point x="100" y="257" type="line"/>
      <point x="510" y="11" type="line"/>
    </contour>
  </outline>
</glyph>
<glyph name="equal" format="2">
  <advance width="610"/>
  <unicode hex="003D"/>
  <outline>
    <contour>
      <point x="540" y="250" type="line"/>
      <point x="70" y="250" type="line"/>
      <point x="70" y="164" type="line"/>
      <point x="540" y="164" type="line"/>
    </contour>
    <contour>
      <point x="540" y="452" type="line"/>
      <point x="70" y="452" type="line"/>
      <point x="70" y="366" type="line"/>
      <point x="540" y="366" type="line"/>
    </contour>
  </outline>
</glyph>
<glyph name="question" format="2">
  <advance width="728"/>
  <unicode hex="003F"/>
  <outline>
    <contour>
      <point x="311" y="210" type="line"/>
      <point x="410" y="210" type="line"/>
      <point x="410" y="235" type="line" smooth="yes"/>
      <point x="410" y="359"/>
      <point x="628" y="348"/>
      <point x="628" y="523" type="curve" smooth="yes"/>
      <point x="628" y="629"/>
      <point x="525" y="726"/>
      <point x="359" y="726" type="curve" smooth="yes"/>
      <point x="252" y="726"/>
      <point x="159" y="665"/>
      <point x="100" y="598" type="curve"/>
      <point x="171" y="535" type="line"/>
      <point x="211" y="579"/>
      <point x="270" y="628"/>
      <point x="362" y="628" type="curve" smooth="yes"/>
      <point x="476" y="628"/>
      <point x="528" y="572"/>
      <point x="528" y="521" type="curve" smooth="yes"/>
      <point x="528" y="415"/>
      <point x="311" y="430"/>
      <point x="311" y="229" type="curve" smooth="yes"/>
    </contour>
    <contour>
      <point x="367" y="-27" type="curve" smooth="yes"/>
      <point x="408" y="-27"/>
      <point x="443" y="8"/>
      <point x="443" y="49" type="curve" smooth="yes"/>
      <point x="443" y="90"/>
      <point x="408" y="125"/>
      <point x="367" y="125" type="curve" smooth="yes"/>
      <point x="326" y="125"/>
      <point x="291" y="90"/>
      <point x="291" y="49" type="curve" smooth="yes"/>
      <point x="291" y="8"/>
      <point x="326" y="-27"/>
    </contour>
  </outline>
</glyph>
<glyph name="at" format="2">
  <advance width="709"/>
  <unicode hex="0040"/>
  <outline>
    <contour>
      <point x="232" y="-14" type="curve" smooth="yes"/>
      <point x="356" y="-14"/>
      <point x="415" y="123"/>
      <point x="415" y="222" type="curve" smooth="yes"/>
      <point x="415" y="357"/>
      <point x="391" y="494"/>
      <point x="277" y="494" type="curve" smooth="yes"/>
      <point x="158" y="494"/>
      <point x="98" y="361"/>
      <point x="88" y="236" type="curve" smooth="yes"/>
      <point x="79" y="119"/>
      <point x="107" y="-14"/>
    </contour>
    <contour>
      <point x="244" y="71" type="curve" smooth="yes"/>
      <point x="170" y="71"/>
      <point x="160" y="159"/>
      <point x="165" y="232" type="curve" smooth="yes"/>
      <point x="170" y="311"/>
      <point x="208" y="408"/>
      <point x="281" y="408" type="curve" smooth="yes"/>
      <point x="370" y="408"/>
      <point x="384" y="297"/>
      <point x="384" y="220" type="curve" smooth="yes"/>
      <point x="384" y="141"/>
      <point x="314" y="71"/>
    </contour>
    <contour>
      <point x="420" y="143" type="line"/>
      <point x="436" y="491" type="line"/>
      <point x="368" y="492" type="line"/>
      <point x="357" y="461" type="line"/>
      <point x="344" y="48" type="line"/>
      <point x="382" y="84" type="line"/>
    </contour>
    <contour>
      <point x="420" y="143" type="curve"/>
      <point x="360" y="71" type="line"/>
      <point x="371" y="31"/>
      <point x="407" y="-16"/>
      <point x="472" y="-16" type="curve" smooth="yes"/>
      <point x="608" y="-16"/>
      <point x="633" y="182"/>
      <point x="629" y="323" type="curve" smooth="yes"/>
      <point x="623" y="542"/>
      <point x="556" y="726"/>
      <point x="340" y="726" type="curve" smooth="yes"/>
      <point x="256" y="726"/>
      <point x="162" y="693"/>
      <point x="85" y="627" type="curve"/>
      <point x="139" y="557" type="line"/>
      <point x="198" y="601"/>
      <point x="271" y="637"/>
      <point x="343" y="636" type="curve" smooth="yes"/>
      <point x="489" y="634"/>
      <point x="536" y="477"/>
      <point x="540" y="322" type="curve" smooth="yes"/>
      <point x="545" y="136"/>
      <point x="513" y="68"/>
      <point x="468" y="68" type="curve" smooth="yes"/>
      <point x="444" y="68"/>
      <point x="420" y="86"/>
    </contour>
  </outline>
</glyph>
<glyph name="A" format="2">
  <advance width="652"/>
  <unicode hex="0041"/>
  <anchor x="326" y="0" name="bottom"/>
  <anchor x="598" y="0" name="ogonek"/>
  <anchor x="326" y="710" name="top"/>
  <outline>
    <contour>
      <point x="54" y="0" type="curve"/>
      <point x="155" y="0" type="line"/>
      <point x="223" y="304"/>
      <point x="286" y="540"/>
      <point x="368" y="710" type="curve"/>
      <point x="274" y="710" type="line"/>
      <point x="192" y="540"/>
      <point x="122" y="304"/>
    </contour>
    <contour>
      <point x="598" y="0" type="line"/>
      <point x="530" y="304"/>
      <point x="460" y="540"/>
      <point x="378" y="710" type="curve"/>
      <point x="284" y="710" type="line"/>
      <point x="366" y="540"/>
      <point x="429" y="304"/>
      <point x="497" y="0" type="curve"/>
    </contour>
    <contour>
      <point x="180" y="258" type="line"/>
      <point x="180" y="170" type="line"/>
      <point x="480" y="170" type="line"/>
      <point x="480" y="258" type="line"/>
    </contour>
  </outline>
</glyph>
<glyph name="B" format="2">
  <advance width="670"/>
  <unicode hex="0042"/>
  <anchor x="340" y="0" name="bottom"/>
  <anchor x="340" y="355" name="center"/>
  <anchor x="340" y="710" name="top"/>
  <outline>
    <contour>
      <point x="100" y="710" type="line"/>
      <point x="100" y="0" type="line"/>
      <point x="198" y="0" type="line"/>
      <point x="198" y="710" type="line"/>
    </contour>
    <contour>
      <point x="197" y="413" type="curve"/>
      <point x="197" y="350" type="line"/>
      <point x="264" y="350"/>
      <point x="269" y="350"/>
      <point x="322" y="350" type="curve" smooth="yes"/>
      <point x="448" y="350"/>
      <point x="557" y="418"/>
      <point x="557" y="532" type="curve" smooth="yes"/>
      <point x="557" y="655"/>
      <point x="467" y="710"/>
      <point x="322" y="710" type="curve" smooth="yes"/>
      <point x="282" y="710"/>
      <point x="271" y="710"/>
      <point x="197" y="710" type="curve"/>
      <point x="197" y="622" type="line"/>
      <point x="272" y="622"/>
      <point x="280" y="622"/>
      <point x="322" y="622" type="curve" smooth="yes"/>
      <point x="412" y="622"/>
      <point x="459" y="592"/>
      <point x="459" y="519" type="curve" smooth="yes"/>
      <point x="459" y="443"/>
      <point x="412" y="413"/>
      <point x="322" y="413" type="curve" smooth="yes"/>
      <point x="269" y="413"/>
      <point x="265" y="413"/>
    </contour>
    <contour>
      <point x="197" y="88" type="curve"/>
      <point x="197" y="0" type="line"/>
      <point x="264" y="0"/>
      <point x="269" y="0"/>
      <point x="322" y="0" type="curve" smooth="yes"/>
      <point x="462" y="0"/>
      <point x="595" y="40"/>
      <point x="595" y="199" type="curve" smooth="yes"/>
      <point x="595" y="342"/>
      <point x="452" y="386"/>
      <point x="322" y="386" type="curve" smooth="yes"/>
      <point x="282" y="386"/>
      <point x="271" y="386"/>
      <point x="197" y="386" type="curve"/>
      <point x="197" y="325" type="line"/>
      <point x="272" y="325"/>
      <point x="280" y="325"/>
      <point x="322" y="325" type="curve" smooth="yes"/>
      <point x="414" y="325"/>
      <point x="497" y="306"/>
      <point x="497" y="206" type="curve" smooth="yes"/>
      <point x="497" y="99"/>
      <point x="414" y="88"/>
      <point x="322" y="88" type="curve" smooth="yes"/>
      <point x="269" y="88"/>
      <point x="265" y="88"/>
    </contour>
  </outline>
</glyph>
<glyph name="C" format="2">
  <advance width="688"/>
  <unicode hex="0043"/>
  <anchor x="356" y="0" name="bottom"/>
  <anchor x="354" y="726" name="top"/>
  <outline>
    <contour>
      <point x="371" y="-16" type="curve" smooth="yes"/>
      <point x="466" y="-16"/>
      <point x="540" y="12"/>
      <point x="611" y="72" type="curve"/>
      <point x="556" y="143" type="line"/>
      <point x="497" y="94"/>
      <point x="442" y="74"/>
      <point x="371" y="74" type="curve" smooth="yes"/>
      <point x="241" y="74"/>
      <point x="167" y="176"/>
      <point x="167" y="352" type="curve" smooth="yes"/>
      <point x="167" y="531"/>
      <point x="238" y="636"/>
      <point x="355" y="636" type="curve" smooth="yes"/>
      <point x="434" y="636"/>
      <point x="486" y="596"/>
      <point x="522" y="525" type="curve"/>
      <point x="602" y="565" type="line"/>
      <point x="552" y="672"/>
      <point x="473" y="726"/>
      <point x="354" y="726" type="curve" smooth="yes"/>
      <point x="172" y="726"/>
      <point x="68" y="587"/>
      <point x="68" y="352" type="curve" smooth="yes"/>
      <point x="68" y="119"/>
      <point x="178" y="-16"/>
    </contour>
  </outline>
</glyph>
<glyph name="D" format="2">
  <advance width="692"/>
  <unicode hex="0044"/>
  <anchor x="317" y="0" name="bottom"/>
  <anchor x="317" y="710" name="top"/>
  <outline>
    <contour>
      <point x="100" y="710" type="line"/>
      <point x="100" y="0" type="line"/>
      <point x="198" y="0" type="line"/>
      <point x="198" y="710" type="line"/>
    </contour>
    <contour>
      <point x="197" y="88" type="curve"/>
      <point x="197" y="0" type="line"/>
      <point x="221" y="0"/>
      <point x="273" y="0"/>
      <point x="297" y="0" type="curve" smooth="yes"/>
      <point x="497" y="0"/>
      <point x="614" y="140"/>
      <point x="614" y="377" type="curve" smooth="yes"/>
      <point x="614" y="624"/>
      <point x="465" y="710"/>
      <point x="303" y="710" type="curve" smooth="yes"/>
      <point x="268" y="710"/>
      <point x="236" y="710"/>
      <point x="197" y="710" type="curve"/>
      <point x="197" y="622" type="line"/>
      <point x="238" y="622"/>
      <point x="271" y="622"/>
      <point x="303" y="622" type="curve" smooth="yes"/>
      <point x="432" y="622"/>
      <point x="516" y="535"/>
      <point x="516" y="377" type="curve" smooth="yes"/>
      <point x="516" y="241"/>
      <point x="470" y="88"/>
      <point x="297" y="88" type="curve" smooth="yes"/>
      <point x="277" y="88"/>
      <point x="223" y="88"/>
    </contour>
  </outline>
</glyph>
<glyph name="E" format="2">
  <advance width="640"/>
  <unicode hex="0045"/>
  <anchor x="330" y="0" name="bottom"/>
  <anchor x="555" y="0" name="ogonek"/>
  <anchor x="330" y="710" name="top"/>
  <outline>
    <contour>
      <point x="102" y="710" type="line"/>
      <point x="100" y="0" type="line"/>
      <point x="198" y="0" type="line"/>
      <point x="200" y="710" type="line"/>
    </contour>
    <contour>
      <point x="523" y="414" type="line"/>
      <point x="126" y="414" type="line"/>
      <point x="126" y="326" type="line"/>
      <point x="523" y="326" type="line"/>
    </contour>
    <contour>
      <point x="547" y="710" type="line"/>
      <point x="128" y="710" type="line"/>
      <point x="128" y="622" type="line"/>
      <point x="547" y="622" type="line"/>
    </contour>
    <contour>
      <point x="555" y="88" type="line"/>
      <point x="126" y="88" type="line"/>
      <point x="126" y="0" type="line"/>
      <point x="555" y="0" type="line"/>
    </contour>
  </outline>
</glyph>
<glyph name="F" format="2">
  <advance width="637"/>
  <unicode hex="0046"/>
  <anchor x="330" y="0" name="bottom"/>
  <anchor x="330" y="710" name="top"/>
  <outline>
    <contour>
      <point x="100" y="710" type="line"/>
      <point x="100" y="0" type="line"/>
      <point x="198" y="0" type="line"/>
      <point x="198" y="710" type="line"/>
    </contour>
    <contour>
      <point x="508" y="403" type="line"/>
      <point x="126" y="403" type="line"/>
      <point x="126" y="315" type="line"/>
      <point x="508" y="315" type="line"/>
    </contour>
    <contour>
      <point x="552" y="710" type="line"/>
      <point x="126" y="710" type="line"/>
      <point x="126" y="622" type="line"/>
      <point x="552" y="622" type="line"/>
    </contour>
  </outline>
</glyph>
<glyph name="G" format="2">
  <advance width="705"/>
  <unicode hex="0047"/>
  <anchor x="374" y="0" name="bottom"/>
  <anchor x="362" y="710" name="top"/>
  <outline>
    <contour>
      <point x="351" y="340" type="line"/>
      <point x="351" y="252" type="line"/>
      <point x="509" y="252" type="line"/>
      <point x="509" y="64" type="line"/>
      <point x="607" y="64" type="line"/>
      <point x="607" y="340" type="line"/>
    </contour>
    <contour>
      <point x="584" y="667" type="line"/>
      <point x="536" y="702"/>
      <point x="465" y="726"/>
      <point x="378" y="726" type="curve" smooth="yes"/>
      <point x="177" y="726"/>
      <point x="72" y="587"/>
      <point x="72" y="352" type="curve" smooth="yes"/>
      <point x="72" y="121"/>
      <point x="185" y="-16"/>
      <point x="378" y="-16" type="curve" smooth="yes"/>
      <point x="472" y="-16"/>
      <point x="537" y="7"/>
      <point x="607" y="64" type="curve"/>
      <point x="571" y="153" type="line"/>
      <point x="513" y="99"/>
      <point x="456" y="74"/>
      <point x="378" y="74" type="curve" smooth="yes"/>
      <point x="249" y="74"/>
      <point x="170" y="179"/>
      <point x="170" y="352" type="curve" smooth="yes"/>
      <point x="170" y="528"/>
      <point x="233" y="635"/>
      <point x="380" y="638" type="curve" smooth="yes"/>
      <point x="426" y="639"/>
      <point x="491" y="630"/>
      <point x="539" y="596" type="curve"/>
    </contour>
  </outline>
</glyph>
<glyph name="H" format="2">
  <advance width="732"/>
  <unicode hex="0048"/>
  <anchor x="366" y="0" name="bottom"/>
  <anchor x="366" y="710" name="top"/>
  <outline>
    <contour>
      <point x="100" y="710" type="line"/>
      <point x="100" y="0" type="line"/>
      <point x="198" y="0" type="line"/>
      <point x="198" y="710" type="line"/>
    </contour>
    <contour>
      <point x="534" y="710" type="line"/>
      <point x="534" y="0" type="line"/>
      <point x="632" y="0" type="line"/>
      <point x="632" y="710" type="line"/>
    </contour>
    <contour>
      <point x="602" y="415" type="line"/>
      <point x="137" y="415" type="line"/>
      <point x="137" y="324" type="line"/>
      <point x="602" y="324" type="line"/>
    </contour>
  </outline>
</glyph>
<glyph name="I" format="2">
  <advance width="598"/>
  <unicode hex="0049"/>
  <anchor x="299" y="0" name="bottom"/>
  <anchor x="504" y="0" name="ogonek"/>
  <anchor x="299" y="710" name="top"/>
  <outline>
    <contour>
      <point x="250" y="0" type="line"/>
      <point x="348" y="0" type="line"/>
      <point x="348" y="710" type="line"/>
      <point x="250" y="710" type="line"/>
    </contour>
    <contour>
      <point x="499" y="622" type="line"/>
      <point x="499" y="710" type="line"/>
      <point x="99" y="710" type="line"/>
      <point x="99" y="622" type="line"/>
    </contour>
    <contour>
      <point x="504" y="0" type="line"/>
      <point x="504" y="88" type="line"/>
      <point x="94" y="88" type="line"/>
      <point x="94" y="0" type="line"/>
    </contour>
  </outline>
</glyph>
<glyph name="J" format="2">
  <advance width="616"/>
  <unicode hex="004A"/>
  <anchor x="309" y="-16" name="bottom"/>
  <anchor x="349" y="710" name="top"/>
  <outline>
    <contour>
      <point x="516" y="202" type="curve" smooth="yes"/>
      <point x="516" y="710" type="line"/>
      <point x="418" y="710" type="line"/>
      <point x="418" y="208" type="line" smooth="yes"/>
      <point x="418" y="104"/>
      <point x="361" y="73"/>
      <point x="280" y="73" type="curve" smooth="yes"/>
      <point x="208" y="73"/>
      <point x="153" y="105"/>
      <point x="115" y="124" type="curve"/>
      <point x="68" y="49" type="line"/>
      <point x="150" y="7"/>
      <point x="219" y="-16"/>
      <point x="307" y="-16" type="curve" smooth="yes"/>
      <point x="400" y="-16"/>
      <point x="514" y="20"/>
    </contour>
    <contour>
      <point x="168" y="710" type="line"/>
      <point x="168" y="622" type="line"/>
      <point x="516" y="622" type="line"/>
      <point x="516" y="710" type="line"/>
    </contour>
  </outline>
</glyph>
<glyph name="K" format="2">
  <advance width="650"/>
  <unicode hex="004B"/>
  <anchor x="327" y="0" name="bottom"/>
  <anchor x="327" y="710" name="top"/>
  <outline>
    <contour>
      <point x="483" y="0" type="line"/>
      <point x="600" y="0" type="line"/>
      <point x="600" y="10" type="line"/>
      <point x="299" y="388" type="line"/>
      <point x="566" y="700" type="line"/>
      <point x="566" y="710" type="line"/>
      <point x="455" y="710" type="line"/>
      <point x="188" y="399" type="line"/>
      <point x="188" y="710" type="line"/>
      <point x="90" y="710" type="line"/>
      <point x="90" y="0" type="line"/>
      <point x="188" y="0" type="line"/>
      <point x="188" y="248" type="line"/>
      <point x="239" y="312" type="line"/>
    </contour>
  </outline>
</glyph>
<glyph name="L" format="2">
  <advance width="614"/>
  <unicode hex="004C"/>
  <anchor x="319" y="0" name="bottom"/>
  <anchor x="198" y="355" name="center"/>
  <anchor x="149" y="710" name="top"/>
  <anchor x="198" y="710" name="topright"/>
  <outline>
    <contour>
      <point x="100" y="710" type="line"/>
      <point x="100" y="0" type="line"/>
      <point x="198" y="0" type="line"/>
      <point x="198" y="710" type="line"/>
    </contour>
    <contour>
      <point x="538" y="88" type="line"/>
      <point x="116" y="88" type="line"/>
      <point x="116" y="0" type="line"/>
      <point x="538" y="0" type="line"/>
    </contour>
  </outline>
</glyph>
<glyph name="M" format="2">
  <advance width="832"/>
  <unicode hex="004D"/>
  <anchor x="416" y="0" name="bottom"/>
  <anchor x="416" y="710" name="top"/>
  <outline>
    <contour>
      <point x="374" y="260" type="curve"/>
      <point x="460" y="260" type="line"/>
      <point x="534" y="419"/>
      <point x="645" y="585"/>
      <point x="729" y="710" type="curve"/>
      <point x="624" y="710" type="line"/>
      <point x="544" y="592"/>
      <point x="438" y="419"/>
    </contour>
    <contour>
      <point x="100" y="710" type="line"/>
      <point x="100" y="0" type="line"/>
      <point x="198" y="0" type="line"/>
      <point x="198" y="710" type="line"/>
    </contour>
    <contour>
      <point x="634" y="710" type="line"/>
      <point x="634" y="0" type="line"/>
      <point x="732" y="0" type="line"/>
      <point x="732" y="710" type="line"/>
    </contour>
    <contour>
      <point x="458" y="260" type="line"/>
      <point x="394" y="419"/>
      <point x="288" y="592"/>
      <point x="208" y="710" type="curve"/>
      <point x="103" y="710" type="line"/>
      <point x="187" y="585"/>
      <point x="298" y="419"/>
      <point x="372" y="260" type="curve"/>
    </contour>
  </outline>
</glyph>
<glyph name="N" format="2">
  <advance width="768"/>
  <unicode hex="004E"/>
  <anchor x="384" y="0" name="bottom"/>
  <anchor x="384" y="710" name="top"/>
  <outline>
    <contour>
      <point x="664" y="0" type="line"/>
      <point x="218" y="710" type="line"/>
      <point x="104" y="710" type="line"/>
      <point x="554" y="0" type="line"/>
    </contour>
    <contour>
      <point x="100" y="710" type="line"/>
      <point x="100" y="0" type="line"/>
      <point x="198" y="0" type="line"/>
      <point x="198" y="710" type="line"/>
    </contour>
    <contour>
      <point x="570" y="710" type="line"/>
      <point x="570" y="0" type="line"/>
      <point x="668" y="0" type="line"/>
      <point x="668" y="710" type="line"/>
    </contour>
  </outline>
</glyph>
<glyph name="O" format="2">
  <advance width="680"/>
  <unicode hex="004F"/>
  <anchor x="340" y="0" name="bottom"/>
  <anchor x="430" y="0" name="ogonek"/>
  <anchor x="340" y="710" name="top"/>
  <anchor x="493" y="679" name="topright"/>
  <outline>
    <contour>
      <point x="340" y="-16" type="curve" smooth="yes"/>
      <point x="538" y="-16"/>
      <point x="610" y="148"/>
      <point x="610" y="355" type="curve" smooth="yes"/>
      <point x="610" y="562"/>
      <point x="538" y="726"/>
      <point x="340" y="726" type="curve" smooth="yes"/>
      <point x="142" y="726"/>
      <point x="70" y="562"/>
      <point x="70" y="355" type="curve" smooth="yes"/>
      <point x="70" y="148"/>
      <point x="142" y="-16"/>
    </contour>
    <contour>
      <point x="340" y="73" type="curve" smooth="yes"/>
      <point x="202" y="73"/>
      <point x="169" y="205"/>
      <point x="169" y="355" type="curve" smooth="yes"/>
      <point x="169" y="505"/>
      <point x="202" y="637"/>
      <point x="340" y="637" type="curve" smooth="yes"/>
      <point x="478" y="637"/>
      <point x="511" y="505"/>
      <point x="511" y="355" type="curve" smooth="yes"/>
      <point x="511" y="205"/>
      <point x="478" y="73"/>
    </contour>
  </outline>
</glyph>
<glyph name="P" format="2">
  <advance width="681"/>
  <unicode hex="0050"/>
  <anchor x="333" y="0" name="bottom"/>
  <anchor x="333" y="710" name="top"/>
  <outline>
    <contour>
      <point x="100" y="710" type="line"/>
      <point x="100" y="0" type="line"/>
      <point x="198" y="0" type="line"/>
      <point x="198" y="710" type="line"/>
    </contour>
    <contour>
      <point x="197" y="350" type="curve"/>
      <point x="197" y="262" type="line"/>
      <point x="264" y="262"/>
      <point x="320" y="262"/>
      <point x="373" y="262" type="curve" smooth="yes"/>
      <point x="531" y="262"/>
      <point x="608" y="350"/>
      <point x="608" y="486" type="curve" smooth="yes"/>
      <point x="608" y="622"/>
      <point x="535" y="710"/>
      <point x="373" y="710" type="curve" smooth="yes"/>
      <point x="333" y="710"/>
      <point x="271" y="710"/>
      <point x="197" y="710" type="curve"/>
      <point x="197" y="622" type="line"/>
      <point x="272" y="622"/>
      <point x="331" y="622"/>
      <point x="373" y="622" type="curve" smooth="yes"/>
      <point x="467" y="622"/>
      <point x="512" y="568"/>
      <point x="512" y="486" type="curve" smooth="yes"/>
      <point x="512" y="408"/>
      <point x="467" y="350"/>
      <point x="373" y="350" type="curve" smooth="yes"/>
      <point x="320" y="350"/>
      <point x="265" y="350"/>
    </contour>
  </outline>
</glyph>
<glyph name="Q" format="2">
  <advance width="712"/>
  <unicode hex="0051"/>
  <anchor x="345" y="0" name="bottom"/>
  <anchor x="345" y="710" name="top"/>
  <outline>
    <contour>
      <point x="345" y="-16" type="curve" smooth="yes"/>
      <point x="526" y="-16"/>
      <point x="614" y="148"/>
      <point x="614" y="355" type="curve" smooth="yes"/>
      <point x="614" y="562"/>
      <point x="544" y="726"/>
      <point x="345" y="726" type="curve" smooth="yes"/>
      <point x="147" y="726"/>
      <point x="76" y="562"/>
      <point x="76" y="355" type="curve" smooth="yes"/>
      <point x="76" y="148"/>
      <point x="147" y="-16"/>
    </contour>
    <contour>
      <point x="345" y="73" type="curve" smooth="yes"/>
      <point x="207" y="73"/>
      <point x="174" y="205"/>
      <point x="174" y="355" type="curve" smooth="yes"/>
      <point x="174" y="504"/>
      <point x="207" y="637"/>
      <point x="345" y="637" type="curve" smooth="yes"/>
      <point x="483" y="637"/>
      <point x="516" y="504"/>
      <point x="516" y="355" type="curve" smooth="yes"/>
      <point x="516" y="205"/>
      <point x="483" y="73"/>
    </contour>
    <contour>
      <point x="565" y="-78" type="line"/>
      <point x="634" y="-19" type="line"/>
      <point x="505" y="159" type="line" smooth="yes"/>
      <point x="458" y="224"/>
      <point x="403" y="275"/>
      <point x="327" y="275" type="curve" smooth="yes"/>
      <point x="247" y="275"/>
      <point x="186" y="230"/>
      <point x="146" y="187" type="curve"/>
      <point x="199" y="127" type="line"/>
      <point x="223" y="158"/>
      <point x="269" y="198"/>
      <point x="321" y="198" type="curve" smooth="yes"/>
      <point x="376" y="198"/>
      <point x="418" y="149"/>
      <point x="454" y="94" type="curve" smooth="yes"/>
    </contour>
  </outline>
</glyph>
<glyph name="R" format="2">
  <advance width="685"/>
  <unicode hex="0052"/>
  <anchor x="335" y="0" name="bottom"/>
  <anchor x="325" y="710" name="top"/>
  <outline>
    <contour>
      <point x="100" y="710" type="line"/>
      <point x="100" y="0" type="line"/>
      <point x="198" y="0" type="line"/>
      <point x="198" y="710" type="line"/>
    </contour>
    <contour>
      <point x="197" y="370" type="curve"/>
      <point x="197" y="282" type="line"/>
      <point x="244" y="282"/>
      <point x="300" y="282"/>
      <point x="353" y="282" type="curve" smooth="yes"/>
      <point x="511" y="282"/>
      <point x="588" y="365"/>
      <point x="588" y="496" type="curve" smooth="yes"/>
      <point x="588" y="632"/>
      <point x="515" y="710"/>
      <point x="353" y="710" type="curve" smooth="yes"/>
      <point x="313" y="710"/>
      <point x="251" y="710"/>
      <point x="197" y="710" type="curve"/>
      <point x="197" y="622" type="line"/>
      <point x="252" y="622"/>
      <point x="311" y="622"/>
      <point x="353" y="622" type="curve" smooth="yes"/>
      <point x="447" y="622"/>
      <point x="492" y="578"/>
      <point x="492" y="496" type="curve" smooth="yes"/>
      <point x="492" y="423"/>
      <point x="447" y="370"/>
      <point x="353" y="370" type="curve" smooth="yes"/>
      <point x="300" y="370"/>
      <point x="245" y="370"/>
    </contour>
    <contour>
      <point x="412" y="308" type="line"/>
      <point x="304" y="308" type="line"/>
      <point x="508" y="0" type="line"/>
      <point x="615" y="0" type="line"/>
      <point x="615" y="10" type="line"/>
    </contour>
  </outline>
</glyph>
<glyph name="S" format="2">
  <advance width="672"/>
  <unicode hex="0053"/>
  <anchor x="347" y="0" name="bottom"/>
  <anchor x="342" y="710" name="top"/>
  <outline>
    <contour>
      <point x="72" y="92" type="line"/>
      <point x="138" y="30"/>
      <point x="239" y="-16"/>
      <point x="346" y="-16" type="curve" smooth="yes"/>
      <point x="510" y="-16"/>
      <point x="600" y="62"/>
      <point x="600" y="181" type="curve" smooth="yes"/>
      <point x="600" y="401"/>
      <point x="197" y="382"/>
      <point x="197" y="531" type="curve" smooth="yes"/>
      <point x="197" y="595"/>
      <point x="277" y="635"/>
      <point x="343" y="635" type="curve" smooth="yes"/>
      <point x="409" y="635"/>
      <point x="458" y="616"/>
      <point x="513" y="563" type="curve"/>
      <point x="579" y="624" type="line"/>
      <point x="520" y="689"/>
      <point x="433" y="726"/>
      <point x="343" y="726" type="curve" smooth="yes"/>
      <point x="235" y="726"/>
      <point x="99" y="658"/>
      <point x="99" y="529" type="curve" smooth="yes"/>
      <point x="99" y="302"/>
      <point x="501" y="325"/>
      <point x="501" y="181" type="curve" smooth="yes"/>
      <point x="501" y="115"/>
      <point x="440" y="75"/>
      <point x="346" y="75" type="curve" smooth="yes"/>
      <point x="270" y="75"/>
      <point x="192" y="107"/>
      <point x="135" y="160" type="curve"/>
    </contour>
  </outline>
</glyph>
<glyph name="T" format="2">
  <advance width="660"/>
  <unicode hex="0054"/>
  <anchor x="330" y="0" name="bottom"/>
  <anchor x="330" y="710" name="top"/>
  <outline>
    <contour>
      <point x="281" y="0" type="line"/>
      <point x="379" y="0" type="line"/>
      <point x="379" y="710" type="line"/>
      <point x="281" y="710" type="line"/>
    </contour>
    <contour>
      <point x="590" y="622" type="line"/>
      <point x="590" y="710" type="line"/>
      <point x="70" y="710" type="line"/>
      <point x="70" y="622" type="line"/>
    </contour>
  </outline>
</glyph>
<glyph name="U" format="2">
  <advance width="710"/>
  <unicode hex="0055"/>
  <anchor x="355" y="0" name="bottom"/>
  <anchor x="445" y="0" name="ogonek"/>
  <anchor x="355" y="710" name="top"/>
  <anchor x="552" y="710" name="topright"/>
  <outline>
    <contour>
      <point x="510" y="710" type="line"/>
      <point x="510" y="277" type="line"/>
      <point x="510" y="139"/>
      <point x="437" y="83"/>
      <point x="355" y="83" type="curve"/>
      <point x="273" y="83"/>
      <point x="200" y="139"/>
      <point x="200" y="277" type="curve"/>
      <point x="200" y="710" type="line"/>
      <point x="100" y="710" type="line"/>
      <point x="100" y="277" type="line" smooth="yes"/>
      <point x="100" y="55"/>
      <point x="238" y="-15"/>
      <point x="355" y="-15" type="curve"/>
      <point x="472" y="-15"/>
      <point x="610" y="55"/>
      <point x="610" y="277" type="curve" smooth="yes"/>
      <point x="610" y="710" type="line"/>
    </contour>
  </outline>
</glyph>
<glyph name="V" format="2">
  <advance width="672"/>
  <unicode hex="0056"/>
  <anchor x="336" y="0" name="bottom"/>
  <anchor x="336" y="710" name="top"/>
  <outline>
    <contour>
      <point x="64" y="710" type="line"/>
      <point x="132" y="406"/>
      <point x="202" y="170"/>
      <point x="284" y="0" type="curve"/>
      <point x="378" y="0" type="line"/>
      <point x="296" y="170"/>
      <point x="233" y="406"/>
      <point x="165" y="710" type="curve"/>
    </contour>
    <contour>
      <point x="608" y="710" type="curve"/>
      <point x="507" y="710" type="line"/>
      <point x="439" y="406"/>
      <point x="376" y="170"/>
      <point x="294" y="0" type="curve"/>
      <point x="388" y="0" type="line"/>
      <point x="470" y="170"/>
      <point x="540" y="406"/>
    </contour>
  </outline>
</glyph>
<glyph name="W" format="2">
  <advance width="846"/>
  <unicode hex="0057"/>
  <anchor x="423" y="0" name="bottom"/>
  <anchor x="423" y="710" name="top"/>
  <outline>
    <contour>
      <point x="95" y="710" type="line"/>
      <point x="91" y="396"/>
      <point x="128" y="159"/>
      <point x="172" y="0" type="curve"/>
      <point x="265" y="0" type="line"/>
      <point x="223" y="159"/>
      <point x="186" y="396"/>
      <point x="193" y="710" type="curve"/>
    </contour>
    <contour>
      <point x="464" y="473" type="line"/>
      <point x="380" y="473" type="line"/>
      <point x="209" y="0" type="line"/>
      <point x="300" y="0" type="line"/>
    </contour>
    <contour>
      <point x="382" y="473" type="line"/>
      <point x="546" y="0" type="line"/>
      <point x="637" y="0" type="line"/>
      <point x="466" y="473" type="line"/>
    </contour>
    <contour>
      <point x="751" y="710" type="curve"/>
      <point x="653" y="710" type="line"/>
      <point x="657" y="396"/>
      <point x="623" y="159"/>
      <point x="581" y="0" type="curve"/>
      <point x="674" y="0" type="line"/>
      <point x="718" y="159"/>
      <point x="752" y="396"/>
    </contour>
  </outline>
</glyph>
<glyph name="X" format="2">
  <advance width="670"/>
  <unicode hex="0058"/>
  <anchor x="335" y="0" name="bottom"/>
  <anchor x="335" y="710" name="top"/>
  <outline>
    <contour>
      <point x="590" y="710" type="line"/>
      <point x="484" y="710" type="line"/>
      <point x="283" y="343" type="line"/>
      <point x="389" y="343" type="line"/>
      <point x="590" y="700" type="line"/>
    </contour>
    <contour>
      <point x="594" y="0" type="line"/>
      <point x="594" y="10" type="line"/>
      <point x="388" y="367" type="line"/>
      <point x="282" y="367" type="line"/>
      <point x="488" y="0" type="line"/>
    </contour>
    <contour>
      <point x="76" y="710" type="line"/>
      <point x="76" y="700" type="line"/>
      <point x="282" y="343" type="line"/>
      <point x="388" y="343" type="line"/>
      <point x="182" y="710" type="line"/>
    </contour>
    <contour>
      <point x="77" y="0" type="line"/>
      <point x="183" y="0" type="line"/>
      <point x="389" y="367" type="line"/>
      <point x="283" y="367" type="line"/>
      <point x="77" y="10" type="line"/>
    </contour>
  </outline>
</glyph>
<glyph name="Y" format="2">
  <advance width="658"/>
  <unicode hex="0059"/>
  <anchor x="329" y="0" name="bottom"/>
  <anchor x="329" y="710" name="top"/>
  <anchor x="58" y="710" name="topleft"/>
  <outline>
    <contour>
      <point x="58" y="710" type="line"/>
      <point x="58" y="700" type="line"/>
      <point x="280" y="283" type="line"/>
      <point x="378" y="283" type="line"/>
      <point x="167" y="710" type="line"/>
    </contour>
    <contour>
      <point x="600" y="710" type="line"/>
      <point x="491" y="710" type="line"/>
      <point x="280" y="283" type="line"/>
      <point x="378" y="283" type="line"/>
      <point x="600" y="700" type="line"/>
    </contour>
    <contour>
      <point x="280" y="290" type="line"/>
      <point x="280" y="0" type="line"/>
      <point x="378" y="0" type="line"/>
      <point x="378" y="290" type="line"/>
    </contour>
  </outline>
</glyph>
<glyph name="Z" format="2">
  <advance width="664"/>
  <unicode hex="005A"/>
  <anchor x="326" y="0" name="bottom"/>
  <anchor x="326" y="710" name="top"/>
  <outline>
    <contour>
      <point x="91" y="710" type="line"/>
      <point x="91" y="622" type="line"/>
      <point x="562" y="622" type="line"/>
      <point x="562" y="710" type="line"/>
    </contour>
    <contour>
      <point x="85" y="88" type="line"/>
      <point x="85" y="0" type="line"/>
      <point x="579" y="0" type="line"/>
      <point x="579" y="88" type="line"/>
    </contour>
    <contour>
      <point x="85" y="88" type="line"/>
      <point x="202" y="88" type="line"/>
      <point x="562" y="622" type="line"/>
      <point x="445" y="622" type="line"/>
    </contour>
  </outline>
</glyph>
<glyph name="bracketleft" format="2">
  <advance width="479"/>
  <unicode hex="005B"/>
  <outline>
    <contour>
      <point x="100" y="750" type="line"/>
      <point x="100" y="-120" type="line"/>
      <point x="195" y="-120" type="line"/>
      <point x="195" y="750" type="line"/>
    </contour>
    <contour>
      <point x="379" y="750" type="line"/>
      <point x="124" y="750" type="line"/>
      <point x="124" y="665" type="line"/>
      <point x="379" y="665" type="line"/>
    </contour>
    <contour>
      <point x="379" y="-35" type="line"/>
      <point x="124" y="-35" type="line"/>
      <point x="124" y="-120" type="line"/>
      <point x="379" y="-120" type="line"/>
    </contour>
  </outline>
</glyph>
<glyph name="backslash" format="2">
  <advance width="566"/>
  <unicode hex="005C"/>
  <outline>
    <contour>
      <point x="201" y="750" type="line"/>
      <point x="100" y="750" type="line"/>
      <point x="100" y="740" type="line"/>
      <point x="365" y="-120" type="line"/>
      <point x="466" y="-120" type="line"/>
      <point x="466" y="-110" type="line"/>
    </contour>
  </outline>
</glyph>
<glyph name="bracketright" format="2">
  <advance width="479"/>
  <unicode hex="005D"/>
  <outline>
    <contour>
      <point x="379" y="750" type="line"/>
      <point x="284" y="750" type="line"/>
      <point x="284" y="-120" type="line"/>
      <point x="379" y="-120" type="line"/>
    </contour>
    <contour>
      <point x="100" y="750" type="line"/>
      <point x="100" y="665" type="line"/>
      <point x="355" y="665" type="line"/>
      <point x="355" y="750" type="line"/>
    </contour>
    <contour>
      <point x="100" y="-35" type="line"/>
      <point x="100" y="-120" type="line"/>
      <point x="355" y="-120" type="line"/>
      <point x="355" y="-35" type="line"/>
    </contour>
  </outline>
</glyph>
<glyph name="underscore" format="2">
  <advance width="616"/>
  <unicode hex="005F"/>
  <outline>
    <contour>
      <point x="551" y="0" type="line"/>
      <point x="65" y="0" type="line"/>
      <point x="65" y="-86" type="line"/>
      <point x="551" y="-86" type="line"/>
    </contour>
  </outline>
</glyph>
<glyph name="grave" format="2">
  <advance width="431"/>
  <unicode hex="0060"/>
  <outline>
    <contour>
      <point x="242" y="710" type="line"/>
      <point x="100" y="710" type="line"/>
      <point x="100" y="701" type="line"/>
      <point x="265" y="462" type="line"/>
      <point x="331" y="462" type="line"/>
    </contour>
  </outline>
</glyph>
<glyph name="a" format="2">
  <advance width="629"/>
  <unicode hex="0061"/>
  <anchor x="308" y="0" name="bottom"/>
  <anchor x="561" y="-8" name="ogonek"/>
  <anchor x="308" y="550" name="top"/>
  <outline>
    <contour>
      <point x="506" y="131" type="curve" smooth="yes"/>
      <point x="506" y="413" type="line" smooth="yes"/>
      <point x="506" y="554"/>
      <point x="381" y="566"/>
      <point x="308" y="566" type="curve" smooth="yes"/>
      <point x="237" y="566"/>
      <point x="154" y="546"/>
      <point x="85" y="512" type="curve"/>
      <point x="132" y="437" type="line"/>
      <point x="191" y="462"/>
      <point x="250" y="477"/>
      <point x="291" y="477" type="curve" smooth="yes"/>
      <point x="396" y="477"/>
      <point x="408" y="437"/>
      <point x="408" y="361" type="curve" smooth="yes"/>
      <point x="408" y="347" type="line"/>
      <point x="289" y="352"/>
      <point x="68" y="340"/>
      <point x="68" y="156" type="curve" smooth="yes"/>
      <point x="68" y="38"/>
      <point x="168" y="-16"/>
      <point x="253" y="-16" type="curve" smooth="yes"/>
      <point x="342" y="-16"/>
      <point x="394" y="13"/>
      <point x="427" y="49" type="curve"/>
      <point x="447" y="9"/>
      <point x="484" y="-11"/>
      <point x="561" y="-8" type="curve"/>
      <point x="561" y="73" type="line"/>
      <point x="518" y="75"/>
      <point x="506" y="95"/>
    </contour>
    <contour>
      <point x="156" y="161" type="curve" smooth="yes"/>
      <point x="156" y="269"/>
      <point x="301" y="276"/>
      <point x="408" y="268" type="curve"/>
      <point x="408" y="156" type="line"/>
      <point x="385" y="114"/>
      <point x="344" y="74"/>
      <point x="262" y="74" type="curve" smooth="yes"/>
      <point x="207" y="74"/>
      <point x="156" y="106"/>
    </contour>
  </outline>
</glyph>
<glyph name="b" format="2">
  <advance width="687"/>
  <unicode hex="0062"/>
  <anchor x="350" y="0" name="bottom"/>
  <anchor x="350" y="750" name="top"/>
  <outline>
    <contour>
      <point x="247" y="-8" type="line"/>
      <point x="247" y="750" type="line"/>
      <point x="152" y="750" type="line"/>
      <point x="152" y="-8" type="line"/>
    </contour>
    <contour>
      <point x="387" y="-16" type="curve" smooth="yes"/>
      <point x="529" y="-16"/>
      <point x="602" y="121"/>
      <point x="602" y="271" type="curve" smooth="yes"/>
      <point x="602" y="419"/>
      <point x="530" y="558"/>
      <point x="387" y="558" type="curve" smooth="yes"/>
      <point x="251" y="558"/>
      <point x="181" y="399"/>
      <point x="181" y="271" type="curve" smooth="yes"/>
      <point x="181" y="131"/>
      <point x="254" y="-16"/>
    </contour>
    <contour>
      <point x="376" y="71" type="curve" smooth="yes"/>
      <point x="282" y="71"/>
      <point x="226" y="174"/>
      <point x="226" y="271" type="curve" smooth="yes"/>
      <point x="226" y="356"/>
      <point x="281" y="470"/>
      <point x="376" y="470" type="curve" smooth="yes"/>
      <point x="475" y="470"/>
      <point x="508" y="361"/>
      <point x="508" y="271" type="curve" smooth="yes"/>
      <point x="508" y="179"/>
      <point x="475" y="71"/>
    </contour>
    <contour>
      <point x="60" y="750" type="line"/>
      <point x="60" y="692" type="line"/>
      <point x="247" y="660" type="line"/>
      <point x="247" y="750" type="line"/>
    </contour>
  </outline>
</glyph>
<glyph name="c" format="2">
  <advance width="596"/>
  <unicode hex="0063"/>
  <anchor x="300" y="0" name="bottom"/>
  <anchor x="300" y="550" name="top"/>
  <outline>
    <contour>
      <point x="327" y="-16" type="curve" smooth="yes"/>
      <point x="407" y="-15"/>
      <point x="480" y="14"/>
      <point x="534" y="62" type="curve"/>
      <point x="484" y="133" type="line"/>
      <point x="438" y="95"/>
      <point x="389" y="71"/>
      <point x="327" y="71" type="curve" smooth="yes"/>
      <point x="215" y="71"/>
      <point x="151" y="146"/>
      <point x="151" y="273" type="curve" smooth="yes"/>
      <point x="151" y="402"/>
      <point x="213" y="478"/>
      <point x="319" y="478" type="curve" smooth="yes"/>
      <point x="372" y="478"/>
      <point x="417" y="451"/>
      <point x="441" y="405" type="curve"/>
      <point x="517" y="440" type="line"/>
      <point x="481" y="519"/>
      <point x="407" y="566"/>
      <point x="319" y="566" type="curve" smooth="yes"/>
      <point x="154" y="566"/>
      <point x="56" y="457"/>
      <point x="56" y="273" type="curve" smooth="yes"/>
      <point x="56" y="88"/>
      <point x="157" y="-18"/>
    </contour>
  </outline>
</glyph>
<glyph name="e" format="2">
  <advance width="641"/>
  <unicode hex="0065"/>
  <anchor x="322" y="0" name="bottom"/>
  <anchor x="459" y="0" name="ogonek"/>
  <anchor x="322" y="550" name="top"/>
  <outline>
    <contour>
      <point x="340" y="-16" type="curve" smooth="yes"/>
      <point x="392" y="-16"/>
      <point x="451" y="-11"/>
      <point x="540" y="30" type="curve"/>
      <point x="507" y="106" type="line"/>
      <point x="440" y="76"/>
      <point x="380" y="70"/>
      <point x="350" y="70" type="curve" smooth="yes"/>
      <point x="259" y="70"/>
      <point x="182" y="109"/>
      <point x="168" y="218" type="curve"/>
      <point x="549" y="218" type="line"/>
      <point x="593" y="379"/>
      <point x="519" y="566"/>
      <point x="325" y="566" type="curve" smooth="yes"/>
      <point x="169" y="566"/>
      <point x="70" y="461"/>
      <point x="70" y="273" type="curve" smooth="yes"/>
      <point x="70" y="87"/>
      <point x="181" y="-16"/>
    </contour>
    <contour>
      <point x="164" y="303" type="line"/>
      <point x="164" y="396"/>
      <point x="222" y="478"/>
      <point x="322" y="478" type="curve" smooth="yes"/>
      <point x="426" y="478"/>
      <point x="482" y="396"/>
      <point x="474" y="303" type="curve"/>
    </contour>
  </outline>
</glyph>
<glyph name="f" format="2">
  <advance width="664"/>
  <unicode hex="0066"/>
  <anchor x="324" y="-200" name="bottom"/>
  <anchor x="324" y="750" name="top"/>
  <outline>
    <contour>
      <point x="78" y="489" type="line"/>
      <point x="78" y="401" type="line"/>
      <point x="551" y="401" type="line"/>
      <point x="551" y="489" type="line"/>
    </contour>
    <contour>
      <point x="358" y="561" type="line" smooth="yes"/>
      <point x="358" y="637"/>
      <point x="373" y="678"/>
      <point x="458" y="678" type="curve" smooth="yes"/>
      <point x="493" y="678"/>
      <point x="541" y="663"/>
      <point x="581" y="639" type="curve"/>
      <point x="624" y="713" type="line"/>
      <point x="569" y="746"/>
      <point x="503" y="766"/>
      <point x="441" y="766" type="curve" smooth="yes"/>
      <point x="388" y="766"/>
      <point x="265" y="762"/>
      <point x="265" y="604" type="curve" smooth="yes"/>
      <point x="265" y="587"/>
      <point x="265" y="588"/>
      <point x="265" y="571" type="curve"/>
      <point x="265" y="376"/>
      <point x="265" y="172"/>
      <point x="265" y="-23" type="curve" smooth="yes"/>
      <point x="265" y="-64"/>
      <point x="255" y="-110"/>
      <point x="182" y="-110" type="curve" smooth="yes"/>
      <point x="82" y="-110" type="line"/>
      <point x="82" y="-200" type="line"/>
      <point x="233" y="-200" type="line" smooth="yes"/>
      <point x="343" y="-200"/>
      <point x="358" y="-113"/>
      <point x="358" y="-23" type="curve" smooth="yes"/>
    </contour>
  </outline>
</glyph>
<glyph name="g" format="2">
  <advance width="660"/>
  <unicode hex="0067"/>
  <anchor x="326" y="-200" name="bottom"/>
  <anchor x="326" y="550" name="top"/>
  <outline>
    <contour>
      <point x="318" y="265" type="curve" smooth="yes"/>
      <point x="242" y="265"/>
      <point x="191" y="302"/>
      <point x="192" y="368" type="curve" smooth="yes"/>
      <point x="193" y="423"/>
      <point x="238" y="479"/>
      <point x="318" y="479" type="curve" smooth="yes"/>
      <point x="398" y="479"/>
      <point x="441" y="423"/>
      <point x="442" y="368" type="curve" smooth="yes"/>
      <point x="443" y="302"/>
      <point x="399" y="265"/>
    </contour>
    <contour>
      <point x="420" y="536" type="curve"/>
      <point x="420" y="483" type="line"/>
      <point x="544" y="483"/>
      <point x="580" y="534"/>
      <point x="580" y="641" type="curve"/>
      <point x="475" y="641" type="line"/>
      <point x="475" y="584"/>
      <point x="467" y="536"/>
    </contour>
    <contour>
      <point x="144" y="-45" type="curve"/>
      <point x="70" y="-85" type="line"/>
      <point x="121" y="-178"/>
      <point x="210" y="-216"/>
      <point x="326" y="-216" type="curve" smooth="yes"/>
      <point x="497" y="-216"/>
      <point x="580" y="-140"/>
      <point x="580" y="-33" type="curve" smooth="yes"/>
      <point x="580" y="55"/>
      <point x="511" y="114"/>
      <point x="345" y="114" type="curve" smooth="yes"/>
      <point x="337" y="114"/>
      <point x="323" y="114"/>
      <point x="315" y="114" type="curve" smooth="yes"/>
      <point x="261" y="114"/>
      <point x="199" y="116"/>
      <point x="199" y="144" type="curve" smooth="yes"/>
      <point x="199" y="168"/>
      <point x="245" y="179"/>
      <point x="305" y="182" type="curve" smooth="yes"/>
      <point x="431" y="188"/>
      <point x="537" y="235"/>
      <point x="538" y="368" type="curve" smooth="yes"/>
      <point x="539" y="483"/>
      <point x="444" y="566"/>
      <point x="318" y="566" type="curve" smooth="yes"/>
      <point x="190" y="566"/>
      <point x="96" y="482"/>
      <point x="96" y="368" type="curve" smooth="yes"/>
      <point x="96" y="297"/>
      <point x="135" y="243"/>
      <point x="191" y="214" type="curve"/>
      <point x="154" y="205"/>
      <point x="101" y="178"/>
      <point x="101" y="129" type="curve" smooth="yes"/>
      <point x="101" y="77"/>
      <point x="162" y="29"/>
      <point x="300" y="29" type="curve" smooth="yes"/>
      <point x="355" y="29" type="line" smooth="yes"/>
      <point x="458" y="29"/>
      <point x="486" y="2"/>
      <point x="486" y="-37" type="curve" smooth="yes"/>
      <point x="486" y="-90"/>
      <point x="442" y="-133"/>
      <point x="324" y="-133" type="curve" smooth="yes"/>
      <point x="252" y="-133"/>
      <point x="184" y="-114"/>
    </contour>
  </outline>
</glyph>
<glyph name="h" format="2">
  <advance width="682"/>
  <unicode hex="0068"/>
  <anchor x="365" y="0" name="bottom"/>
  <anchor x="348" y="750" name="top"/>
  <outline>
    <contour>
      <point x="152" y="700" type="line"/>
      <point x="152" y="0" type="line"/>
      <point x="247" y="0" type="line"/>
      <point x="247" y="750" type="line"/>
    </contour>
    <contour>
      <point x="234" y="466" type="curve"/>
      <point x="234" y="372" type="line"/>
      <point x="303" y="426"/>
      <point x="357" y="447"/>
      <point x="404" y="447" type="curve" smooth="yes"/>
      <point x="457" y="447"/>
      <point x="483" y="416"/>
      <point x="483" y="339" type="curve" smooth="yes"/>
      <point x="483" y="219"/>
      <point x="483" y="120"/>
      <point x="483" y="0" type="curve"/>
      <point x="582" y="0" type="line"/>
      <point x="582" y="129"/>
      <point x="582" y="236"/>
      <point x="582" y="365" type="curve" smooth="yes"/>
      <point x="582" y="499"/>
      <point x="518" y="543"/>
      <point x="437" y="544" type="curve" smooth="yes"/>
      <point x="366" y="545"/>
      <point x="293" y="509"/>
    </contour>
    <contour>
      <point x="60" y="750" type="line"/>
      <point x="60" y="692" type="line"/>
      <point x="247" y="660" type="line"/>
      <point x="247" y="750" type="line"/>
    </contour>
  </outline>
</glyph>
<glyph name="i" format="2">
  <advance width="550"/>
  <unicode hex="0069"/>
  <anchor x="276" y="0" name="bottom"/>
  <anchor x="485" y="0" name="ogonek"/>
  <anchor x="268" y="550" name="top"/>
  <outline>
    <contour>
      <point x="268" y="606" type="curve" smooth="yes"/>
      <point x="313" y="606"/>
      <point x="348" y="641"/>
      <point x="348" y="686" type="curve" smooth="yes"/>
      <point x="348" y="730"/>
      <point x="313" y="766"/>
      <point x="268" y="766" type="curve" smooth="yes"/>
      <point x="225" y="766"/>
      <point x="188" y="730"/>
      <point x="188" y="686" type="curve" smooth="yes"/>
      <point x="188" y="641"/>
      <point x="225" y="606"/>
    </contour>
    <component base="idotless"/>
  </outline>
</glyph>
<glyph name="j" format="2">
  <advance width="502"/>
  <unicode hex="006A"/>
  <anchor x="309" y="-200" name="bottom"/>
  <anchor x="309" y="550" name="top"/>
  <outline>
    <contour>
      <point x="309" y="606" type="curve" smooth="yes"/>
      <point x="354" y="606"/>
      <point x="389" y="641"/>
      <point x="389" y="686" type="curve" smooth="yes"/>
      <point x="389" y="730"/>
      <point x="354" y="766"/>
      <point x="309" y="766" type="curve" smooth="yes"/>
      <point x="266" y="766"/>
      <point x="229" y="730"/>
      <point x="229" y="686" type="curve" smooth="yes"/>
      <point x="229" y="641"/>
      <point x="266" y="606"/>
    </contour>
    <component base="jdotless"/>
  </outline>
</glyph>
<glyph name="k" format="2">
  <advance width="625"/>
  <unicode hex="006B"/>
  <anchor x="315" y="0" name="bottom"/>
  <anchor x="315" y="750" name="top"/>
  <outline>
    <contour>
      <point x="469" y="0" type="line"/>
      <point x="580" y="0" type="line"/>
      <point x="580" y="10" type="line"/>
      <point x="323" y="314" type="line"/>
      <point x="537" y="540" type="line"/>
      <point x="537" y="550" type="line"/>
      <point x="423" y="550" type="line"/>
      <point x="198" y="312" type="line"/>
      <point x="198" y="750" type="line"/>
      <point x="100" y="750" type="line"/>
      <point x="100" y="0" type="line"/>
      <point x="198" y="0" type="line"/>
      <point x="198" y="181" type="line"/>
      <point x="262" y="249" type="line"/>
    </contour>
  </outline>
</glyph>
<glyph name="l" format="2">
  <advance width="528"/>
  <unicode hex="006C"/>
  <anchor x="273" y="0" name="bottom"/>
  <anchor x="283" y="355" name="center"/>
  <anchor x="255" y="750" name="top"/>
  <anchor x="283" y="750" name="topright"/>
  <outline>
    <contour>
      <point x="185" y="700" type="line"/>
      <point x="185" y="177" type="line" smooth="yes"/>
      <point x="185" y="87"/>
      <point x="205" y="0"/>
      <point x="315" y="0" type="curve" smooth="yes"/>
      <point x="452" y="0" type="line"/>
      <point x="452" y="90" type="line"/>
      <point x="364" y="90" type="line" smooth="yes"/>
      <point x="291" y="90"/>
      <point x="283" y="136"/>
      <point x="283" y="177" type="curve" smooth="yes"/>
      <point x="283" y="750" type="line"/>
    </contour>
    <contour>
      <point x="76" y="750" type="line"/>
      <point x="76" y="693" type="line"/>
      <point x="283" y="654" type="line"/>
      <point x="283" y="750" type="line"/>
    </contour>
  </outline>
</glyph>
<glyph name="m" format="2">
  <advance width="852"/>
  <unicode hex="006D"/>
  <anchor x="425" y="0" name="bottom"/>
  <anchor x="425" y="550" name="top"/>
  <outline>
    <contour>
      <point x="102" y="554" type="line"/>
      <point x="92" y="359"/>
      <point x="95" y="164"/>
      <point x="105" y="0" type="curve"/>
      <point x="200" y="0" type="line"/>
      <point x="192" y="144"/>
      <point x="184" y="276"/>
      <point x="191" y="411" type="curve"/>
      <point x="218" y="445"/>
      <point x="261" y="470"/>
      <point x="304" y="470" type="curve" smooth="yes"/>
      <point x="340" y="470"/>
      <point x="377" y="448"/>
      <point x="377" y="352" type="curve" smooth="yes"/>
      <point x="376" y="0" type="line"/>
      <point x="476" y="0" type="line"/>
      <point x="473" y="412" type="line" smooth="yes"/>
      <point x="472" y="486"/>
      <point x="416" y="564"/>
      <point x="341" y="566" type="curve" smooth="yes"/>
      <point x="277" y="568"/>
      <point x="225" y="533"/>
      <point x="191" y="499" type="curve"/>
      <point x="184" y="554" type="line"/>
    </contour>
    <contour>
      <point x="451" y="488" type="curve"/>
      <point x="451" y="383" type="line"/>
      <point x="482" y="424"/>
      <point x="526" y="471"/>
      <point x="585" y="471" type="curve" smooth="yes"/>
      <point x="639" y="471"/>
      <point x="655" y="427"/>
      <point x="658" y="352" type="curve" smooth="yes"/>
      <point x="663" y="238"/>
      <point x="659" y="141"/>
      <point x="651" y="0" type="curve"/>
      <point x="750" y="0" type="line"/>
      <point x="759" y="152"/>
      <point x="757" y="316"/>
      <point x="749" y="433" type="curve" smooth="yes"/>
      <point x="743" y="520"/>
      <point x="681" y="566"/>
      <point x="617" y="566" type="curve" smooth="yes"/>
      <point x="551" y="566"/>
      <point x="490" y="531"/>
    </contour>
  </outline>
</glyph>
<glyph name="n" format="2">
  <advance width="640"/>
  <unicode hex="006E"/>
  <anchor x="321" y="0" name="bottom"/>
  <anchor x="321" y="550" name="top"/>
  <outline>
    <contour>
      <point x="98" y="554" type="line"/>
      <point x="98" y="0" type="line"/>
      <point x="194" y="0" type="line"/>
      <point x="194" y="394" type="line"/>
      <point x="263" y="448"/>
      <point x="317" y="470"/>
      <point x="364" y="470" type="curve" smooth="yes"/>
      <point x="417" y="470"/>
      <point x="443" y="438"/>
      <point x="443" y="361" type="curve" smooth="yes"/>
      <point x="443" y="241"/>
      <point x="443" y="120"/>
      <point x="443" y="0" type="curve"/>
      <point x="542" y="0" type="line"/>
      <point x="542" y="129"/>
      <point x="542" y="248"/>
      <point x="542" y="377" type="curve" smooth="yes"/>
      <point x="542" y="515"/>
      <point x="474" y="565"/>
      <point x="398" y="566" type="curve" smooth="yes"/>
      <point x="330" y="567"/>
      <point x="251" y="532"/>
      <point x="193" y="487" type="curve"/>
      <point x="184" y="554" type="line"/>
    </contour>
  </outline>
</glyph>
<glyph name="o" format="2">
  <advance width="622"/>
  <unicode hex="006F"/>
  <anchor x="311" y="0" name="bottom"/>
  <anchor x="401" y="0" name="ogonek"/>
  <anchor x="311" y="550" name="top"/>
  <anchor x="451" y="523" name="topright"/>
  <outline>
    <contour>
      <point x="311" y="-16" type="curve" smooth="yes"/>
      <point x="470" y="-16"/>
      <point x="556" y="100"/>
      <point x="556" y="275" type="curve" smooth="yes"/>
      <point x="556" y="450"/>
      <point x="471" y="566"/>
      <point x="311" y="566" type="curve" smooth="yes"/>
      <point x="152" y="566"/>
      <point x="66" y="450"/>
      <point x="66" y="275" type="curve" smooth="yes"/>
      <point x="66" y="100"/>
      <point x="152" y="-16"/>
    </contour>
    <contour>
      <point x="311" y="71" type="curve" smooth="yes"/>
      <point x="202" y="71"/>
      <point x="161" y="158"/>
      <point x="161" y="275" type="curve" smooth="yes"/>
      <point x="161" y="392"/>
      <point x="202" y="478"/>
      <point x="311" y="478" type="curve" smooth="yes"/>
      <point x="420" y="478"/>
      <point x="461" y="392"/>
      <point x="461" y="275" type="curve" smooth="yes"/>
      <point x="461" y="158"/>
      <point x="420" y="71"/>
    </contour>
  </outline>
</glyph>
<glyph name="p" format="2">
  <advance width="679"/>
  <unicode hex="0070"/>
  <anchor x="342" y="0" name="bottom"/>
  <anchor x="342" y="550" name="top"/>
  <outline>
    <contour>
      <point x="390" y="566" type="curve" smooth="yes"/>
      <point x="232" y="566"/>
      <point x="154" y="399"/>
      <point x="154" y="284" type="curve" smooth="yes"/>
      <point x="154" y="169"/>
      <point x="175" y="-16"/>
      <point x="343" y="-16" type="curve" smooth="yes"/>
      <point x="469" y="-16"/>
      <point x="586" y="110"/>
      <point x="598" y="280" type="curve" smooth="yes"/>
      <point x="610" y="457"/>
      <point x="520" y="566"/>
    </contour>
    <contour>
      <point x="380" y="479" type="curve" smooth="yes"/>
      <point x="476" y="479"/>
      <point x="509" y="397"/>
      <point x="500" y="280" type="curve" smooth="yes"/>
      <point x="490" y="153"/>
      <point x="430" y="72"/>
      <point x="338" y="72" type="curve" smooth="yes"/>
      <point x="241" y="72"/>
      <point x="219" y="184"/>
      <point x="219" y="280" type="curve" smooth="yes"/>
      <point x="219" y="385"/>
      <point x="278" y="479"/>
    </contour>
    <contour>
      <point x="147" y="558" type="line"/>
      <point x="147" y="-197" type="line"/>
      <point x="241" y="-197" type="line"/>
      <point x="241" y="502" type="line"/>
      <point x="231" y="558" type="line"/>
    </contour>
    <contour>
      <point x="54" y="558" type="line"/>
      <point x="54" y="500" type="line"/>
      <point x="241" y="468" type="line"/>
      <point x="241" y="502" type="line"/>
      <point x="231" y="558" type="line"/>
    </contour>
  </outline>
</glyph>
<glyph name="q" format="2">
  <advance width="660"/>
  <unicode hex="0071"/>
  <anchor x="319" y="0" name="bottom"/>
  <anchor x="319" y="550" name="top"/>
  <outline>
    <contour>
      <point x="432" y="558" type="line"/>
      <point x="422" y="493" type="line"/>
      <point x="422" y="-23" type="line"/>
      <point x="517" y="-23" type="line"/>
      <point x="517" y="558" type="line"/>
    </contour>
    <contour>
      <point x="281" y="566" type="curve" smooth="yes"/>
      <point x="139" y="566"/>
      <point x="66" y="429"/>
      <point x="66" y="279" type="curve" smooth="yes"/>
      <point x="66" y="131"/>
      <point x="138" y="-8"/>
      <point x="281" y="-8" type="curve" smooth="yes"/>
      <point x="417" y="-8"/>
      <point x="487" y="151"/>
      <point x="487" y="279" type="curve" smooth="yes"/>
      <point x="487" y="419"/>
      <point x="424" y="566"/>
    </contour>
    <contour>
      <point x="292" y="479" type="curve" smooth="yes"/>
      <point x="386" y="479"/>
      <point x="442" y="376"/>
      <point x="442" y="279" type="curve" smooth="yes"/>
      <point x="442" y="194"/>
      <point x="387" y="80"/>
      <point x="292" y="80" type="curve" smooth="yes"/>
      <point x="193" y="80"/>
      <point x="160" y="189"/>
      <point x="160" y="279" type="curve" smooth="yes"/>
      <point x="160" y="371"/>
      <point x="193" y="479"/>
    </contour>
    <contour>
      <point x="422" y="-23" type="line"/>
      <point x="422" y="-126"/>
      <point x="442" y="-200"/>
      <point x="552" y="-200" type="curve" smooth="yes"/>
      <point x="614" y="-200" type="line"/>
      <point x="614" y="-112" type="line"/>
      <point x="528" y="-112"/>
      <point x="517" y="-102"/>
      <point x="517" y="-23" type="curve"/>
    </contour>
  </outline>
</glyph>
<glyph name="r" format="2">
  <advance width="624"/>
  <unicode hex="0072"/>
  <anchor x="269" y="0" name="bottom"/>
  <anchor x="301" y="550" name="top"/>
  <outline>
    <contour>
      <point x="255" y="558" type="line"/>
      <point x="82" y="558" type="line"/>
      <point x="82" y="500" type="line"/>
      <point x="170" y="484" type="line"/>
      <point x="170" y="0" type="line"/>
      <point x="268" y="0" type="line"/>
      <point x="268" y="388" type="line"/>
      <point x="265" y="484" type="line"/>
    </contour>
    <contour>
      <point x="66" y="88" type="line"/>
      <point x="66" y="0" type="line"/>
      <point x="465" y="0" type="line"/>
      <point x="465" y="88" type="line"/>
    </contour>
    <contour>
      <point x="494" y="434" type="curve"/>
      <point x="564" y="493" type="line"/>
      <point x="538" y="539"/>
      <point x="485" y="565"/>
      <point x="428" y="566" type="curve" smooth="yes"/>
      <point x="349" y="567"/>
      <point x="283" y="505"/>
      <point x="225" y="447" type="curve"/>
      <point x="225" y="349" type="line"/>
      <point x="293" y="418"/>
      <point x="347" y="474"/>
      <point x="404" y="474" type="curve" smooth="yes"/>
      <point x="438" y="474"/>
      <point x="472" y="461"/>
    </contour>
  </outline>
</glyph>
<glyph name="s" format="2">
  <advance width="589"/>
  <unicode hex="0073"/>
  <anchor x="305" y="0" name="bottom"/>
  <anchor x="305" y="550" name="top"/>
  <outline>
    <contour>
      <point x="68" y="70" type="line"/>
      <point x="125" y="22"/>
      <point x="214" y="-15"/>
      <point x="304" y="-15" type="curve" smooth="yes"/>
      <point x="443" y="-15"/>
      <point x="521" y="47"/>
      <point x="521" y="142" type="curve" smooth="yes"/>
      <point x="521" y="314"/>
      <point x="184" y="324"/>
      <point x="188" y="411" type="curve" smooth="yes"/>
      <point x="190" y="450"/>
      <point x="246" y="477"/>
      <point x="305" y="477" type="curve" smooth="yes"/>
      <point x="359" y="477"/>
      <point x="400" y="456"/>
      <point x="445" y="422" type="curve"/>
      <point x="505" y="486" type="line"/>
      <point x="445" y="537"/>
      <point x="388" y="565"/>
      <point x="305" y="565" type="curve" smooth="yes"/>
      <point x="210" y="565"/>
      <point x="90" y="510"/>
      <point x="90" y="409" type="curve" smooth="yes"/>
      <point x="90" y="241"/>
      <point x="423" y="258"/>
      <point x="423" y="141" type="curve" smooth="yes"/>
      <point x="423" y="101"/>
      <point x="382" y="73"/>
      <point x="304" y="73" type="curve" smooth="yes"/>
      <point x="245" y="73"/>
      <point x="182" y="101"/>
      <point x="129" y="137" type="curve"/>
    </contour>
  </outline>
</glyph>
<glyph name="t" format="2">
  <advance width="587"/>
  <unicode hex="0074"/>
  <anchor x="353" y="0" name="bottom"/>
  <anchor x="292" y="275" name="center"/>
  <anchor x="292" y="750" name="topright"/>
  <outline>
    <contour>
      <point x="68" y="550" type="line"/>
      <point x="68" y="462" type="line"/>
      <point x="496" y="462" type="line"/>
      <point x="496" y="550" type="line"/>
    </contour>
    <contour>
      <point x="305" y="679" type="line"/>
      <point x="207" y="679" type="line"/>
      <point x="207" y="177" type="line" smooth="yes"/>
      <point x="207" y="87"/>
      <point x="227" y="0"/>
      <point x="335" y="0" type="curve" smooth="yes"/>
      <point x="501" y="0" type="line"/>
      <point x="501" y="90" type="line"/>
      <point x="386" y="90" type="line" smooth="yes"/>
      <point x="313" y="90"/>
      <point x="305" y="136"/>
      <point x="305" y="177" type="curve" smooth="yes"/>
    </contour>
  </outline>
</glyph>
<glyph name="u" format="2">
  <advance width="689"/>
  <unicode hex="0075"/>
  <anchor x="333" y="0" name="bottom"/>
  <anchor x="599" y="-8" name="ogonek"/>
  <anchor x="333" y="550" name="top"/>
  <anchor x="491" y="550" name="topright"/>
  <outline>
    <contour>
      <point x="456" y="70" type="line"/>
      <point x="475" y="16"/>
      <point x="510" y="-12"/>
      <point x="599" y="-8" type="curve"/>
      <point x="599" y="73" type="line"/>
      <point x="556" y="75"/>
      <point x="542" y="95"/>
      <point x="542" y="131" type="curve" smooth="yes"/>
      <point x="542" y="550" type="line"/>
      <point x="446" y="550" type="line"/>
      <point x="446" y="70" type="line"/>
    </contour>
    <contour>
      <point x="100" y="550" type="line"/>
      <point x="100" y="206" type="line" smooth="yes"/>
      <point x="100" y="42"/>
      <point x="169" y="-15"/>
      <point x="260" y="-16" type="curve" smooth="yes"/>
      <point x="333" y="-17"/>
      <point x="405" y="25"/>
      <point x="465" y="74" type="curve"/>
      <point x="465" y="167" type="line"/>
      <point x="393" y="103"/>
      <point x="340" y="81"/>
      <point x="289" y="81" type="curve" smooth="yes"/>
      <point x="211" y="81"/>
      <point x="199" y="155"/>
      <point x="199" y="257" type="curve" smooth="yes"/>
      <point x="199" y="550" type="line"/>
    </contour>
  </outline>
</glyph>
<glyph name="v" format="2">
  <advance width="634"/>
  <unicode hex="0076"/>
  <anchor x="317" y="0" name="bottom"/>
  <anchor x="317" y="550" name="top"/>
  <outline>
    <contour>
      <point x="64" y="550" type="line"/>
      <point x="133" y="267"/>
      <point x="186" y="132"/>
      <point x="262" y="0" type="curve"/>
      <point x="363" y="0" type="line"/>
      <point x="287" y="132"/>
      <point x="235" y="267"/>
      <point x="167" y="550" type="curve"/>
    </contour>
    <contour>
      <point x="570" y="550" type="curve"/>
      <point x="467" y="550" type="line"/>
      <point x="399" y="267"/>
      <point x="347" y="132"/>
      <point x="271" y="0" type="curve"/>
      <point x="372" y="0" type="line"/>
      <point x="448" y="132"/>
      <point x="501" y="267"/>
    </contour>
  </outline>
</glyph>
<glyph name="w" format="2">
  <advance width="706"/>
  <unicode hex="0077"/>
  <anchor x="353" y="0" name="bottom"/>
  <anchor x="353" y="550" name="top"/>
  <outline>
    <contour>
      <point x="84" y="550" type="line"/>
      <point x="91" y="307"/>
      <point x="115" y="123"/>
      <point x="154" y="0" type="curve"/>
      <point x="242" y="0" type="line"/>
      <point x="205" y="123"/>
      <point x="185" y="307"/>
      <point x="180" y="550" type="curve"/>
    </contour>
    <contour>
      <point x="386" y="377" type="line"/>
      <point x="312" y="377" type="line"/>
      <point x="188" y="0" type="line"/>
      <point x="274" y="0" type="line"/>
    </contour>
    <contour>
      <point x="320" y="377" type="line"/>
      <point x="432" y="0" type="line"/>
      <point x="518" y="0" type="line"/>
      <point x="394" y="377" type="line"/>
    </contour>
    <contour>
      <point x="622" y="550" type="curve"/>
      <point x="526" y="550" type="line"/>
      <point x="521" y="307"/>
      <point x="501" y="123"/>
      <point x="464" y="0" type="curve"/>
      <point x="552" y="0" type="line"/>
      <point x="591" y="123"/>
      <point x="615" y="307"/>
    </contour>
  </outline>
</glyph>
<glyph name="x" format="2">
  <advance width="610"/>
  <unicode hex="0078"/>
  <anchor x="305" y="0" name="bottom"/>
  <anchor x="305" y="550" name="top"/>
  <outline>
    <contour>
      <point x="76" y="0" type="line"/>
      <point x="179" y="0" type="line"/>
      <point x="367" y="310" type="line"/>
      <point x="262" y="310" type="line"/>
      <point x="76" y="10" type="line"/>
    </contour>
    <contour>
      <point x="372" y="240" type="line"/>
      <point x="184" y="550" type="line"/>
      <point x="81" y="550" type="line"/>
      <point x="81" y="540" type="line"/>
      <point x="267" y="240" type="line"/>
    </contour>
    <contour>
      <point x="534" y="0" type="line"/>
      <point x="534" y="10" type="line"/>
      <point x="345" y="310" type="line"/>
      <point x="240" y="310" type="line"/>
      <point x="431" y="0" type="line"/>
    </contour>
    <contour>
      <point x="235" y="240" type="line"/>
      <point x="340" y="240" type="line"/>
      <point x="529" y="540" type="line"/>
      <point x="529" y="550" type="line"/>
      <point x="426" y="550" type="line"/>
    </contour>
  </outline>
</glyph>
<glyph name="y" format="2">
  <advance width="646"/>
  <unicode hex="0079"/>
  <anchor x="337" y="-214" name="bottom"/>
  <anchor x="337" y="550" name="top"/>
  <outline>
    <contour>
      <point x="138" y="545" type="line"/>
      <point x="135" y="222" type="line" smooth="yes"/>
      <point x="134" y="62"/>
      <point x="209" y="1"/>
      <point x="300" y="0" type="curve" smooth="yes"/>
      <point x="392" y="-1"/>
      <point x="441" y="49"/>
      <point x="499" y="107" type="curve"/>
      <point x="499" y="198" type="line"/>
      <point x="420" y="134"/>
      <point x="380" y="96"/>
      <point x="318" y="96" type="curve" smooth="yes"/>
      <point x="241" y="96"/>
      <point x="233" y="171"/>
      <point x="233" y="273" type="curve" smooth="yes"/>
      <point x="233" y="545" type="line"/>
    </contour>
    <contour>
      <point x="448" y="-23" type="line" smooth="yes"/>
      <point x="448" y="-100"/>
      <point x="381" y="-125"/>
      <point x="308" y="-125" type="curve" smooth="yes"/>
      <point x="178" y="-125" type="line"/>
      <point x="178" y="-215" type="line"/>
      <point x="359" y="-215" type="line" smooth="yes"/>
      <point x="469" y="-215"/>
      <point x="546" y="-153"/>
      <point x="546" y="-23" type="curve" smooth="yes"/>
      <point x="546" y="550" type="line"/>
      <point x="448" y="550" type="line"/>
    </contour>
    <contour>
      <point x="54" y="545" type="line"/>
      <point x="54" y="477" type="line"/>
      <point x="232" y="451" type="line"/>
      <point x="232" y="545" type="line"/>
    </contour>
  </outline>
</glyph>
<glyph name="z" format="2">
  <advance width="598"/>
  <unicode hex="007A"/>
  <anchor x="301" y="0" name="bottom"/>
  <anchor x="301" y="550" name="top"/>
  <outline>
    <contour>
      <point x="82" y="550" type="line"/>
      <point x="82" y="462" type="line"/>
      <point x="510" y="462" type="line"/>
      <point x="510" y="550" type="line"/>
    </contour>
    <contour>
      <point x="76" y="88" type="line"/>
      <point x="76" y="0" type="line"/>
      <point x="526" y="0" type="line"/>
      <point x="526" y="88" type="line"/>
    </contour>
    <contour>
      <point x="76" y="88" type="line"/>
      <point x="202" y="88" type="line"/>
      <point x="510" y="462" type="line"/>
      <point x="384" y="462" type="line"/>
    </contour>
  </outline>
</glyph>
<glyph name="braceleft" format="2">
  <advance width="574"/>
  <unicode hex="007B"/>
  <outline>
    <contour>
      <point x="100" y="359" type="line"/>
      <point x="100" y="271" type="line"/>
      <point x="160" y="271" type="line" smooth="yes"/>
      <point x="217" y="271"/>
      <point x="271" y="213"/>
      <point x="271" y="166" type="curve" smooth="yes"/>
      <point x="271" y="108"/>
      <point x="226" y="75"/>
      <point x="226" y="4" type="curve" smooth="yes"/>
      <point x="226" y="-55"/>
      <point x="257" y="-101"/>
      <point x="327" y="-116" type="curve" smooth="yes"/>
      <point x="365" y="-124"/>
      <point x="436" y="-133"/>
      <point x="474" y="-135" type="curve"/>
      <point x="474" y="-37" type="line"/>
      <point x="425" y="-34"/>
      <point x="324" y="-30"/>
      <point x="321" y="19" type="curve" smooth="yes"/>
      <point x="318" y="65"/>
      <point x="366" y="103"/>
      <point x="366" y="169" type="curve" smooth="yes"/>
      <point x="366" y="231"/>
      <point x="312" y="287"/>
      <point x="267" y="315" type="curve"/>
      <point x="312" y="343"/>
      <point x="366" y="399"/>
      <point x="366" y="461" type="curve" smooth="yes"/>
      <point x="366" y="527"/>
      <point x="318" y="565"/>
      <point x="321" y="611" type="curve" smooth="yes"/>
      <point x="324" y="660"/>
      <point x="425" y="664"/>
      <point x="474" y="667" type="curve"/>
      <point x="474" y="765" type="line"/>
      <point x="436" y="763"/>
      <point x="365" y="754"/>
      <point x="327" y="746" type="curve" smooth="yes"/>
      <point x="257" y="731"/>
      <point x="226" y="685"/>
      <point x="226" y="626" type="curve" smooth="yes"/>
      <point x="226" y="555"/>
      <point x="271" y="522"/>
      <point x="271" y="464" type="curve" smooth="yes"/>
      <point x="271" y="417"/>
      <point x="217" y="359"/>
      <point x="160" y="359" type="curve" smooth="yes"/>
    </contour>
  </outline>
</glyph>
<glyph name="bar" format="2">
  <advance width="298"/>
  <unicode hex="007C"/>
  <outline>
    <contour>
      <point x="198" y="766" type="line"/>
      <point x="100" y="766" type="line"/>
      <point x="100" y="-160" type="line"/>
      <point x="198" y="-160" type="line"/>
    </contour>
  </outline>
</glyph>
<glyph name="braceright" format="2">
  <advance width="574"/>
  <unicode hex="007D"/>
  <outline>
    <contour>
      <point x="474" y="359" type="line"/>
      <point x="414" y="359" type="line" smooth="yes"/>
      <point x="357" y="359"/>
      <point x="303" y="417"/>
      <point x="303" y="464" type="curve" smooth="yes"/>
      <point x="303" y="522"/>
      <point x="348" y="555"/>
      <point x="348" y="626" type="curve" smooth="yes"/>
      <point x="348" y="685"/>
      <point x="317" y="731"/>
      <point x="247" y="746" type="curve" smooth="yes"/>
      <point x="209" y="754"/>
      <point x="138" y="763"/>
      <point x="100" y="765" type="curve"/>
      <point x="100" y="667" type="line"/>
      <point x="149" y="664"/>
      <point x="250" y="660"/>
      <point x="253" y="611" type="curve" smooth="yes"/>
      <point x="256" y="565"/>
      <point x="208" y="527"/>
      <point x="208" y="461" type="curve" smooth="yes"/>
      <point x="208" y="399"/>
      <point x="262" y="343"/>
      <point x="307" y="315" type="curve"/>
      <point x="262" y="287"/>
      <point x="208" y="231"/>
      <point x="208" y="169" type="curve" smooth="yes"/>
      <point x="208" y="103"/>
      <point x="256" y="65"/>
      <point x="253" y="19" type="curve" smooth="yes"/>
      <point x="250" y="-30"/>
      <point x="149" y="-34"/>
      <point x="100" y="-37" type="curve"/>
      <point x="100" y="-135" type="line"/>
      <point x="138" y="-133"/>
      <point x="209" y="-124"/>
      <point x="247" y="-116" type="curve" smooth="yes"/>
      <point x="317" y="-101"/>
      <point x="348" y="-55"/>
      <point x="348" y="4" type="curve" smooth="yes"/>
      <point x="348" y="75"/>
      <point x="303" y="108"/>
      <point x="303" y="166" type="curve" smooth="yes"/>
      <point x="303" y="213"/>
      <point x="357" y="271"/>
      <point x="414" y="271" type="curve" smooth="yes"/>
      <point x="474" y="271" type="line"/>
    </contour>
  </outline>
</glyph>
<glyph name="asciitilde" format="2">
  <advance width="664"/>
  <unicode hex="007E"/>
  <outline>
    <contour>
      <point x="307" y="285" type="curve" smooth="yes"/>
      <point x="423" y="180"/>
      <point x="461" y="169"/>
      <point x="602" y="345" type="curve"/>
      <point x="542" y="394" type="line"/>
      <point x="442" y="276"/>
      <point x="438" y="271"/>
      <point x="357" y="346" type="curve" smooth="yes"/>
      <point x="241" y="451"/>
      <point x="203" y="462"/>
      <point x="62" y="286" type="curve"/>
      <point x="122" y="237" type="line"/>
      <point x="222" y="355"/>
      <point x="226" y="360"/>
    </contour>
  </outline>
</glyph>
<glyph name="exclamdown" format="2">
  <advance width="364"/>
  <unicode hex="00A1"/>
  <outline>
    <contour>
      <point x="182" y="552" type="curve" smooth="yes"/>
      <point x="141" y="552"/>
      <point x="106" y="517"/>
      <point x="106" y="476" type="curve" smooth="yes"/>
      <point x="106" y="435"/>
      <point x="141" y="400"/>
      <point x="182" y="400" type="curve" smooth="yes"/>
      <point x="223" y="400"/>
      <point x="258" y="435"/>
      <point x="258" y="476" type="curve" smooth="yes"/>
      <point x="258" y="517"/>
      <point x="223" y="552"/>
    </contour>
    <contour>
      <point x="100" y="-200" type="curve"/>
      <point x="264" y="-200" type="line"/>
      <point x="257" y="-35"/>
      <point x="237" y="150"/>
      <point x="229" y="315" type="curve"/>
      <point x="135" y="315" type="line"/>
      <point x="127" y="150"/>
      <point x="107" y="-35"/>
    </contour>
  </outline>
</glyph>
<glyph name="cent" format="2">
  <advance width="547"/>
  <unicode hex="00A2"/>
  <outline>
    <contour>
      <point x="447" y="469" type="line"/>
      <point x="422" y="492"/>
      <point x="369" y="520"/>
      <point x="299" y="520" type="curve" smooth="yes"/>
      <point x="162" y="520"/>
      <point x="60" y="426"/>
      <point x="60" y="271" type="curve" smooth="yes"/>
      <point x="60" y="117"/>
      <point x="162" y="22"/>
      <point x="299" y="22" type="curve" smooth="yes"/>
      <point x="369" y="22"/>
      <point x="422" y="50"/>
      <point x="447" y="73" type="curve"/>
      <point x="447" y="156" type="line"/>
      <point x="441" y="156" type="line"/>
      <point x="403" y="123"/>
      <point x="359" y="103"/>
      <point x="299" y="103" type="curve" smooth="yes"/>
      <point x="216" y="103"/>
      <point x="139" y="158"/>
      <point x="139" y="271" type="curve" smooth="yes"/>
      <point x="139" y="384"/>
      <point x="216" y="439"/>
      <point x="299" y="439" type="curve" smooth="yes"/>
      <point x="359" y="439"/>
      <point x="403" y="419"/>
      <point x="441" y="386" type="curve"/>
      <point x="447" y="386" type="line"/>
    </contour>
    <contour>
      <point x="322" y="609" type="line"/>
      <point x="252" y="609" type="line"/>
      <point x="252" y="-61" type="line"/>
      <point x="322" y="-61" type="line"/>
    </contour>
  </outline>
</glyph>
<glyph name="sterling" format="2">
  <advance width="655"/>
  <unicode hex="00A3"/>
  <outline>
    <contour>
      <point x="96" y="82" type="curve"/>
      <point x="152" y="7" type="line"/>
      <point x="182" y="65" type="line"/>
      <point x="223" y="103"/>
      <point x="280" y="168"/>
      <point x="281" y="247" type="curve" smooth="yes"/>
      <point x="282" y="336"/>
      <point x="206" y="393"/>
      <point x="206" y="494" type="curve" smooth="yes"/>
      <point x="206" y="567"/>
      <point x="270" y="628"/>
      <point x="358" y="628" type="curve" smooth="yes"/>
      <point x="419" y="628"/>
      <point x="474" y="597"/>
      <point x="509" y="560" type="curve"/>
      <point x="562" y="619" type="line"/>
      <point x="518" y="669"/>
      <point x="446" y="710"/>
      <point x="350" y="710" type="curve" smooth="yes"/>
      <point x="210" y="710"/>
      <point x="116" y="608"/>
      <point x="116" y="504" type="curve" smooth="yes"/>
      <point x="116" y="377"/>
      <point x="191" y="337"/>
      <point x="191" y="253" type="curve" smooth="yes"/>
      <point x="191" y="188"/>
      <point x="157" y="144"/>
    </contour>
    <contour>
      <point x="566" y="111" type="line"/>
      <point x="529" y="93"/>
      <point x="510" y="89"/>
      <point x="474" y="89" type="curve" smooth="yes"/>
      <point x="415" y="89"/>
      <point x="385" y="129"/>
      <point x="312" y="133" type="curve" smooth="yes"/>
      <point x="255" y="136"/>
      <point x="197" y="103"/>
      <point x="153" y="85" type="curve"/>
      <point x="152" y="8" type="line"/>
      <point x="209" y="35"/>
      <point x="255" y="52"/>
      <point x="310" y="47" type="curve" smooth="yes"/>
      <point x="364" y="42"/>
      <point x="410" y="5"/>
      <point x="475" y="5" type="curve" smooth="yes"/>
      <point x="523" y="5"/>
      <point x="564" y="18"/>
      <point x="605" y="43" type="curve"/>
    </contour>
    <contour>
      <point x="455" y="313" type="line"/>
      <point x="455" y="389" type="line"/>
      <point x="65" y="389" type="line"/>
      <point x="65" y="313" type="line"/>
    </contour>
  </outline>
</glyph>
<glyph name="yen" format="2">
  <advance width="640"/>
  <unicode hex="00A5"/>
  <outline>
    <contour>
      <point x="565" y="700" type="line"/>
      <point x="463" y="700" type="line"/>
      <point x="309" y="393" type="line"/>
      <point x="401" y="393" type="line"/>
      <point x="565" y="691" type="line"/>
    </contour>
    <contour>
      <point x="272" y="384" type="line"/>
      <point x="275" y="10" type="line"/>
      <point x="365" y="10" type="line"/>
      <point x="368" y="384" type="line"/>
    </contour>
    <contour>
      <point x="525" y="322" type="line"/>
      <point x="525" y="392" type="line"/>
      <point x="525" y="395" type="line"/>
      <point x="111" y="395" type="line"/>
      <point x="111" y="322" type="line"/>
    </contour>
    <contour>
      <point x="525" y="183" type="line"/>
      <point x="525" y="253" type="line"/>
      <point x="525" y="256" type="line"/>
      <point x="111" y="256" type="line"/>
      <point x="111" y="183" type="line"/>
    </contour>
    <contour>
      <point x="75" y="700" type="line"/>
      <point x="75" y="691" type="line"/>
      <point x="239" y="393" type="line"/>
      <point x="331" y="393" type="line"/>
      <point x="177" y="700" type="line"/>
    </contour>
  </outline>
</glyph>
<glyph name="section" format="2">
  <advance width="568"/>
  <unicode hex="00A7"/>
  <outline>
    <contour>
      <point x="343" y="247" type="curve"/>
      <point x="411" y="195" type="line"/>
      <point x="448" y="231"/>
      <point x="494" y="274"/>
      <point x="494" y="335" type="curve" smooth="yes"/>
      <point x="494" y="492"/>
      <point x="166" y="515"/>
      <point x="168" y="610" type="curve" smooth="yes"/>
      <point x="169" y="650"/>
      <point x="230" y="680"/>
      <point x="289" y="680" type="curve" smooth="yes"/>
      <point x="346" y="680"/>
      <point x="393" y="661"/>
      <point x="439" y="625" type="curve"/>
      <point x="494" y="687" type="line"/>
      <point x="437" y="738"/>
      <point x="367" y="766"/>
      <point x="289" y="766" type="curve" smooth="yes"/>
      <point x="194" y="766"/>
      <point x="70" y="708"/>
      <point x="70" y="607" type="curve" smooth="yes"/>
      <point x="70" y="443"/>
      <point x="401" y="443"/>
      <point x="401" y="333" type="curve" smooth="yes"/>
      <point x="401" y="309"/>
      <point x="385" y="286"/>
    </contour>
    <contour>
      <point x="274" y="478" type="curve"/>
      <point x="200" y="529" type="line"/>
      <point x="163" y="517"/>
      <point x="71" y="466"/>
      <point x="71" y="396" type="curve" smooth="yes"/>
      <point x="71" y="236"/>
      <point x="398" y="217"/>
      <point x="396" y="131" type="curve" smooth="yes"/>
      <point x="395" y="91"/>
      <point x="340" y="67"/>
      <point x="281" y="67" type="curve" smooth="yes"/>
      <point x="230" y="67"/>
      <point x="168" y="88"/>
      <point x="125" y="134" type="curve"/>
      <point x="70" y="73" type="line"/>
      <point x="127" y="15"/>
      <point x="209" y="-16"/>
      <point x="281" y="-16" type="curve" smooth="yes"/>
      <point x="376" y="-16"/>
      <point x="494" y="33"/>
      <point x="494" y="134" type="curve" smooth="yes"/>
      <point x="494" y="285"/>
      <point x="167" y="295"/>
      <point x="167" y="398" type="curve" smooth="yes"/>
      <point x="167" y="435"/>
      <point x="228" y="467"/>
    </contour>
  </outline>
</glyph>
<glyph name="copyright" format="2">
  <advance width="670"/>
  <unicode hex="00A9"/>
  <outline>
    <contour>
      <point x="335" y="42" type="curve" smooth="yes"/>
      <point x="515" y="42"/>
      <point x="610" y="178"/>
      <point x="610" y="360" type="curve" smooth="yes"/>
      <point x="610" y="542"/>
      <point x="515" y="678"/>
      <point x="335" y="678" type="curve" smooth="yes"/>
      <point x="155" y="678"/>
      <point x="60" y="542"/>
      <point x="60" y="360" type="curve" smooth="yes"/>
      <point x="60" y="178"/>
      <point x="155" y="42"/>
    </contour>
    <contour>
      <point x="335" y="86" type="curve" smooth="yes"/>
      <point x="182" y="88"/>
      <point x="109" y="201"/>
      <point x="109" y="360" type="curve" smooth="yes"/>
      <point x="109" y="519"/>
      <point x="182" y="636"/>
      <point x="335" y="636" type="curve" smooth="yes"/>
      <point x="488" y="636"/>
      <point x="561" y="519"/>
      <point x="561" y="360" type="curve" smooth="yes"/>
      <point x="561" y="201"/>
      <point x="488" y="84"/>
    </contour>
    <contour>
      <point x="339" y="157" type="curve" smooth="yes"/>
      <point x="384" y="157"/>
      <point x="430" y="172"/>
      <point x="469" y="212" type="curve"/>
      <point x="424" y="266" type="line"/>
      <point x="394" y="239"/>
      <point x="366" y="229"/>
      <point x="337" y="229" type="curve" smooth="yes"/>
      <point x="290" y="229"/>
      <point x="244" y="268"/>
      <point x="244" y="359" type="curve" smooth="yes"/>
      <point x="244" y="441"/>
      <point x="283" y="498"/>
      <point x="337" y="498" type="curve" smooth="yes"/>
      <point x="366" y="498"/>
      <point x="389" y="485"/>
      <point x="408" y="455" type="curve"/>
      <point x="463" y="488" type="line"/>
      <point x="443" y="528"/>
      <point x="405" y="571"/>
      <point x="335" y="571" type="curve" smooth="yes"/>
      <point x="245" y="571"/>
      <point x="172" y="497"/>
      <point x="172" y="361" type="curve" smooth="yes"/>
      <point x="172" y="225"/>
      <point x="246" y="157"/>
    </contour>
  </outline>
</glyph>
<glyph name="guillemetleft" format="2">
  <advance width="697"/>
  <unicode hex="00AB"/>
  <outline>
    <contour>
      <point x="100" y="275" type="line"/>
      <point x="154" y="221" type="line"/>
      <point x="397" y="464" type="line"/>
      <point x="343" y="518" type="line"/>
    </contour>
    <contour>
      <point x="100" y="275" type="line"/>
      <point x="343" y="32" type="line"/>
      <point x="397" y="86" type="line"/>
      <point x="154" y="329" type="line"/>
    </contour>
    <contour>
      <point x="300" y="275" type="line"/>
      <point x="354" y="221" type="line"/>
      <point x="597" y="464" type="line"/>
      <point x="543" y="518" type="line"/>
    </contour>
    <contour>
      <point x="300" y="275" type="line"/>
      <point x="543" y="32" type="line"/>
      <point x="597" y="86" type="line"/>
      <point x="354" y="329" type="line"/>
    </contour>
  </outline>
</glyph>
<glyph name="registered" format="2">
  <advance width="670"/>
  <unicode hex="00AE"/>
  <outline>
    <contour>
      <point x="335" y="42" type="curve" smooth="yes"/>
      <point x="515" y="42"/>
      <point x="610" y="178"/>
      <point x="610" y="360" type="curve" smooth="yes"/>
      <point x="610" y="542"/>
      <point x="515" y="678"/>
      <point x="335" y="678" type="curve" smooth="yes"/>
      <point x="155" y="678"/>
      <point x="60" y="542"/>
      <point x="60" y="360" type="curve" smooth="yes"/>
      <point x="60" y="178"/>
      <point x="155" y="42"/>
    </contour>
    <contour>
      <point x="335" y="86" type="curve" smooth="yes"/>
      <point x="182" y="88"/>
      <point x="109" y="201"/>
      <point x="109" y="360" type="curve" smooth="yes"/>
      <point x="109" y="519"/>
      <point x="182" y="636"/>
      <point x="335" y="636" type="curve" smooth="yes"/>
      <point x="488" y="636"/>
      <point x="561" y="519"/>
      <point x="561" y="360" type="curve" smooth="yes"/>
      <point x="561" y="201"/>
      <point x="488" y="84"/>
    </contour>
    <contour>
      <point x="205" y="550" type="line"/>
      <point x="205" y="180" type="line"/>
      <point x="269" y="180" type="line"/>
      <point x="269" y="550" type="line"/>
    </contour>
    <contour>
      <point x="265" y="377" type="curve"/>
      <point x="265" y="318" type="line"/>
      <point x="289" y="318"/>
      <point x="314" y="318"/>
      <point x="341" y="318" type="curve" smooth="yes"/>
      <point x="421" y="318"/>
      <point x="471" y="360"/>
      <point x="471" y="434" type="curve" smooth="yes"/>
      <point x="471" y="508"/>
      <point x="423" y="550"/>
      <point x="341" y="550" type="curve" smooth="yes"/>
      <point x="321" y="550"/>
      <point x="293" y="550"/>
      <point x="265" y="550" type="curve"/>
      <point x="265" y="491" type="line"/>
      <point x="293" y="491"/>
      <point x="319" y="491"/>
      <point x="340" y="491" type="curve" smooth="yes"/>
      <point x="392" y="491"/>
      <point x="408" y="459"/>
      <point x="408" y="434" type="curve" smooth="yes"/>
      <point x="408" y="396"/>
      <point x="386" y="377"/>
      <point x="340" y="377" type="curve" smooth="yes"/>
      <point x="313" y="377"/>
      <point x="290" y="377"/>
    </contour>
    <contour>
      <point x="377" y="342" type="line"/>
      <point x="303" y="342" type="line"/>
      <point x="410" y="180" type="line"/>
      <point x="483" y="180" type="line"/>
      <point x="483" y="185" type="line"/>
    </contour>
  </outline>
</glyph>
<glyph name="degree" format="2">
  <advance width="432"/>
  <unicode hex="00B0"/>
  <outline>
    <contour>
      <point x="186" y="434" type="curve" smooth="yes"/>
      <point x="272" y="434"/>
      <point x="332" y="490"/>
      <point x="332" y="580" type="curve" smooth="yes"/>
      <point x="332" y="670"/>
      <point x="277" y="726"/>
      <point x="186" y="726" type="curve" smooth="yes"/>
      <point x="100" y="726"/>
      <point x="40" y="670"/>
      <point x="40" y="580" type="curve" smooth="yes"/>
      <point x="40" y="490"/>
      <point x="100" y="434"/>
    </contour>
    <contour>
      <point x="185" y="496" type="curve" smooth="yes"/>
      <point x="138" y="496"/>
      <point x="108" y="531"/>
      <point x="108" y="579" type="curve" smooth="yes"/>
      <point x="108" y="629"/>
      <point x="138" y="664"/>
      <point x="185" y="664" type="curve" smooth="yes"/>
      <point x="235" y="664"/>
      <point x="264" y="629"/>
      <point x="264" y="579" type="curve" smooth="yes"/>
      <point x="264" y="531"/>
      <point x="235" y="496"/>
    </contour>
  </outline>
</glyph>
<glyph name="plusminus" format="2">
  <advance width="590"/>
  <unicode hex="00B1"/>
  <outline>
    <contour>
      <point x="505" y="439" type="line"/>
      <point x="85" y="439" type="line"/>
      <point x="85" y="353" type="line"/>
      <point x="505" y="353" type="line"/>
    </contour>
    <contour>
      <point x="340" y="170" type="line"/>
      <point x="340" y="622" type="line"/>
      <point x="250" y="622" type="line"/>
      <point x="250" y="170" type="line"/>
    </contour>
    <contour>
      <point x="85" y="99" type="line"/>
      <point x="85" y="13" type="line"/>
      <point x="505" y="13" type="line"/>
      <point x="505" y="99" type="line"/>
    </contour>
  </outline>
</glyph>
<glyph name="paragraph" format="2">
  <advance width="615"/>
  <unicode hex="00B6"/>
  <outline>
    <contour>
      <point x="357" y="750" type="line"/>
      <point x="271" y="750" type="line"/>
      <point x="271" y="-60" type="line"/>
      <point x="357" y="-60" type="line"/>
    </contour>
    <contour>
      <point x="281" y="318" type="curve"/>
      <point x="281" y="750" type="line"/>
      <point x="166" y="750"/>
      <point x="75" y="657"/>
      <point x="75" y="534" type="curve" smooth="yes"/>
      <point x="75" y="411"/>
      <point x="166" y="318"/>
    </contour>
    <contour>
      <point x="515" y="750" type="line"/>
      <point x="431" y="750" type="line"/>
      <point x="431" y="-60" type="line"/>
      <point x="515" y="-60" type="line"/>
    </contour>
    <contour>
      <point x="317" y="750" type="line"/>
      <point x="317" y="693" type="line"/>
      <point x="467" y="693" type="line"/>
      <point x="467" y="750" type="line"/>
    </contour>
  </outline>
</glyph>
<glyph name="periodcentered" format="2">
  <advance width="366"/>
  <unicode hex="00B7"/>
  <outline>
    <contour>
      <point x="183" y="267" type="curve" smooth="yes"/>
      <point x="229" y="267"/>
      <point x="266" y="304"/>
      <point x="266" y="350" type="curve" smooth="yes"/>
      <point x="266" y="396"/>
      <point x="229" y="433"/>
      <point x="183" y="433" type="curve" smooth="yes"/>
      <point x="137" y="433"/>
      <point x="100" y="396"/>
      <point x="100" y="350" type="curve" smooth="yes"/>
      <point x="100" y="304"/>
      <point x="137" y="267"/>
    </contour>
  </outline>
</glyph>
<glyph name="guillemetright" format="2">
  <advance width="697"/>
  <unicode hex="00BB"/>
  <outline>
    <contour>
      <point x="597" y="275" type="line"/>
      <point x="354" y="518" type="line"/>
      <point x="300" y="464" type="line"/>
      <point x="543" y="221" type="line"/>
    </contour>
    <contour>
      <point x="597" y="275" type="line"/>
      <point x="543" y="329" type="line"/>
      <point x="300" y="86" type="line"/>
      <point x="354" y="32" type="line"/>
    </contour>
    <contour>
      <point x="397" y="275" type="line"/>
      <point x="154" y="518" type="line"/>
      <point x="100" y="464" type="line"/>
      <point x="343" y="221" type="line"/>
    </contour>
    <contour>
      <point x="397" y="275" type="line"/>
      <point x="343" y="329" type="line"/>
      <point x="100" y="86" type="line"/>
      <point x="154" y="32" type="line"/>
    </contour>
  </outline>
</glyph>
<glyph name="questiondown" format="2">
  <advance width="728"/>
  <unicode hex="00BF"/>
  <outline>
    <contour>
      <point x="417" y="300" type="line"/>
      <point x="318" y="300" type="line"/>
      <point x="318" y="275" type="line" smooth="yes"/>
      <point x="318" y="151"/>
      <point x="100" y="162"/>
      <point x="100" y="-13" type="curve" smooth="yes"/>
      <point x="100" y="-119"/>
      <point x="203" y="-216"/>
      <point x="369" y="-216" type="curve" smooth="yes"/>
      <point x="476" y="-216"/>
      <point x="569" y="-155"/>
      <point x="628" y="-88" type="curve"/>
      <point x="557" y="-25" type="line"/>
      <point x="517" y="-69"/>
      <point x="458" y="-118"/>
      <point x="366" y="-118" type="curve" smooth="yes"/>
      <point x="252" y="-118"/>
      <point x="200" y="-62"/>
      <point x="200" y="-11" type="curve" smooth="yes"/>
      <point x="200" y="95"/>
      <point x="417" y="80"/>
      <point x="417" y="281" type="curve" smooth="yes"/>
    </contour>
    <contour>
      <point x="361" y="537" type="curve" smooth="yes"/>
      <point x="320" y="537"/>
      <point x="285" y="502"/>
      <point x="285" y="461" type="curve" smooth="yes"/>
      <point x="285" y="420"/>
      <point x="320" y="385"/>
      <point x="361" y="385" type="curve" smooth="yes"/>
      <point x="402" y="385"/>
      <point x="437" y="420"/>
      <point x="437" y="461" type="curve" smooth="yes"/>
      <point x="437" y="502"/>
      <point x="402" y="537"/>
    </contour>
  </outline>
</glyph>
<glyph name="AE" format="2">
  <advance width="768"/>
  <unicode hex="00C6"/>
  <outline>
    <contour>
      <point x="132" y="255" type="line"/>
      <point x="132" y="170" type="line"/>
      <point x="398" y="170" type="line"/>
      <point x="398" y="255" type="line"/>
    </contour>
    <contour>
      <point x="354" y="710" type="line"/>
      <point x="354" y="0" type="line"/>
      <point x="439" y="0" type="line"/>
      <point x="439" y="710" type="line"/>
    </contour>
    <contour>
      <point x="671" y="395" type="line"/>
      <point x="377" y="395" type="line"/>
      <point x="377" y="307" type="line"/>
      <point x="671" y="307" type="line"/>
    </contour>
    <contour>
      <point x="695" y="710" type="line"/>
      <point x="301" y="710" type="line"/>
      <point x="301" y="625" type="line"/>
      <point x="695" y="625" type="line"/>
    </contour>
    <contour>
      <point x="703" y="85" type="line"/>
      <point x="377" y="85" type="line"/>
      <point x="377" y="0" type="line"/>
      <point x="703" y="0" type="line"/>
    </contour>
    <contour>
      <point x="55" y="0" type="curve"/>
      <point x="152" y="0" type="line"/>
      <point x="210" y="277"/>
      <point x="277" y="529"/>
      <point x="357" y="710" type="curve"/>
      <point x="269" y="710" type="line"/>
      <point x="187" y="531"/>
      <point x="121" y="298"/>
    </contour>
  </outline>
</glyph>
<glyph name="multiply" format="2">
  <advance width="558"/>
  <unicode hex="00D7"/>
  <outline>
    <contour>
      <point x="132" y="93" type="line"/>
      <point x="487" y="448" type="line"/>
      <point x="425" y="510" type="line"/>
      <point x="70" y="155" type="line"/>
    </contour>
    <contour>
      <point x="425" y="93" type="line"/>
      <point x="488" y="156" type="line"/>
      <point x="133" y="511" type="line"/>
      <point x="70" y="448" type="line"/>
    </contour>
  </outline>
</glyph>
<glyph name="Oslash" format="2">
  <advance width="680"/>
  <unicode hex="00D8"/>
  <anchor x="340" y="0" name="bottom"/>
  <anchor x="430" y="0" name="ogonek"/>
  <anchor x="340" y="710" name="top"/>
  <anchor x="493" y="679" name="topright"/>
  <outline>
    <contour>
      <point x="52" y="-86" type="line"/>
      <point x="144" y="-86" type="line"/>
      <point x="628" y="790" type="line"/>
      <point x="628" y="796" type="line"/>
      <point x="536" y="796" type="line"/>
      <point x="52" y="-80" type="line"/>
    </contour>
    <component base="O"/>
  </outline>
</glyph>
<glyph name="Thorn" format="2">
  <advance width="684"/>
  <unicode hex="00DE"/>
  <anchor x="336" y="0" name="bottom"/>
  <anchor x="336" y="710" name="top"/>
  <outline>
    <contour>
      <point x="100" y="710" type="line"/>
      <point x="100" y="0" type="line"/>
      <point x="198" y="0" type="line"/>
      <point x="198" y="710" type="line"/>
    </contour>
    <contour>
      <point x="197" y="231" type="curve"/>
      <point x="197" y="143" type="line"/>
      <point x="264" y="143"/>
      <point x="320" y="143"/>
      <point x="373" y="143" type="curve" smooth="yes"/>
      <point x="531" y="143"/>
      <point x="608" y="231"/>
      <point x="608" y="367" type="curve" smooth="yes"/>
      <point x="608" y="503"/>
      <point x="535" y="591"/>
      <point x="373" y="591" type="curve" smooth="yes"/>
      <point x="333" y="591"/>
      <point x="271" y="591"/>
      <point x="197" y="591" type="curve"/>
      <point x="197" y="503" type="line"/>
      <point x="272" y="503"/>
      <point x="331" y="503"/>
      <point x="373" y="503" type="curve" smooth="yes"/>
      <point x="467" y="503"/>
      <point x="512" y="449"/>
      <point x="512" y="367" type="curve" smooth="yes"/>
      <point x="512" y="289"/>
      <point x="467" y="231"/>
      <point x="373" y="231" type="curve" smooth="yes"/>
      <point x="320" y="231"/>
      <point x="265" y="231"/>
    </contour>
  </outline>
</glyph>
<glyph name="germandbls" format="2">
  <advance width="679"/>
  <unicode hex="00DF"/>
  <outline>
    <contour>
      <point x="636" y="288"/>
      <point x="531" y="351" type="curve" smooth="yes"/>
      <point x="471" y="387"/>
      <point x="392" y="395"/>
      <point x="391" y="426" type="curve" smooth="yes"/>
      <point x="390" y="458"/>
      <point x="474" y="476"/>
      <point x="505" y="569" type="curve" smooth="yes"/>
      <point x="534" y="655"/>
      <point x="464" y="766"/>
      <point x="324" y="766" type="curve" smooth="yes"/>
      <point x="234" y="766"/>
      <point x="100" y="730"/>
      <point x="100" y="535" type="curve" smooth="yes"/>
      <point x="100" y="0" type="line"/>
      <point x="197" y="0" type="line"/>
      <point x="197" y="515" type="line" smooth="yes"/>
      <point x="197" y="638"/>
      <point x="256" y="675"/>
      <point x="333" y="669" type="curve" smooth="yes"/>
      <point x="413" y="663"/>
      <point x="428" y="592"/>
      <point x="384" y="543" type="curve" smooth="yes"/>
      <point x="358" y="514"/>
      <point x="285" y="478"/>
      <point x="285" y="415" type="curve" smooth="yes"/>
      <point x="285" y="361"/>
      <point x="350" y="332"/>
      <point x="432" y="303" type="curve" smooth="yes"/>
      <point x="518" y="273"/>
      <point x="525" y="199"/>
      <point x="503" y="158" type="curve" smooth="yes"/>
      <point x="475" y="106"/>
      <point x="408" y="67"/>
      <point x="285" y="115" type="curve"/>
      <point x="260" y="19" type="line"/>
      <point x="388" y="-27"/>
      <point x="515" y="-21"/>
      <point x="587" y="99" type="curve" smooth="yes"/>
      <point x="624" y="161"/>
    </contour>
  </outline>
</glyph>
<glyph name="ae" format="2">
  <advance width="736"/>
  <unicode hex="00E6"/>
  <anchor x="365" y="0" name="bottom"/>
  <anchor x="365" y="550" name="top"/>
  <outline>
    <contour>
      <point x="383" y="152" type="curve"/>
      <point x="382" y="405" type="line" smooth="yes"/>
      <point x="381" y="536"/>
      <point x="315" y="560"/>
      <point x="268" y="566" type="curve" smooth="yes"/>
      <point x="215" y="573"/>
      <point x="135" y="544"/>
      <point x="76" y="505" type="curve"/>
      <point x="124" y="437" type="line"/>
      <point x="171" y="468"/>
      <point x="229" y="485"/>
      <point x="261" y="480" type="curve" smooth="yes"/>
      <point x="313" y="472"/>
      <point x="311" y="406"/>
      <point x="311" y="334" type="curve"/>
      <point x="184" y="340"/>
      <point x="60" y="293"/>
      <point x="60" y="145" type="curve" smooth="yes"/>
      <point x="60" y="29"/>
      <point x="139" y="-16"/>
      <point x="201" y="-16" type="curve" smooth="yes"/>
      <point x="281" y="-16"/>
      <point x="338" y="34"/>
      <point x="359" y="101" type="curve"/>
      <point x="367" y="118"/>
      <point x="375" y="135"/>
    </contour>
    <contour>
      <point x="140" y="145" type="curve" smooth="yes"/>
      <point x="140" y="208"/>
      <point x="185" y="264"/>
      <point x="312" y="257" type="curve"/>
      <point x="312" y="156" type="line"/>
      <point x="305" y="105"/>
      <point x="262" y="67"/>
      <point x="212" y="67" type="curve" smooth="yes"/>
      <point x="168" y="67"/>
      <point x="140" y="101"/>
    </contour>
    <contour>
      <point x="506" y="-16" type="curve" smooth="yes"/>
      <point x="551" y="-16"/>
      <point x="596" y="-8"/>
      <point x="650" y="41" type="curve"/>
      <point x="605" y="104" type="line"/>
      <point x="571" y="75"/>
      <point x="544" y="65"/>
      <point x="506" y="65" type="curve" smooth="yes"/>
      <point x="432" y="65"/>
      <point x="388" y="142"/>
      <point x="392" y="238" type="curve"/>
      <point x="653" y="238" type="line"/>
      <point x="682" y="403"/>
      <point x="634" y="566"/>
      <point x="494" y="566" type="curve" smooth="yes"/>
      <point x="393" y="566"/>
      <point x="315" y="465"/>
      <point x="315" y="273" type="curve" smooth="yes"/>
      <point x="315" y="124"/>
      <point x="370" y="-16"/>
    </contour>
    <contour>
      <point x="391" y="312" type="line"/>
      <point x="392" y="420"/>
      <point x="435" y="484"/>
      <point x="493" y="484" type="curve" smooth="yes"/>
      <point x="561" y="484"/>
      <point x="594" y="403"/>
      <point x="586" y="312" type="curve"/>
    </contour>
  </outline>
</glyph>
<glyph name="eth" format="2">
  <advance width="632"/>
  <unicode hex="00F0"/>
  <anchor x="318" y="0" name="bottom"/>
  <anchor x="318" y="750" name="top"/>
  <outline>
    <contour>
      <point x="441" y="208" type="curve" smooth="yes"/>
      <point x="441" y="130"/>
      <point x="386" y="67"/>
      <point x="308" y="67" type="curve" smooth="yes"/>
      <point x="222" y="67"/>
      <point x="175" y="130"/>
      <point x="175" y="208" type="curve" smooth="yes"/>
      <point x="175" y="303"/>
      <point x="222" y="369"/>
      <point x="308" y="369" type="curve" smooth="yes"/>
      <point x="386" y="369"/>
      <point x="441" y="303"/>
    </contour>
    <contour>
      <point x="80" y="208" type="curve" smooth="yes"/>
      <point x="80" y="79"/>
      <point x="171" y="-16"/>
      <point x="309" y="-16" type="curve" smooth="yes"/>
      <point x="498" y="-16"/>
      <point x="558" y="157"/>
      <point x="542" y="322" type="curve" smooth="yes"/>
      <point x="529" y="459"/>
      <point x="467" y="623"/>
      <point x="210" y="766" type="curve"/>
      <point x="165" y="691" type="line"/>
      <point x="328" y="604"/>
      <point x="430" y="484"/>
      <point x="445" y="388" type="curve"/>
      <point x="417" y="424"/>
      <point x="362" y="455"/>
      <point x="296" y="455" type="curve" smooth="yes"/>
      <point x="168" y="455"/>
      <point x="80" y="348"/>
    </contour>
    <contour>
      <point x="165" y="550" type="line"/>
      <point x="208" y="491" type="line"/>
      <point x="491" y="695" type="line"/>
      <point x="447" y="755" type="line"/>
    </contour>
  </outline>
</glyph>
<glyph name="divide" format="2">
  <advance width="610"/>
  <unicode hex="00F7"/>
  <outline>
    <contour>
      <point x="545" y="347" type="line"/>
      <point x="65" y="347" type="line"/>
      <point x="65" y="258" type="line"/>
      <point x="545" y="258" type="line"/>
    </contour>
    <contour>
      <point x="304" y="77" type="curve" smooth="yes"/>
      <point x="334" y="77"/>
      <point x="360" y="102"/>
      <point x="360" y="132" type="curve" smooth="yes"/>
      <point x="360" y="162"/>
      <point x="334" y="187"/>
      <point x="304" y="187" type="curve" smooth="yes"/>
      <point x="275" y="187"/>
      <point x="250" y="162"/>
      <point x="250" y="132" type="curve" smooth="yes"/>
      <point x="250" y="102"/>
      <point x="274" y="77"/>
    </contour>
    <contour>
      <point x="304" y="418" type="curve" smooth="yes"/>
      <point x="334" y="418"/>
      <point x="360" y="443"/>
      <point x="360" y="473" type="curve" smooth="yes"/>
      <point x="360" y="503"/>
      <point x="334" y="528"/>
      <point x="304" y="528" type="curve" smooth="yes"/>
      <point x="275" y="528"/>
      <point x="250" y="503"/>
      <point x="250" y="473" type="curve" smooth="yes"/>
      <point x="250" y="443"/>
      <point x="274" y="418"/>
    </contour>
  </outline>
</glyph>
<glyph name="oslash" format="2">
  <advance width="622"/>
  <unicode hex="00F8"/>
  <anchor x="311" y="0" name="bottom"/>
  <anchor x="401" y="0" name="ogonek"/>
  <anchor x="311" y="550" name="top"/>
  <anchor x="451" y="523" name="topright"/>
  <outline>
    <contour>
      <point x="33" y="-86" type="line"/>
      <point x="125" y="-86" type="line"/>
      <point x="589" y="631" type="line"/>
      <point x="589" y="637" type="line"/>
      <point x="497" y="637" type="line"/>
      <point x="33" y="-80" type="line"/>
    </contour>
    <component base="o"/>
  </outline>
</glyph>
<glyph name="thorn" format="2">
  <advance width="615"/>
  <unicode hex="00FE"/>
  <outline>
    <contour>
      <point x="334" y="-16" type="curve" smooth="yes"/>
      <point x="476" y="-16"/>
      <point x="549" y="121"/>
      <point x="549" y="271" type="curve" smooth="yes"/>
      <point x="549" y="419"/>
      <point x="477" y="558"/>
      <point x="334" y="558" type="curve" smooth="yes"/>
      <point x="198" y="558"/>
      <point x="128" y="399"/>
      <point x="128" y="271" type="curve" smooth="yes"/>
      <point x="128" y="131"/>
      <point x="201" y="-16"/>
    </contour>
    <contour>
      <point x="323" y="71" type="curve" smooth="yes"/>
      <point x="229" y="71"/>
      <point x="173" y="174"/>
      <point x="173" y="271" type="curve" smooth="yes"/>
      <point x="173" y="356"/>
      <point x="228" y="470"/>
      <point x="323" y="470" type="curve" smooth="yes"/>
      <point x="422" y="470"/>
      <point x="455" y="361"/>
      <point x="455" y="271" type="curve" smooth="yes"/>
      <point x="455" y="179"/>
      <point x="422" y="71"/>
    </contour>
    <contour>
      <point x="100" y="750" type="line"/>
      <point x="100" y="-200" type="line"/>
      <point x="194" y="-200" type="line"/>
      <point x="194" y="750" type="line"/>
    </contour>
  </outline>
</glyph>
<glyph name="dcaron" format="2">
  <advance width="725"/>
  <unicode hex="010F"/>
  <anchor x="314" y="0" name="bottom"/>
  <anchor x="314" y="750" name="top"/>
  <outline>
    <contour>
      <point x="508" y="46" type="line"/>
      <point x="508" y="750" type="line"/>
      <point x="413" y="750" type="line"/>
      <point x="413" y="4" type="line"/>
    </contour>
    <contour>
      <point x="500" y="43" type="curve"/>
      <point x="450" y="106" type="line"/>
      <point x="412" y="80"/>
      <point x="373" y="70"/>
      <point x="322" y="70" type="curve" smooth="yes"/>
      <point x="230" y="70"/>
      <point x="159" y="150"/>
      <point x="159" y="273" type="curve" smooth="yes"/>
      <point x="159" y="396"/>
      <point x="208" y="470"/>
      <point x="316" y="470" type="curve" smooth="yes"/>
      <point x="370" y="470"/>
      <point x="424" y="434"/>
      <point x="432" y="392" type="curve"/>
      <point x="475" y="392" type="line"/>
      <point x="468" y="481"/>
      <point x="396" y="558"/>
      <point x="296" y="558" type="curve" smooth="yes"/>
      <point x="172" y="558"/>
      <point x="64" y="456"/>
      <point x="64" y="273" type="curve" smooth="yes"/>
      <point x="64" y="100"/>
      <point x="183" y="-17"/>
      <point x="322" y="-17" type="curve" smooth="yes"/>
      <point x="394" y="-17"/>
      <point x="454" y="13"/>
    </contour>
    <contour>
      <point x="508" y="131" type="curve"/>
      <point x="420" y="70" type="line"/>
      <point x="439" y="16"/>
      <point x="482" y="-12"/>
      <point x="572" y="-8" type="curve"/>
      <point x="572" y="73" type="line"/>
      <point x="529" y="75"/>
      <point x="508" y="95"/>
    </contour>
    <component base="caroncomb.alt" xOffset="62"/>
  </outline>
</glyph>
<glyph name="Dcroat" format="2">
  <advance width="718"/>
  <unicode hex="0110"/>
  <anchor x="343" y="0" name="bottom"/>
  <anchor x="343" y="710" name="top"/>
  <outline>
    <contour>
      <point x="50" y="391" type="line"/>
      <point x="50" y="305" type="line"/>
      <point x="381" y="305" type="line"/>
      <point x="381" y="391" type="line"/>
    </contour>
    <component base="D" xOffset="26"/>
  </outline>
</glyph>
<glyph name="dcroat" format="2">
  <advance width="670"/>
  <unicode hex="0111"/>
  <anchor x="314" y="0" name="bottom"/>
  <anchor x="314" y="275" name="center"/>
  <anchor x="314" y="750" name="top"/>
  <anchor x="508" y="750" name="topright"/>
  <outline>
    <contour>
      <point x="508" y="46" type="line"/>
      <point x="508" y="750" type="line"/>
      <point x="413" y="750" type="line"/>
      <point x="413" y="4" type="line"/>
    </contour>
    <contour>
      <point x="500" y="43" type="curve"/>
      <point x="450" y="106" type="line"/>
      <point x="412" y="80"/>
      <point x="373" y="70"/>
      <point x="322" y="70" type="curve" smooth="yes"/>
      <point x="231" y="70"/>
      <point x="159" y="147"/>
      <point x="159" y="267" type="curve" smooth="yes"/>
      <point x="159" y="387"/>
      <point x="211" y="458"/>
      <point x="316" y="458" type="curve" smooth="yes"/>
      <point x="366" y="458"/>
      <point x="424" y="422"/>
      <point x="432" y="380" type="curve"/>
      <point x="475" y="380" type="line"/>
      <point x="468" y="469"/>
      <point x="391" y="546"/>
      <point x="296" y="546" type="curve" smooth="yes"/>
      <point x="175" y="546"/>
      <point x="64" y="447"/>
      <point x="64" y="267" type="curve" smooth="yes"/>
      <point x="64" y="97"/>
      <point x="184" y="-17"/>
      <point x="322" y="-17" type="curve" smooth="yes"/>
      <point x="394" y="-17"/>
      <point x="454" y="13"/>
    </contour>
    <contour>
      <point x="508" y="131" type="curve"/>
      <point x="420" y="70" type="line"/>
      <point x="439" y="16"/>
      <point x="482" y="-12"/>
      <point x="572" y="-8" type="curve"/>
      <point x="572" y="73" type="line"/>
      <point x="529" y="75"/>
      <point x="508" y="95"/>
    </contour>
    <contour>
      <point x="268" y="677" type="line"/>
      <point x="268" y="603" type="line"/>
      <point x="594" y="603" type="line"/>
      <point x="594" y="677" type="line"/>
    </contour>
  </outline>
</glyph>
<glyph name="Hbar" format="2">
  <advance width="752"/>
  <unicode hex="0126"/>
  <anchor x="376" y="0" name="bottom"/>
  <anchor x="376" y="710" name="top"/>
  <outline>
    <contour>
      <point x="40" y="604" type="line"/>
      <point x="40" y="530" type="line"/>
      <point x="712" y="530" type="line"/>
      <point x="712" y="604" type="line"/>
    </contour>
    <component base="H" xOffset="10"/>
  </outline>
</glyph>
<glyph name="hbar" format="2">
  <advance width="664"/>
  <unicode hex="0127"/>
  <anchor x="330" y="0" name="bottom"/>
  <anchor x="330" y="750" name="top"/>
  <outline>
    <contour>
      <point x="134" y="750" type="line"/>
      <point x="134" y="0" type="line"/>
      <point x="229" y="0" type="line"/>
      <point x="229" y="750" type="line"/>
    </contour>
    <contour>
      <point x="216" y="467" type="curve"/>
      <point x="216" y="373" type="line"/>
      <point x="285" y="427"/>
      <point x="339" y="448"/>
      <point x="386" y="448" type="curve" smooth="yes"/>
      <point x="439" y="448"/>
      <point x="465" y="417"/>
      <point x="465" y="340" type="curve" smooth="yes"/>
      <point x="465" y="220"/>
      <point x="465" y="120"/>
      <point x="465" y="0" type="curve"/>
      <point x="564" y="0" type="line"/>
      <point x="564" y="129"/>
      <point x="564" y="237"/>
      <point x="564" y="366" type="curve" smooth="yes"/>
      <point x="564" y="500"/>
      <point x="500" y="544"/>
      <point x="419" y="545" type="curve" smooth="yes"/>
      <point x="348" y="546"/>
      <point x="275" y="510"/>
    </contour>
    <contour>
      <point x="60" y="677" type="line"/>
      <point x="60" y="603" type="line"/>
      <point x="386" y="603" type="line"/>
      <point x="386" y="677" type="line"/>
    </contour>
  </outline>
</glyph>
<glyph name="idotless" format="2">
  <advance width="550"/>
  <unicode hex="0131"/>
  <anchor x="276" y="0" name="bottom"/>
  <anchor x="485" y="0" name="ogonek"/>
  <anchor x="268" y="550" name="top"/>
  <outline>
    <contour>
      <point x="122" y="509" type="line"/>
      <point x="122" y="421" type="line"/>
      <point x="345" y="421" type="line"/>
      <point x="345" y="509" type="line"/>
    </contour>
    <contour>
      <point x="345" y="509" type="line"/>
      <point x="247" y="509" type="line"/>
      <point x="247" y="0" type="line"/>
      <point x="345" y="0" type="line"/>
    </contour>
    <contour>
      <point x="73" y="88" type="line"/>
      <point x="73" y="0" type="line"/>
      <point x="485" y="0" type="line"/>
      <point x="485" y="88" type="line"/>
    </contour>
  </outline>
</glyph>
<glyph name="Lslash" format="2">
  <advance width="658"/>
  <unicode hex="0141"/>
  <anchor x="363" y="0" name="bottom"/>
  <anchor x="242" y="355" name="center"/>
  <anchor x="193" y="710" name="top"/>
  <anchor x="242" y="710" name="topright"/>
  <outline>
    <contour>
      <point x="446" y="540" type="line"/>
      <point x="440" y="540" type="line"/>
      <point x="62" y="317" type="line"/>
      <point x="62" y="225" type="line"/>
      <point x="68" y="225" type="line"/>
      <point x="446" y="448" type="line"/>
    </contour>
    <component base="L" xOffset="44"/>
  </outline>
</glyph>
<glyph name="Eng" format="2">
  <advance width="768"/>
  <unicode hex="014A"/>
  <anchor x="384" y="0" name="bottom"/>
  <anchor x="384" y="710" name="top"/>
  <outline>
    <contour>
      <point x="454" y="-113" type="line"/>
      <point x="454" y="-200" type="line"/>
      <point x="514" y="-200" type="line" smooth="yes"/>
      <point x="668" y="-200"/>
      <point x="668" y="-124"/>
      <point x="668" y="7" type="curve"/>
      <point x="570" y="7" type="line"/>
      <point x="570" y="-100"/>
      <point x="568" y="-113"/>
      <point x="490" y="-113" type="curve" smooth="yes"/>
    </contour>
    <contour>
      <point x="664" y="0" type="line"/>
      <point x="218" y="710" type="line"/>
      <point x="104" y="710" type="line"/>
      <point x="596" y="-66" type="line"/>
    </contour>
    <contour>
      <point x="100" y="710" type="line"/>
      <point x="100" y="0" type="line"/>
      <point x="198" y="0" type="line"/>
      <point x="198" y="710" type="line"/>
    </contour>
    <contour>
      <point x="570" y="710" type="line"/>
      <point x="570" y="0" type="line"/>
      <point x="668" y="0" type="line"/>
      <point x="668" y="710" type="line"/>
    </contour>
  </outline>
</glyph>
<glyph name="eng" format="2">
  <advance width="640"/>
  <unicode hex="014B"/>
  <anchor x="321" y="0" name="bottom"/>
  <anchor x="321" y="550" name="top"/>
  <outline>
    <contour>
      <point x="98" y="554" type="line"/>
      <point x="98" y="0" type="line"/>
      <point x="194" y="0" type="line"/>
      <point x="194" y="394" type="line"/>
      <point x="263" y="448"/>
      <point x="317" y="470"/>
      <point x="364" y="470" type="curve" smooth="yes"/>
      <point x="417" y="470"/>
      <point x="443" y="438"/>
      <point x="443" y="361" type="curve" smooth="yes"/>
      <point x="443" y="241"/>
      <point x="443" y="120"/>
      <point x="443" y="0" type="curve"/>
      <point x="542" y="0" type="line"/>
      <point x="542" y="129"/>
      <point x="542" y="248"/>
      <point x="542" y="377" type="curve" smooth="yes"/>
      <point x="542" y="515"/>
      <point x="474" y="565"/>
      <point x="398" y="566" type="curve" smooth="yes"/>
      <point x="330" y="567"/>
      <point x="251" y="532"/>
      <point x="193" y="487" type="curve"/>
      <point x="184" y="554" type="line"/>
    </contour>
    <contour>
      <point x="328" y="-114" type="line"/>
      <point x="328" y="-200" type="line"/>
      <point x="392" y="-200" type="line" smooth="yes"/>
      <point x="542" y="-200"/>
      <point x="542" y="-118"/>
      <point x="542" y="7" type="curve"/>
      <point x="443" y="7" type="line"/>
      <point x="443" y="-100"/>
      <point x="443" y="-114"/>
      <point x="365" y="-114" type="curve" smooth="yes"/>
    </contour>
  </outline>
</glyph>
<glyph name="OE" format="2">
  <advance width="775"/>
  <unicode hex="0152"/>
  <anchor x="367" y="0" name="bottom"/>
  <anchor x="367" y="710" name="top"/>
  <outline>
    <contour>
      <point x="363" y="572" type="curve"/>
      <point x="412" y="644" type="line"/>
      <point x="382" y="686"/>
      <point x="341" y="726"/>
      <point x="275" y="726" type="curve" smooth="yes"/>
      <point x="133" y="726"/>
      <point x="60" y="580"/>
      <point x="60" y="354" type="curve" smooth="yes"/>
      <point x="60" y="128"/>
      <point x="133" y="-16"/>
      <point x="275" y="-16" type="curve" smooth="yes"/>
      <point x="338" y="-16"/>
      <point x="377" y="17"/>
      <point x="408" y="62" type="curve"/>
      <point x="366" y="147" type="line"/>
      <point x="355" y="102"/>
      <point x="322" y="76"/>
      <point x="278" y="76" type="curve" smooth="yes"/>
      <point x="197" y="76"/>
      <point x="155" y="200"/>
      <point x="155" y="355" type="curve" smooth="yes"/>
      <point x="155" y="509"/>
      <point x="200" y="634"/>
      <point x="278" y="634" type="curve" smooth="yes"/>
      <point x="321" y="634"/>
      <point x="352" y="611"/>
    </contour>
    <contour>
      <point x="395" y="710" type="line"/>
      <point x="355" y="660" type="line"/>
      <point x="355" y="50" type="line"/>
      <point x="395" y="0" type="line"/>
      <point x="441" y="0" type="line"/>
      <point x="441" y="710" type="line"/>
    </contour>
    <contour>
      <point x="678" y="395" type="line"/>
      <point x="384" y="395" type="line"/>
      <point x="384" y="307" type="line"/>
      <point x="678" y="307" type="line"/>
    </contour>
    <contour>
      <point x="702" y="710" type="line"/>
      <point x="408" y="710" type="line"/>
      <point x="408" y="625" type="line"/>
      <point x="702" y="625" type="line"/>
    </contour>
    <contour>
      <point x="710" y="85" type="line"/>
      <point x="424" y="85" type="line"/>
      <point x="424" y="0" type="line"/>
      <point x="710" y="0" type="line"/>
    </contour>
  </outline>
</glyph>
<glyph name="oe" format="2">
  <advance width="755"/>
  <unicode hex="0153"/>
  <anchor x="329" y="0" name="bottom"/>
  <anchor x="329" y="550" name="top"/>
  <outline>
    <contour>
      <point x="237" y="-16" type="curve" smooth="yes"/>
      <point x="369" y="-16"/>
      <point x="408" y="131"/>
      <point x="408" y="275" type="curve" smooth="yes"/>
      <point x="408" y="418"/>
      <point x="369" y="566"/>
      <point x="237" y="566" type="curve" smooth="yes"/>
      <point x="100" y="566"/>
      <point x="60" y="420"/>
      <point x="60" y="275" type="curve" smooth="yes"/>
      <point x="60" y="129"/>
      <point x="100" y="-16"/>
    </contour>
    <contour>
      <point x="237" y="66" type="curve" smooth="yes"/>
      <point x="151" y="66"/>
      <point x="139" y="206"/>
      <point x="139" y="276" type="curve" smooth="yes"/>
      <point x="139" y="345"/>
      <point x="150" y="485"/>
      <point x="237" y="485" type="curve" smooth="yes"/>
      <point x="319" y="485"/>
      <point x="330" y="345"/>
      <point x="330" y="276" type="curve" smooth="yes"/>
      <point x="330" y="206"/>
      <point x="319" y="66"/>
    </contour>
    <contour>
      <point x="525" y="-16" type="curve" smooth="yes"/>
      <point x="570" y="-16"/>
      <point x="615" y="-8"/>
      <point x="669" y="41" type="curve"/>
      <point x="624" y="104" type="line"/>
      <point x="590" y="75"/>
      <point x="563" y="65"/>
      <point x="525" y="65" type="curve" smooth="yes"/>
      <point x="451" y="65"/>
      <point x="407" y="142"/>
      <point x="411" y="238" type="curve"/>
      <point x="672" y="238" type="line"/>
      <point x="701" y="403"/>
      <point x="653" y="566"/>
      <point x="513" y="566" type="curve" smooth="yes"/>
      <point x="412" y="566"/>
      <point x="334" y="465"/>
      <point x="334" y="273" type="curve" smooth="yes"/>
      <point x="334" y="124"/>
      <point x="389" y="-16"/>
    </contour>
    <contour>
      <point x="410" y="312" type="line"/>
      <point x="411" y="420"/>
      <point x="454" y="484"/>
      <point x="512" y="484" type="curve" smooth="yes"/>
      <point x="580" y="484"/>
      <point x="613" y="403"/>
      <point x="605" y="312" type="curve"/>
    </contour>
  </outline>
</glyph>
<glyph name="Tcedilla" format="2">
  <advance width="660"/>
  <unicode hex="0162"/>
  <anchor x="330" y="-238" name="bottom"/>
  <anchor x="330" y="710" name="top"/>
  <outline>
    <contour>
      <point x="374" y="27" type="line"/>
      <point x="310" y="27" type="line"/>
      <point x="262" y="-71" type="line"/>
      <point x="287" y="-106" type="line"/>
      <point x="359" y="-82"/>
      <point x="395" y="-102"/>
      <point x="394" y="-131" type="curve" smooth="yes"/>
      <point x="393" y="-164"/>
      <point x="352" y="-178"/>
      <point x="322" y="-178" type="curve" smooth="yes"/>
      <point x="296" y="-178"/>
      <point x="257" y="-170"/>
      <point x="223" y="-149" type="curve"/>
      <point x="198" y="-202" type="line"/>
      <point x="230" y="-223"/>
      <point x="274" y="-238"/>
      <point x="320" y="-238" type="curve" smooth="yes"/>
      <point x="398" y="-238"/>
      <point x="459" y="-197"/>
      <point x="461" y="-127" type="curve" smooth="yes"/>
      <point x="462" y="-87"/>
      <point x="419" y="-34"/>
      <point x="334" y="-46" type="curve"/>
    </contour>
    <component base="T"/>
  </outline>
</glyph>
<glyph name="Tbar" format="2">
  <advance width="660"/>
  <unicode hex="0166"/>
  <anchor x="330" y="0" name="bottom"/>
  <anchor x="330" y="710" name="top"/>
  <outline>
    <contour>
      <point x="124" y="404" type="line"/>
      <point x="124" y="330" type="line"/>
      <point x="536" y="330" type="line"/>
      <point x="536" y="404" type="line"/>
    </contour>
    <component base="T"/>
  </outline>
</glyph>
<glyph name="tbar" format="2">
  <advance width="587"/>
  <unicode hex="0167"/>
  <anchor x="353" y="0" name="bottom"/>
  <anchor x="292" y="275" name="center"/>
  <anchor x="292" y="750" name="topright"/>
  <outline>
    <contour>
      <point x="80" y="354" type="line"/>
      <point x="80" y="280" type="line"/>
      <point x="430" y="280" type="line"/>
      <point x="430" y="354" type="line"/>
    </contour>
    <component base="t"/>
  </outline>
</glyph>
<glyph name="Schwa" format="2">
  <advance width="667"/>
  <unicode hex="018F"/>
  <outline>
    <contour>
      <point x="108" y="675" type="curve"/>
      <point x="154" y="592" type="line"/>
      <point x="217" y="624"/>
      <point x="267" y="630"/>
      <point x="300" y="630" type="curve" smooth="yes"/>
      <point x="408" y="630"/>
      <point x="485" y="541"/>
      <point x="493" y="397" type="curve"/>
      <point x="81" y="397" type="line"/>
      <point x="38" y="189"/>
      <point x="117" y="-16"/>
      <point x="324" y="-16" type="curve" smooth="yes"/>
      <point x="505" y="-16"/>
      <point x="597" y="104"/>
      <point x="597" y="358" type="curve" smooth="yes"/>
      <point x="597" y="592"/>
      <point x="486" y="726"/>
      <point x="307" y="726" type="curve" smooth="yes"/>
      <point x="252" y="726"/>
      <point x="193" y="720"/>
    </contour>
    <contour>
      <point x="493" y="305" type="line"/>
      <point x="495" y="165"/>
      <point x="439" y="84"/>
      <point x="327" y="84" type="curve" smooth="yes"/>
      <point x="218" y="84"/>
      <point x="161" y="165"/>
      <point x="166" y="305" type="curve"/>
    </contour>
  </outline>
</glyph>
<glyph name="jdotless" format="2">
  <advance width="502"/>
  <unicode hex="0237"/>
  <anchor x="309" y="-200" name="bottom"/>
  <anchor x="309" y="550" name="top"/>
  <outline>
    <contour>
      <point x="113" y="513" type="line"/>
      <point x="113" y="425" type="line"/>
      <point x="402" y="425" type="line"/>
      <point x="402" y="513" type="line"/>
    </contour>
    <contour>
      <point x="402" y="513" type="line"/>
      <point x="304" y="513" type="line"/>
      <point x="304" y="7" type="line" smooth="yes"/>
      <point x="304" y="-76"/>
      <point x="300" y="-110"/>
      <point x="223" y="-110" type="curve" smooth="yes"/>
      <point x="40" y="-110" type="line"/>
      <point x="40" y="-200" type="line"/>
      <point x="244" y="-200" type="line" smooth="yes"/>
      <point x="395" y="-200"/>
      <point x="402" y="-129"/>
      <point x="402" y="7" type="curve" smooth="yes"/>
    </contour>
  </outline>
</glyph>
<glyph name="schwa" format="2">
  <advance width="643"/>
  <unicode hex="0259"/>
  <outline>
    <contour>
      <point x="124" y="530" type="curve"/>
      <point x="157" y="453" type="line"/>
      <point x="214" y="475"/>
      <point x="264" y="480"/>
      <point x="291" y="480" type="curve" smooth="yes"/>
      <point x="382" y="480"/>
      <point x="458" y="436"/>
      <point x="473" y="322" type="curve"/>
      <point x="92" y="322" type="line"/>
      <point x="48" y="161"/>
      <point x="122" y="-16"/>
      <point x="316" y="-16" type="curve" smooth="yes"/>
      <point x="472" y="-16"/>
      <point x="571" y="89"/>
      <point x="571" y="277" type="curve" smooth="yes"/>
      <point x="571" y="463"/>
      <point x="460" y="566"/>
      <point x="301" y="566" type="curve" smooth="yes"/>
      <point x="254" y="566"/>
      <point x="201" y="562"/>
    </contour>
    <contour>
      <point x="477" y="237" type="line"/>
      <point x="477" y="144"/>
      <point x="419" y="72"/>
      <point x="319" y="72" type="curve" smooth="yes"/>
      <point x="215" y="72"/>
      <point x="159" y="144"/>
      <point x="167" y="237" type="curve"/>
    </contour>
  </outline>
</glyph>
<glyph name="ringhalfright" format="2">
  <advance width="372"/>
  <unicode hex="02BE"/>
  <outline>
    <contour>
      <point x="100" y="692" type="line"/>
      <point x="172" y="692"/>
      <point x="209" y="649"/>
      <point x="209" y="595" type="curve" smooth="yes"/>
      <point x="209" y="546"/>
      <point x="172" y="500"/>
      <point x="100" y="500" type="curve"/>
      <point x="100" y="442" type="line"/>
      <point x="211" y="442"/>
      <point x="272" y="508"/>
      <point x="272" y="596" type="curve" smooth="yes"/>
      <point x="272" y="684"/>
      <point x="211" y="750"/>
      <point x="100" y="750" type="curve"/>
    </contour>
  </outline>
</glyph>
<glyph name="ringhalfleft" format="2">
  <advance width="372"/>
  <unicode hex="02BF"/>
  <outline>
    <contour>
  </contour>
    <contour>
      <point x="272" y="692" type="curve"/>
      <point x="272" y="750" type="line"/>
      <point x="161" y="750"/>
      <point x="100" y="684"/>
      <point x="100" y="596" type="curve" smooth="yes"/>
      <point x="100" y="508"/>
      <point x="161" y="442"/>
      <point x="272" y="442" type="curve"/>
      <point x="272" y="500" type="line"/>
      <point x="200" y="500"/>
      <point x="163" y="546"/>
      <point x="163" y="595" type="curve" smooth="yes"/>
      <point x="163" y="649"/>
      <point x="200" y="692"/>
    </contour>
  </outline>
</glyph>
<glyph name="verticallinemod" format="2">
  <advance width="300"/>
  <unicode hex="02C8"/>
  <outline>
    <contour>
      <point x="200" y="750" type="line"/>
      <point x="100" y="750" type="line"/>
      <point x="100" y="390" type="line"/>
      <point x="200" y="390" type="line"/>
    </contour>
  </outline>
</glyph>
<glyph name="verticallinelowmod" format="2">
  <advance width="300"/>
  <unicode hex="02CC"/>
  <outline>
    <contour>
      <point x="200" y="160" type="line"/>
      <point x="100" y="160" type="line"/>
      <point x="100" y="-200" type="line"/>
      <point x="200" y="-200" type="line"/>
    </contour>
  </outline>
</glyph>
<glyph name="dieresisbelowcomb" format="2">
  <unicode hex="0324"/>
  <anchor x="310" y="0" name="_bottom"/>
  <outline>
    <contour>
      <point x="153" y="-54" type="line"/>
      <point x="153" y="-167" type="line"/>
      <point x="266" y="-167" type="line"/>
      <point x="266" y="-54" type="line"/>
    </contour>
    <contour>
      <point x="354" y="-54" type="line"/>
      <point x="354" y="-167" type="line"/>
      <point x="467" y="-167" type="line"/>
      <point x="467" y="-54" type="line"/>
    </contour>
  </outline>
</glyph>
<glyph name="brevebelowcomb" format="2">
  <unicode hex="032E"/>
  <anchor x="310" y="0" name="_bottom"/>
  <outline>
    <contour>
      <point x="471" y="-67" type="curve"/>
      <point x="395" y="-67" type="line"/>
      <point x="394" y="-126"/>
      <point x="360" y="-163"/>
      <point x="310" y="-163" type="curve" smooth="yes"/>
      <point x="260" y="-163"/>
      <point x="226" y="-126"/>
      <point x="225" y="-67" type="curve"/>
      <point x="149" y="-67" type="line"/>
      <point x="150" y="-161"/>
      <point x="214" y="-230"/>
      <point x="310" y="-230" type="curve" smooth="yes"/>
      <point x="406" y="-230"/>
      <point x="470" y="-161"/>
    </contour>
  </outline>
</glyph>
<glyph name="mu" format="2">
  <advance width="632"/>
  <unicode hex="03BC"/>
  <outline>
    <contour>
      <point x="446" y="0" type="line"/>
      <point x="542" y="0" type="line"/>
      <point x="542" y="550" type="line"/>
      <point x="446" y="550" type="line"/>
    </contour>
    <contour>
      <point x="159" y="550" type="line"/>
      <point x="159" y="266" type="line"/>
      <point x="159" y="92"/>
      <point x="155" y="-16"/>
      <point x="278" y="-16" type="curve" smooth="yes"/>
      <point x="351" y="-16"/>
      <point x="405" y="25"/>
      <point x="465" y="74" type="curve"/>
      <point x="465" y="167" type="line"/>
      <point x="393" y="103"/>
      <point x="340" y="81"/>
      <point x="289" y="81" type="curve" smooth="yes"/>
      <point x="211" y="81"/>
      <point x="199" y="155"/>
      <point x="199" y="257" type="curve" smooth="yes"/>
      <point x="199" y="550" type="line"/>
    </contour>
    <contour>
      <point x="100" y="-200" type="line"/>
      <point x="196" y="-200" type="line"/>
      <point x="196" y="550" type="line"/>
      <point x="100" y="550" type="line"/>
    </contour>
  </outline>
</glyph>
<glyph name="baht" format="2">
  <advance width="625"/>
  <unicode hex="0E3F"/>
  <outline>
    <contour>
      <point x="100" y="681" type="line"/>
      <point x="100" y="29" type="line"/>
      <point x="183" y="29" type="line"/>
      <point x="183" y="681" type="line"/>
    </contour>
    <contour>
      <point x="182" y="400" type="curve"/>
      <point x="182" y="337" type="line"/>
      <point x="247" y="337"/>
      <point x="266" y="337"/>
      <point x="317" y="337" type="curve" smooth="yes"/>
      <point x="432" y="337"/>
      <point x="531" y="406"/>
      <point x="531" y="517" type="curve" smooth="yes"/>
      <point x="531" y="622"/>
      <point x="436" y="681"/>
      <point x="317" y="681" type="curve" smooth="yes"/>
      <point x="275" y="681"/>
      <point x="254" y="681"/>
      <point x="182" y="681" type="curve"/>
      <point x="182" y="603" type="line"/>
      <point x="254" y="603"/>
      <point x="276" y="603"/>
      <point x="317" y="603" type="curve" smooth="yes"/>
      <point x="378" y="603"/>
      <point x="446" y="574"/>
      <point x="446" y="506" type="curve" smooth="yes"/>
      <point x="446" y="428"/>
      <point x="372" y="400"/>
      <point x="317" y="400" type="curve" smooth="yes"/>
      <point x="266" y="400"/>
      <point x="248" y="400"/>
    </contour>
    <contour>
      <point x="182" y="107" type="curve"/>
      <point x="182" y="29" type="line"/>
      <point x="247" y="29"/>
      <point x="271" y="29"/>
      <point x="322" y="29" type="curve" smooth="yes"/>
      <point x="438" y="29"/>
      <point x="560" y="82"/>
      <point x="560" y="214" type="curve" smooth="yes"/>
      <point x="560" y="347"/>
      <point x="439" y="389"/>
      <point x="317" y="389" type="curve"/>
      <point x="278" y="389"/>
      <point x="254" y="389"/>
      <point x="182" y="389" type="curve"/>
      <point x="182" y="328" type="line"/>
      <point x="254" y="328"/>
      <point x="276" y="328"/>
      <point x="317" y="328" type="curve" smooth="yes"/>
      <point x="365" y="328"/>
      <point x="475" y="322"/>
      <point x="475" y="217" type="curve" smooth="yes"/>
      <point x="475" y="119"/>
      <point x="365" y="107"/>
      <point x="322" y="107" type="curve" smooth="yes"/>
      <point x="271" y="107"/>
      <point x="248" y="107"/>
    </contour>
    <contour>
      <point x="334" y="764" type="line"/>
      <point x="266" y="764" type="line"/>
      <point x="266" y="-61" type="line"/>
      <point x="334" y="-61" type="line"/>
    </contour>
  </outline>
</glyph>
<glyph name="Hcedilla" format="2">
  <advance width="732"/>
  <unicode hex="1E28"/>
  <anchor x="366" y="0" name="bottom"/>
  <anchor x="366" y="710" name="top"/>
  <outline>
    <contour>
      <point x="193" y="27" type="line"/>
      <point x="129" y="27" type="line"/>
      <point x="81" y="-71" type="line"/>
      <point x="106" y="-106" type="line"/>
      <point x="178" y="-82"/>
      <point x="214" y="-102"/>
      <point x="213" y="-131" type="curve" smooth="yes"/>
      <point x="212" y="-164"/>
      <point x="171" y="-178"/>
      <point x="141" y="-178" type="curve" smooth="yes"/>
      <point x="115" y="-178"/>
      <point x="76" y="-170"/>
      <point x="42" y="-149" type="curve"/>
      <point x="17" y="-202" type="line"/>
      <point x="49" y="-223"/>
      <point x="93" y="-238"/>
      <point x="139" y="-238" type="curve" smooth="yes"/>
      <point x="217" y="-238"/>
      <point x="278" y="-197"/>
      <point x="280" y="-127" type="curve" smooth="yes"/>
      <point x="281" y="-87"/>
      <point x="238" y="-34"/>
      <point x="153" y="-46" type="curve"/>
    </contour>
    <component base="H"/>
  </outline>
</glyph>
<glyph name="hcedilla" format="2">
  <advance width="682"/>
  <unicode hex="1E29"/>
  <anchor x="365" y="0" name="bottom"/>
  <anchor x="348" y="750" name="top"/>
  <outline>
    <contour>
      <point x="243" y="27" type="line"/>
      <point x="179" y="27" type="line"/>
      <point x="131" y="-71" type="line"/>
      <point x="156" y="-106" type="line"/>
      <point x="228" y="-82"/>
      <point x="264" y="-102"/>
      <point x="263" y="-131" type="curve" smooth="yes"/>
      <point x="262" y="-164"/>
      <point x="221" y="-178"/>
      <point x="191" y="-178" type="curve" smooth="yes"/>
      <point x="165" y="-178"/>
      <point x="126" y="-170"/>
      <point x="92" y="-149" type="curve"/>
      <point x="67" y="-202" type="line"/>
      <point x="99" y="-223"/>
      <point x="143" y="-238"/>
      <point x="189" y="-238" type="curve" smooth="yes"/>
      <point x="267" y="-238"/>
      <point x="328" y="-197"/>
      <point x="330" y="-127" type="curve" smooth="yes"/>
      <point x="331" y="-87"/>
      <point x="288" y="-34"/>
      <point x="203" y="-46" type="curve"/>
    </contour>
    <component base="h"/>
  </outline>
</glyph>
<glyph name="Germandbls" format="2">
  <advance width="692"/>
  <unicode hex="1E9E"/>
  <outline>
    <contour>
      <point x="342" y="630" type="curve" smooth="yes"/>
      <point x="254" y="630"/>
      <point x="195" y="584"/>
      <point x="195" y="460" type="curve" smooth="yes"/>
      <point x="195" y="0" type="line"/>
      <point x="100" y="0" type="line"/>
      <point x="100" y="480" type="line" smooth="yes"/>
      <point x="100" y="676"/>
      <point x="236" y="726"/>
      <point x="341" y="726" type="curve" smooth="yes"/>
      <point x="506" y="726"/>
      <point x="589" y="612"/>
      <point x="586" y="502" type="curve"/>
      <point x="445" y="375" type="line"/>
      <point x="517" y="355"/>
      <point x="578" y="311"/>
      <point x="602" y="255" type="curve" smooth="yes"/>
      <point x="632" y="185"/>
      <point x="619" y="93"/>
      <point x="551" y="39" type="curve" smooth="yes"/>
      <point x="491" y="-8"/>
      <point x="391" y="-18"/>
      <point x="282" y="12" type="curve"/>
      <point x="282" y="108" type="line"/>
      <point x="362" y="83"/>
      <point x="432" y="80"/>
      <point x="474" y="105" type="curve" smooth="yes"/>
      <point x="521" y="133"/>
      <point x="527" y="194"/>
      <point x="504" y="234" type="curve" smooth="yes"/>
      <point x="479" y="277"/>
      <point x="422" y="303"/>
      <point x="337" y="315" type="curve"/>
      <point x="337" y="396" type="line"/>
      <point x="477" y="531" type="line"/>
      <point x="467" y="587"/>
      <point x="414" y="630"/>
    </contour>
  </outline>
</glyph>
<glyph name="ydotbelow" format="2">
  <advance width="646"/>
  <unicode hex="1EF5"/>
  <anchor x="362" y="-414" name="bottom"/>
  <anchor x="337" y="550" name="top"/>
  <outline>
    <contour>
      <point x="138" y="545" type="line"/>
      <point x="135" y="222" type="line" smooth="yes"/>
      <point x="134" y="62"/>
      <point x="209" y="1"/>
      <point x="300" y="0" type="curve" smooth="yes"/>
      <point x="392" y="-1"/>
      <point x="441" y="49"/>
      <point x="499" y="107" type="curve"/>
      <point x="499" y="198" type="line"/>
      <point x="420" y="134"/>
      <point x="380" y="96"/>
      <point x="318" y="96" type="curve" smooth="yes"/>
      <point x="241" y="96"/>
      <point x="233" y="171"/>
      <point x="233" y="273" type="curve" smooth="yes"/>
      <point x="233" y="545" type="line"/>
    </contour>
    <contour>
      <point x="54" y="545" type="line"/>
      <point x="54" y="477" type="line"/>
      <point x="232" y="451" type="line"/>
      <point x="232" y="545" type="line"/>
    </contour>
    <contour>
      <point x="309" y="-100" type="curve"/>
      <point x="309" y="-187" type="line"/>
      <point x="338" y="-187" type="line" smooth="yes"/>
      <point x="451" y="-187"/>
      <point x="546" y="-145"/>
      <point x="546" y="-15" type="curve" smooth="yes"/>
      <point x="546" y="550" type="line"/>
      <point x="448" y="550" type="line"/>
      <point x="448" y="-15" type="line" smooth="yes"/>
      <point x="448" y="-92"/>
      <point x="382" y="-100"/>
    </contour>
    <contour>
      <point x="187" y="-210" type="curve" smooth="yes"/>
      <point x="226" y="-210"/>
      <point x="256" y="-180"/>
      <point x="256" y="-141" type="curve" smooth="yes"/>
      <point x="256" y="-103"/>
      <point x="226" y="-72"/>
      <point x="187" y="-72" type="curve" smooth="yes"/>
      <point x="150" y="-72"/>
      <point x="118" y="-103"/>
      <point x="118" y="-141" type="curve" smooth="yes"/>
      <point x="118" y="-180"/>
      <point x="150" y="-210"/>
    </contour>
  </outline>
</glyph>
<glyph name="endash" format="2">
  <advance width="600"/>
  <unicode hex="2013"/>
  <outline>
    <contour>
      <point x="535" y="350" type="line"/>
      <point x="65" y="350" type="line"/>
      <point x="65" y="264" type="line"/>
      <point x="535" y="264" type="line"/>
    </contour>
  </outline>
</glyph>
<glyph name="emdash" format="2">
  <advance width="770"/>
  <unicode hex="2014"/>
  <outline>
    <contour>
      <point x="670" y="350" type="line"/>
      <point x="100" y="350" type="line"/>
      <point x="100" y="264" type="line"/>
      <point x="670" y="264" type="line"/>
    </contour>
  </outline>
</glyph>
<glyph name="quoteleft" format="2">
  <advance width="345"/>
  <unicode hex="2018"/>
  <outline>
    <contour>
      <point x="203" y="542" type="line"/>
      <point x="245" y="710" type="line"/>
      <point x="189" y="710" type="line"/>
      <point x="108" y="542" type="line"/>
    </contour>
    <contour>
      <point x="166" y="578" type="curve" smooth="yes"/>
      <point x="130" y="578"/>
      <point x="100" y="547"/>
      <point x="100" y="508" type="curve" smooth="yes"/>
      <point x="100" y="472"/>
      <point x="130" y="440"/>
      <point x="166" y="440" type="curve" smooth="yes"/>
      <point x="206" y="440"/>
      <point x="237" y="472"/>
      <point x="237" y="508" type="curve" smooth="yes"/>
      <point x="237" y="547"/>
      <point x="206" y="578"/>
    </contour>
  </outline>
</glyph>
<glyph name="quoteright" format="2">
  <advance width="345"/>
  <unicode hex="2019"/>
  <outline>
    <contour>
      <point x="142" y="624" type="line"/>
      <point x="100" y="456" type="line"/>
      <point x="156" y="456" type="line"/>
      <point x="237" y="624" type="line"/>
    </contour>
    <contour>
      <point x="179" y="588" type="curve" smooth="yes"/>
      <point x="215" y="588"/>
      <point x="245" y="619"/>
      <point x="245" y="658" type="curve" smooth="yes"/>
      <point x="245" y="694"/>
      <point x="215" y="726"/>
      <point x="179" y="726" type="curve" smooth="yes"/>
      <point x="139" y="726"/>
      <point x="108" y="694"/>
      <point x="108" y="658" type="curve" smooth="yes"/>
      <point x="108" y="619"/>
      <point x="139" y="588"/>
    </contour>
  </outline>
</glyph>
<glyph name="quotesinglbase" format="2">
  <advance width="345"/>
  <unicode hex="201A"/>
  <outline>
    <contour>
      <point x="142" y="36" type="line"/>
      <point x="100" y="-132" type="line"/>
      <point x="156" y="-132" type="line"/>
      <point x="237" y="36" type="line"/>
    </contour>
    <contour>
      <point x="179" y="0" type="curve" smooth="yes"/>
      <point x="215" y="0"/>
      <point x="245" y="31"/>
      <point x="245" y="70" type="curve" smooth="yes"/>
      <point x="245" y="106"/>
      <point x="215" y="138"/>
      <point x="179" y="138" type="curve" smooth="yes"/>
      <point x="139" y="138"/>
      <point x="108" y="106"/>
      <point x="108" y="70" type="curve" smooth="yes"/>
      <point x="108" y="31"/>
      <point x="139" y="0"/>
    </contour>
  </outline>
</glyph>
<glyph name="quotedblleft" format="2">
  <advance width="534"/>
  <unicode hex="201C"/>
  <outline>
    <contour>
      <point x="392" y="542" type="line"/>
      <point x="434" y="710" type="line"/>
      <point x="378" y="710" type="line"/>
      <point x="297" y="542" type="line"/>
    </contour>
    <contour>
      <point x="355" y="578" type="curve" smooth="yes"/>
      <point x="319" y="578"/>
      <point x="289" y="547"/>
      <point x="289" y="508" type="curve" smooth="yes"/>
      <point x="289" y="472"/>
      <point x="319" y="440"/>
      <point x="355" y="440" type="curve" smooth="yes"/>
      <point x="395" y="440"/>
      <point x="426" y="472"/>
      <point x="426" y="508" type="curve" smooth="yes"/>
      <point x="426" y="547"/>
      <point x="395" y="578"/>
    </contour>
    <contour>
      <point x="203" y="542" type="line"/>
      <point x="245" y="710" type="line"/>
      <point x="189" y="710" type="line"/>
      <point x="108" y="542" type="line"/>
    </contour>
    <contour>
      <point x="166" y="578" type="curve" smooth="yes"/>
      <point x="130" y="578"/>
      <point x="100" y="547"/>
      <point x="100" y="508" type="curve" smooth="yes"/>
      <point x="100" y="472"/>
      <point x="130" y="440"/>
      <point x="166" y="440" type="curve" smooth="yes"/>
      <point x="206" y="440"/>
      <point x="237" y="472"/>
      <point x="237" y="508" type="curve" smooth="yes"/>
      <point x="237" y="547"/>
      <point x="206" y="578"/>
    </contour>
  </outline>
</glyph>
<glyph name="quotedblright" format="2">
  <advance width="534"/>
  <unicode hex="201D"/>
  <outline>
    <contour>
      <point x="142" y="624" type="line"/>
      <point x="100" y="456" type="line"/>
      <point x="156" y="456" type="line"/>
      <point x="237" y="624" type="line"/>
    </contour>
    <contour>
      <point x="179" y="588" type="curve" smooth="yes"/>
      <point x="215" y="588"/>
      <point x="245" y="619"/>
      <point x="245" y="658" type="curve" smooth="yes"/>
      <point x="245" y="694"/>
      <point x="215" y="726"/>
      <point x="179" y="726" type="curve" smooth="yes"/>
      <point x="139" y="726"/>
      <point x="108" y="694"/>
      <point x="108" y="658" type="curve" smooth="yes"/>
      <point x="108" y="619"/>
      <point x="139" y="588"/>
    </contour>
    <contour>
      <point x="331" y="624" type="line"/>
      <point x="289" y="456" type="line"/>
      <point x="345" y="456" type="line"/>
      <point x="426" y="624" type="line"/>
    </contour>
    <contour>
      <point x="368" y="588" type="curve" smooth="yes"/>
      <point x="404" y="588"/>
      <point x="434" y="619"/>
      <point x="434" y="658" type="curve" smooth="yes"/>
      <point x="434" y="694"/>
      <point x="404" y="726"/>
      <point x="368" y="726" type="curve" smooth="yes"/>
      <point x="328" y="726"/>
      <point x="297" y="694"/>
      <point x="297" y="658" type="curve" smooth="yes"/>
      <point x="297" y="619"/>
      <point x="328" y="588"/>
    </contour>
  </outline>
</glyph>
<glyph name="quotedblbase" format="2">
  <advance width="534"/>
  <unicode hex="201E"/>
  <outline>
    <contour>
      <point x="142" y="36" type="line"/>
      <point x="100" y="-132" type="line"/>
      <point x="156" y="-132" type="line"/>
      <point x="237" y="36" type="line"/>
    </contour>
    <contour>
      <point x="179" y="0" type="curve" smooth="yes"/>
      <point x="215" y="0"/>
      <point x="245" y="31"/>
      <point x="245" y="70" type="curve" smooth="yes"/>
      <point x="245" y="106"/>
      <point x="215" y="138"/>
      <point x="179" y="138" type="curve" smooth="yes"/>
      <point x="139" y="138"/>
      <point x="108" y="106"/>
      <point x="108" y="70" type="curve" smooth="yes"/>
      <point x="108" y="31"/>
      <point x="139" y="0"/>
    </contour>
    <contour>
      <point x="331" y="36" type="line"/>
      <point x="289" y="-132" type="line"/>
      <point x="345" y="-132" type="line"/>
      <point x="426" y="36" type="line"/>
    </contour>
    <contour>
      <point x="368" y="0" type="curve" smooth="yes"/>
      <point x="404" y="0"/>
      <point x="434" y="31"/>
      <point x="434" y="70" type="curve" smooth="yes"/>
      <point x="434" y="106"/>
      <point x="404" y="138"/>
      <point x="368" y="138" type="curve" smooth="yes"/>
      <point x="328" y="138"/>
      <point x="297" y="106"/>
      <point x="297" y="70" type="curve" smooth="yes"/>
      <point x="297" y="31"/>
      <point x="328" y="0"/>
    </contour>
  </outline>
</glyph>
<glyph name="dagger" format="2">
  <advance width="530"/>
  <unicode hex="2020"/>
  <outline>
    <contour>
      <point x="226" y="570" type="line"/>
      <point x="226" y="-20" type="line"/>
      <point x="304" y="-20" type="line"/>
      <point x="304" y="570" type="line"/>
    </contour>
    <contour>
      <point x="90" y="339" type="line"/>
      <point x="440" y="339" type="line"/>
      <point x="440" y="412" type="line"/>
      <point x="90" y="412" type="line"/>
    </contour>
  </outline>
</glyph>
<glyph name="daggerdbl" format="2">
  <advance width="530"/>
  <unicode hex="2021"/>
  <outline>
    <contour>
      <point x="226" y="570" type="line"/>
      <point x="226" y="-20" type="line"/>
      <point x="304" y="-20" type="line"/>
      <point x="304" y="570" type="line"/>
    </contour>
    <contour>
      <point x="90" y="348" type="line"/>
      <point x="440" y="348" type="line"/>
      <point x="440" y="418" type="line"/>
      <point x="90" y="418" type="line"/>
    </contour>
    <contour>
      <point x="90" y="132" type="line"/>
      <point x="440" y="132" type="line"/>
      <point x="440" y="202" type="line"/>
      <point x="90" y="202" type="line"/>
    </contour>
  </outline>
</glyph>
<glyph name="bullet" format="2">
  <advance width="450"/>
  <unicode hex="2022"/>
  <outline>
    <contour>
      <point x="225" y="224" type="curve" smooth="yes"/>
      <point x="294" y="224"/>
      <point x="350" y="281"/>
      <point x="350" y="350" type="curve" smooth="yes"/>
      <point x="350" y="419"/>
      <point x="294" y="474"/>
      <point x="225" y="474" type="curve" smooth="yes"/>
      <point x="156" y="474"/>
      <point x="100" y="419"/>
      <point x="100" y="350" type="curve" smooth="yes"/>
      <point x="100" y="281"/>
      <point x="156" y="224"/>
    </contour>
  </outline>
</glyph>
<glyph name="twodotenleader" format="2">
  <advance width="570"/>
  <unicode hex="2025"/>
  <outline>
    <contour>
      <point x="155" y="-16" type="curve" smooth="yes"/>
      <point x="186" y="-16"/>
      <point x="210" y="8"/>
      <point x="210" y="39" type="curve" smooth="yes"/>
      <point x="210" y="69"/>
      <point x="186" y="94"/>
      <point x="155" y="94" type="curve" smooth="yes"/>
      <point x="126" y="94"/>
      <point x="100" y="69"/>
      <point x="100" y="39" type="curve" smooth="yes"/>
      <point x="100" y="8"/>
      <point x="126" y="-16"/>
    </contour>
    <contour>
      <point x="415" y="-16" type="curve" smooth="yes"/>
      <point x="446" y="-16"/>
      <point x="470" y="8"/>
      <point x="470" y="39" type="curve" smooth="yes"/>
      <point x="470" y="69"/>
      <point x="446" y="94"/>
      <point x="415" y="94" type="curve" smooth="yes"/>
      <point x="386" y="94"/>
      <point x="360" y="69"/>
      <point x="360" y="39" type="curve" smooth="yes"/>
      <point x="360" y="8"/>
      <point x="386" y="-16"/>
    </contour>
  </outline>
</glyph>
<glyph name="ellipsis" format="2">
  <advance width="674"/>
  <unicode hex="2026"/>
  <outline>
    <contour>
      <point x="337" y="-16" type="curve" smooth="yes"/>
      <point x="368" y="-16"/>
      <point x="392" y="8"/>
      <point x="392" y="39" type="curve" smooth="yes"/>
      <point x="392" y="69"/>
      <point x="368" y="94"/>
      <point x="337" y="94" type="curve" smooth="yes"/>
      <point x="308" y="94"/>
      <point x="282" y="69"/>
      <point x="282" y="39" type="curve" smooth="yes"/>
      <point x="282" y="8"/>
      <point x="308" y="-16"/>
    </contour>
    <contour>
      <point x="155" y="-16" type="curve" smooth="yes"/>
      <point x="186" y="-16"/>
      <point x="210" y="8"/>
      <point x="210" y="39" type="curve" smooth="yes"/>
      <point x="210" y="69"/>
      <point x="186" y="94"/>
      <point x="155" y="94" type="curve" smooth="yes"/>
      <point x="126" y="94"/>
      <point x="100" y="69"/>
      <point x="100" y="39" type="curve" smooth="yes"/>
      <point x="100" y="8"/>
      <point x="126" y="-16"/>
    </contour>
    <contour>
      <point x="519" y="-16" type="curve" smooth="yes"/>
      <point x="550" y="-16"/>
      <point x="574" y="8"/>
      <point x="574" y="39" type="curve" smooth="yes"/>
      <point x="574" y="69"/>
      <point x="550" y="94"/>
      <point x="519" y="94" type="curve" smooth="yes"/>
      <point x="490" y="94"/>
      <point x="464" y="69"/>
      <point x="464" y="39" type="curve" smooth="yes"/>
      <point x="464" y="8"/>
      <point x="490" y="-16"/>
    </contour>
  </outline>
</glyph>
<glyph name="guilsinglleft" format="2">
  <advance width="500"/>
  <unicode hex="2039"/>
  <outline>
    <contour>
      <point x="100" y="275" type="line"/>
      <point x="157" y="218" type="line"/>
      <point x="400" y="461" type="line"/>
      <point x="343" y="518" type="line"/>
    </contour>
    <contour>
      <point x="100" y="275" type="line"/>
      <point x="343" y="32" type="line"/>
      <point x="400" y="89" type="line"/>
      <point x="157" y="332" type="line"/>
    </contour>
  </outline>
</glyph>
<glyph name="guilsinglright" format="2">
  <advance width="500"/>
  <unicode hex="203A"/>
  <outline>
    <contour>
      <point x="400" y="275" type="line"/>
      <point x="157" y="518" type="line"/>
      <point x="100" y="461" type="line"/>
      <point x="343" y="218" type="line"/>
    </contour>
    <contour>
      <point x="400" y="275" type="line"/>
      <point x="343" y="332" type="line"/>
      <point x="100" y="89" type="line"/>
      <point x="157" y="32" type="line"/>
    </contour>
  </outline>
</glyph>
<glyph name="naira" format="2">
  <advance width="676"/>
  <unicode hex="20A6"/>
  <outline>
    <contour>
      <point x="140" y="700" type="line"/>
      <point x="453" y="10" type="line"/>
      <point x="537" y="10" type="line"/>
      <point x="224" y="700" type="line"/>
    </contour>
    <contour>
      <point x="114" y="700" type="line"/>
      <point x="114" y="10" type="line"/>
      <point x="197" y="10" type="line"/>
      <point x="197" y="700" type="line"/>
    </contour>
    <contour>
      <point x="563" y="10" type="line"/>
      <point x="563" y="700" type="line"/>
      <point x="480" y="700" type="line"/>
      <point x="480" y="10" type="line"/>
    </contour>
    <contour>
      <point x="626" y="387" type="line"/>
      <point x="626" y="442" type="line"/>
      <point x="50" y="442" type="line"/>
      <point x="50" y="387" type="line"/>
    </contour>
    <contour>
      <point x="626" y="268" type="line"/>
      <point x="626" y="323" type="line"/>
      <point x="50" y="323" type="line"/>
      <point x="50" y="268" type="line"/>
    </contour>
  </outline>
</glyph>
<glyph name="won" format="2">
  <advance width="676"/>
  <unicode hex="20A9"/>
  <outline>
    <contour>
      <point x="81" y="700" type="line"/>
      <point x="77" y="388"/>
      <point x="108" y="169"/>
      <point x="151" y="10" type="curve"/>
      <point x="227" y="10" type="line"/>
      <point x="190" y="169"/>
      <point x="161" y="388"/>
      <point x="168" y="700" type="curve"/>
    </contour>
    <contour>
      <point x="374" y="473" type="line"/>
      <point x="302" y="473" type="line"/>
      <point x="178" y="10" type="line"/>
      <point x="258" y="10" type="line"/>
    </contour>
    <contour>
      <point x="302" y="473" type="line"/>
      <point x="418" y="10" type="line"/>
      <point x="498" y="10" type="line"/>
      <point x="374" y="473" type="line"/>
    </contour>
    <contour>
      <point x="595" y="700" type="curve"/>
      <point x="508" y="700" type="line"/>
      <point x="512" y="388"/>
      <point x="486" y="169"/>
      <point x="449" y="10" type="curve"/>
      <point x="525" y="10" type="line"/>
      <point x="568" y="169"/>
      <point x="596" y="388"/>
    </contour>
    <contour>
      <point x="626" y="387" type="line"/>
      <point x="626" y="442" type="line"/>
      <point x="50" y="442" type="line"/>
      <point x="50" y="387" type="line"/>
    </contour>
    <contour>
      <point x="286" y="268" type="line"/>
      <point x="286" y="323" type="line"/>
      <point x="50" y="323" type="line"/>
      <point x="50" y="268" type="line"/>
    </contour>
    <contour>
      <point x="626" y="268" type="line"/>
      <point x="626" y="323" type="line"/>
      <point x="390" y="323" type="line"/>
      <point x="390" y="268" type="line"/>
    </contour>
  </outline>
</glyph>
<glyph name="dong" format="2">
  <advance width="657"/>
  <unicode hex="20AB"/>
  <outline>
    <contour>
      <point x="546" y="-92" type="line"/>
      <point x="546" y="-18" type="line"/>
      <point x="100" y="-18" type="line"/>
      <point x="100" y="-92" type="line"/>
    </contour>
    <contour>
      <point x="484" y="82" type="line"/>
      <point x="484" y="738" type="line"/>
      <point x="398" y="738" type="line"/>
      <point x="398" y="43" type="line"/>
    </contour>
    <contour>
      <point x="479" y="79" type="curve"/>
      <point x="433" y="138" type="line"/>
      <point x="397" y="113"/>
      <point x="361" y="105"/>
      <point x="313" y="105" type="curve" smooth="yes"/>
      <point x="235" y="105"/>
      <point x="157" y="179"/>
      <point x="157" y="288" type="curve" smooth="yes"/>
      <point x="157" y="397"/>
      <point x="216" y="464"/>
      <point x="308" y="464" type="curve" smooth="yes"/>
      <point x="354" y="464"/>
      <point x="409" y="431"/>
      <point x="416" y="393" type="curve"/>
      <point x="449" y="393" type="line"/>
      <point x="442" y="480"/>
      <point x="385" y="545"/>
      <point x="293" y="545" type="curve" smooth="yes"/>
      <point x="180" y="545"/>
      <point x="70" y="453"/>
      <point x="70" y="288" type="curve" smooth="yes"/>
      <point x="70" y="127"/>
      <point x="186" y="23"/>
      <point x="313" y="23" type="curve" smooth="yes"/>
      <point x="381" y="23"/>
      <point x="437" y="51"/>
    </contour>
    <contour>
      <point x="484" y="161" type="curve"/>
      <point x="405" y="104" type="line"/>
      <point x="423" y="54"/>
      <point x="463" y="28"/>
      <point x="546" y="31" type="curve"/>
      <point x="546" y="107" type="line"/>
      <point x="506" y="109"/>
      <point x="484" y="127"/>
    </contour>
    <contour>
      <point x="263" y="670" type="line"/>
      <point x="263" y="598" type="line"/>
      <point x="567" y="598" type="line"/>
      <point x="567" y="670" type="line"/>
    </contour>
  </outline>
</glyph>
<glyph name="euro" format="2">
  <advance width="695"/>
  <unicode hex="20AC"/>
  <outline>
    <contour>
      <point x="566" y="532" type="curve"/>
      <point x="572" y="529" type="line"/>
      <point x="615" y="606" type="line"/>
      <point x="573" y="664"/>
      <point x="504" y="710"/>
      <point x="405" y="710" type="curve" smooth="yes"/>
      <point x="247" y="710"/>
      <point x="131" y="567"/>
      <point x="132" y="354" type="curve" smooth="yes"/>
      <point x="133" y="137"/>
      <point x="255" y="0"/>
      <point x="420" y="0" type="curve" smooth="yes"/>
      <point x="515" y="0"/>
      <point x="578" y="37"/>
      <point x="614" y="72" type="curve"/>
      <point x="614" y="167" type="line"/>
      <point x="606" y="167" type="line"/>
      <point x="552" y="114"/>
      <point x="499" y="87"/>
      <point x="425" y="87" type="curve" smooth="yes"/>
      <point x="301" y="87"/>
      <point x="225" y="191"/>
      <point x="225" y="353" type="curve" smooth="yes"/>
      <point x="225" y="519"/>
      <point x="296" y="624"/>
      <point x="414" y="624" type="curve" smooth="yes"/>
      <point x="483" y="624"/>
      <point x="543" y="577"/>
    </contour>
    <contour>
      <point x="491" y="371" type="line"/>
      <point x="528" y="438" type="line"/>
      <point x="528" y="444" type="line"/>
      <point x="51" y="444" type="line"/>
      <point x="51" y="371" type="line"/>
    </contour>
    <contour>
      <point x="418" y="235" type="line"/>
      <point x="453" y="301" type="line"/>
      <point x="455" y="307" type="line"/>
      <point x="50" y="307" type="line"/>
      <point x="50" y="235" type="line"/>
    </contour>
  </outline>
</glyph>
<glyph name="peso" format="2">
  <advance width="676"/>
  <unicode hex="20B1"/>
  <outline>
    <contour>
      <point x="119" y="700" type="line"/>
      <point x="119" y="10" type="line"/>
      <point x="207" y="10" type="line"/>
      <point x="207" y="700" type="line"/>
    </contour>
    <contour>
      <point x="195" y="318" type="curve"/>
      <point x="195" y="236" type="line"/>
      <point x="262" y="236"/>
      <point x="277" y="236"/>
      <point x="330" y="236" type="curve" smooth="yes"/>
      <point x="465" y="236"/>
      <point x="558" y="333"/>
      <point x="558" y="468" type="curve" smooth="yes"/>
      <point x="558" y="594"/>
      <point x="469" y="696"/>
      <point x="330" y="700" type="curve" smooth="yes"/>
      <point x="290" y="701"/>
      <point x="269" y="700"/>
      <point x="195" y="700" type="curve"/>
      <point x="195" y="618" type="line"/>
      <point x="270" y="618"/>
      <point x="290" y="620"/>
      <point x="332" y="618" type="curve" smooth="yes"/>
      <point x="423" y="614"/>
      <point x="476" y="541"/>
      <point x="476" y="468" type="curve" smooth="yes"/>
      <point x="476" y="390"/>
      <point x="423" y="318"/>
      <point x="332" y="318" type="curve" smooth="yes"/>
      <point x="279" y="318"/>
      <point x="263" y="318"/>
    </contour>
    <contour>
      <point x="626" y="501" type="line"/>
      <point x="626" y="556" type="line"/>
      <point x="50" y="556" type="line"/>
      <point x="50" y="501" type="line"/>
    </contour>
    <contour>
      <point x="626" y="380" type="line"/>
      <point x="626" y="435" type="line"/>
      <point x="50" y="435" type="line"/>
      <point x="50" y="380" type="line"/>
    </contour>
  </outline>
</glyph>
<glyph name="rupeeIndian" format="2">
  <advance width="616"/>
  <unicode hex="20B9"/>
  <outline>
    <contour>
      <point x="188" y="294" type="line"/>
      <point x="80" y="294" type="line"/>
      <point x="341" y="10" type="line"/>
      <point x="445" y="10" type="line"/>
      <point x="445" y="20" type="line"/>
    </contour>
    <contour>
      <point x="536" y="630" type="line"/>
      <point x="536" y="700" type="line"/>
      <point x="80" y="700" type="line"/>
      <point x="80" y="630" type="line"/>
    </contour>
    <contour>
      <point x="536" y="462" type="line"/>
      <point x="536" y="532" type="line"/>
      <point x="80" y="532" type="line"/>
      <point x="80" y="462" type="line"/>
    </contour>
    <contour>
      <point x="80" y="364" type="curve"/>
      <point x="80" y="294" type="line"/>
      <point x="147" y="294"/>
      <point x="162" y="294"/>
      <point x="215" y="294" type="curve" smooth="yes"/>
      <point x="356" y="294"/>
      <point x="448" y="365"/>
      <point x="448" y="491" type="curve" smooth="yes"/>
      <point x="448" y="607"/>
      <point x="360" y="666"/>
      <point x="215" y="666" type="curve" smooth="yes"/>
      <point x="175" y="666"/>
      <point x="154" y="666"/>
      <point x="80" y="666" type="curve"/>
      <point x="80" y="618" type="line"/>
      <point x="155" y="618"/>
      <point x="175" y="618"/>
      <point x="217" y="618" type="curve" smooth="yes"/>
      <point x="316" y="618"/>
      <point x="364" y="564"/>
      <point x="364" y="491" type="curve" smooth="yes"/>
      <point x="364" y="417"/>
      <point x="316" y="364"/>
      <point x="217" y="364" type="curve" smooth="yes"/>
      <point x="164" y="364"/>
      <point x="148" y="364"/>
    </contour>
  </outline>
</glyph>
<glyph name="liraTurkish" format="2">
  <advance width="643"/>
  <unicode hex="20BA"/>
  <outline>
    <contour>
      <point x="177" y="700" type="line"/>
      <point x="177" y="10" type="line"/>
      <point x="265" y="10" type="line"/>
      <point x="265" y="700" type="line"/>
    </contour>
    <contour>
      <point x="50" y="510" type="line"/>
      <point x="50" y="434" type="line"/>
      <point x="416" y="519" type="line"/>
      <point x="416" y="595" type="line"/>
    </contour>
    <contour>
      <point x="50" y="372" type="line"/>
      <point x="50" y="296" type="line"/>
      <point x="416" y="381" type="line"/>
      <point x="416" y="457" type="line"/>
    </contour>
    <contour>
      <point x="588" y="353" type="curve"/>
      <point x="501" y="353" type="line"/>
      <point x="496" y="223"/>
      <point x="444" y="92"/>
      <point x="284" y="92" type="curve"/>
      <point x="284" y="10" type="line"/>
      <point x="472" y="10"/>
      <point x="583" y="130"/>
    </contour>
    <contour>
      <point x="225" y="92" type="line"/>
      <point x="225" y="10" type="line"/>
      <point x="284" y="10" type="line"/>
      <point x="284" y="92" type="line"/>
    </contour>
  </outline>
</glyph>
<glyph name="ruble" format="2">
  <advance width="624"/>
  <unicode hex="20BD"/>
  <outline>
    <contour>
      <point x="126" y="700" type="line"/>
      <point x="126" y="10" type="line"/>
      <point x="214" y="10" type="line"/>
      <point x="214" y="700" type="line"/>
    </contour>
    <contour>
      <point x="50" y="374" type="curve"/>
      <point x="50" y="292" type="line"/>
      <point x="117" y="292"/>
      <point x="283" y="292"/>
      <point x="336" y="292" type="curve" smooth="yes"/>
      <point x="471" y="292"/>
      <point x="564" y="363"/>
      <point x="564" y="496" type="curve" smooth="yes"/>
      <point x="564" y="624"/>
      <point x="475" y="700"/>
      <point x="336" y="700" type="curve" smooth="yes"/>
      <point x="296" y="700"/>
      <point x="270" y="700"/>
      <point x="196" y="700" type="curve"/>
      <point x="196" y="618" type="line"/>
      <point x="271" y="618"/>
      <point x="296" y="618"/>
      <point x="338" y="618" type="curve" smooth="yes"/>
      <point x="427" y="618"/>
      <point x="480" y="571"/>
      <point x="480" y="496" type="curve" smooth="yes"/>
      <point x="480" y="420"/>
      <point x="427" y="374"/>
      <point x="338" y="374" type="curve" smooth="yes"/>
      <point x="285" y="374"/>
      <point x="118" y="374"/>
    </contour>
    <contour>
      <point x="437" y="138" type="line"/>
      <point x="437" y="214" type="line"/>
      <point x="50" y="214" type="line"/>
      <point x="50" y="138" type="line"/>
    </contour>
  </outline>
</glyph>
<glyph name="published" format="2">
  <advance width="670"/>
  <unicode hex="2117"/>
  <outline>
    <contour>
      <point x="335" y="42" type="curve" smooth="yes"/>
      <point x="515" y="42"/>
      <point x="610" y="178"/>
      <point x="610" y="360" type="curve" smooth="yes"/>
      <point x="610" y="542"/>
      <point x="515" y="678"/>
      <point x="335" y="678" type="curve" smooth="yes"/>
      <point x="155" y="678"/>
      <point x="60" y="542"/>
      <point x="60" y="360" type="curve" smooth="yes"/>
      <point x="60" y="178"/>
      <point x="155" y="42"/>
    </contour>
    <contour>
      <point x="335" y="86" type="curve" smooth="yes"/>
      <point x="182" y="88"/>
      <point x="109" y="201"/>
      <point x="109" y="360" type="curve" smooth="yes"/>
      <point x="109" y="519"/>
      <point x="182" y="636"/>
      <point x="335" y="636" type="curve" smooth="yes"/>
      <point x="488" y="636"/>
      <point x="561" y="519"/>
      <point x="561" y="360" type="curve" smooth="yes"/>
      <point x="561" y="201"/>
      <point x="488" y="84"/>
    </contour>
    <contour>
      <point x="216" y="550" type="line"/>
      <point x="216" y="180" type="line"/>
      <point x="280" y="180" type="line"/>
      <point x="280" y="550" type="line"/>
    </contour>
    <contour>
      <point x="274" y="375" type="curve"/>
      <point x="274" y="314" type="line"/>
      <point x="312" y="314"/>
      <point x="325" y="314"/>
      <point x="355" y="314" type="curve" smooth="yes"/>
      <point x="434" y="314"/>
      <point x="490" y="353"/>
      <point x="490" y="432" type="curve" smooth="yes"/>
      <point x="490" y="511"/>
      <point x="437" y="550"/>
      <point x="355" y="550" type="curve" smooth="yes"/>
      <point x="332" y="550"/>
      <point x="316" y="550"/>
      <point x="274" y="550" type="curve"/>
      <point x="274" y="489" type="line"/>
      <point x="317" y="489"/>
      <point x="326" y="489"/>
      <point x="350" y="489" type="curve" smooth="yes"/>
      <point x="402" y="489"/>
      <point x="428" y="473"/>
      <point x="428" y="432" type="curve" smooth="yes"/>
      <point x="428" y="391"/>
      <point x="402" y="375"/>
      <point x="350" y="375" type="curve" smooth="yes"/>
      <point x="320" y="375"/>
      <point x="313" y="375"/>
    </contour>
  </outline>
</glyph>
